<?xml version="1.0" encoding="UTF-8"?>
<svg version="1.1" xmlns="http://www.w3.org/2000/svg" width="512" height="512">
<path d="M0 0 C1.01790619 0.00215515 2.03581238 0.0043103 3.08456421 0.00653076 C17.69363523 0.05620146 32.02575853 0.30709809 46.375 3.3125 C47.34985352 3.51117676 48.32470703 3.70985352 49.32910156 3.91455078 C98.5477554 14.2102109 141.97749696 36.64668433 178.375 71.3125 C179.273396 72.16787354 179.273396 72.16787354 180.18994141 73.04052734 C188.52743043 81.03806198 196.17259045 89.25204073 203.05566406 98.53564453 C204.41568182 100.36728947 205.79649374 102.18190483 207.1796875 103.99609375 C213.54577418 112.42118239 219.18069794 121.12220929 224.375 130.3125 C224.7162793 130.90998047 225.05755859 131.50746094 225.40917969 132.12304688 C244.44300653 165.67358184 256.36275284 205.92742909 256.578125 244.6328125 C256.58518463 245.48600067 256.59224426 246.33918884 256.59951782 247.2182312 C257.01687425 312.51338437 238.56500595 374.87961199 194.375 424.3125 C193.65183594 425.14523437 192.92867188 425.97796875 192.18359375 426.8359375 C182.45944662 437.90319887 172.06332206 448.32540353 160.375 457.3125 C159.01375 458.38177734 159.01375 458.38177734 157.625 459.47265625 C125.36535434 484.3248561 88.7565446 500.36141422 48.9375 508.625 C47.87704468 508.84627563 47.87704468 508.84627563 46.79516602 509.07202148 C31.53444126 512.00446099 16.24759951 512.69076913 0.75 512.625 C-0.16942383 512.62284485 -1.08884766 512.6206897 -2.03613281 512.61846924 C-16.40916193 512.56456415 -30.47652869 512.05401263 -44.625 509.3125 C-45.65367187 509.11382324 -46.68234375 508.91514648 -47.7421875 508.71044922 C-97.47216622 498.75998135 -142.34033524 475.75849158 -178.625 440.3125 C-179.24181641 439.71614746 -179.85863281 439.11979492 -180.49414062 438.50537109 C-197.61645587 421.9254119 -211.93788958 403.08778412 -223.625 382.3125 C-223.98513184 381.68649902 -224.34526367 381.06049805 -224.71630859 380.41552734 C-246.33137958 342.66298159 -256.10199834 299.89162524 -255.9375 256.6875 C-255.93534485 255.66926147 -255.9331897 254.65102295 -255.93096924 253.60192871 C-255.88127396 238.98002576 -255.57561242 224.68116068 -252.625 210.3125 C-252.42632324 209.29994141 -252.22764648 208.28738281 -252.02294922 207.24414062 C-242.60747629 160.1597232 -220.94491269 117.92629473 -188.61328125 82.5234375 C-187.0289618 80.76169917 -185.53109002 78.98161213 -184.0625 77.125 C-181.52677957 74.19916873 -178.84310067 71.77866544 -175.8984375 69.27734375 C-173.40821515 67.12514127 -171.02499575 64.87724826 -168.625 62.625 C-135.90971465 32.92059943 -94.38911597 13.75159424 -51.4375 4.5625 C-50.51251709 4.36358154 -49.58753418 4.16466309 -48.63452148 3.9597168 C-32.42774082 0.66866307 -16.49461164 -0.06280847 0 0 Z " fill="#1A1A1A" transform="translate(255.625,-0.3125)"/>
<path d="M0 0 C1.00266448 -0.00709439 2.00532897 -0.01418877 3.03837723 -0.02149814 C6.37249563 -0.03899273 9.70543507 -0.0210162 13.03953552 -0.00291443 C15.44017566 -0.00805644 17.84081202 -0.01533984 20.24143982 -0.02459717 C26.06925006 -0.04116532 31.89668786 -0.03450229 37.72448701 -0.01650894 C42.46294437 -0.00244731 47.2013107 0.00140224 51.93978691 -0.00195122 C52.61579701 -0.00242866 53.29180711 -0.0029061 53.98830236 -0.00339801 C55.36186046 -0.0044244 56.73541854 -0.00547977 58.1089766 -0.00656378 C70.23677559 -0.01511854 82.36441266 0.00150494 94.49217224 0.03126526 C106.24549662 0.06010612 117.9985878 0.06718163 129.75193787 0.05177307 C142.56922859 0.03499257 155.38640876 0.03099501 168.20370239 0.04848343 C169.5717242 0.05032771 170.93974603 0.05216244 172.30776787 0.0539875 C173.31725396 0.05535564 173.31725396 0.05535564 174.34713371 0.05675141 C179.07742503 0.06234484 183.80766216 0.05906086 188.53795052 0.05244255 C194.90992463 0.04477209 201.28156354 0.0569314 207.65348053 0.08429146 C209.98951917 0.09116798 212.32558916 0.09128117 214.66162682 0.08407593 C217.85503074 0.07536241 221.04740465 0.09137058 224.24072266 0.11352539 C225.621091 0.10116424 225.621091 0.10116424 227.02934557 0.08855337 C235.91581616 0.20202624 243.28384057 3.21259131 249.55686951 9.62818909 C253.39822774 15.53076394 255.68322768 20.42092194 255.67712402 27.53167725 C255.67918602 29.38056297 255.67918602 29.38056297 255.68128967 31.26679993 C255.67775054 32.6349032 255.67411573 34.00300622 255.6703949 35.37110901 C255.67011286 36.80995685 255.67027108 38.24880483 255.6708374 39.68765259 C255.67112474 43.59645376 255.66523824 47.50522434 255.65826344 51.41401839 C255.65201937 55.49796504 255.65142527 59.58191236 255.65023804 63.66586304 C255.64712784 71.40061716 255.63891863 79.13535718 255.62888855 86.87010509 C255.61771776 95.67532562 255.61221452 104.48054683 255.60719311 113.28577268 C255.59673577 131.39991949 255.57914233 149.51405315 255.55686951 167.62818909 C256.82143982 167.5933844 258.08601013 167.55857971 259.38890076 167.52272034 C261.04904373 167.49458232 262.70920106 167.46728217 264.36936951 167.44068909 C265.20274841 167.41555237 266.03612732 167.39041565 266.89476013 167.36451721 C268.09842224 167.35001526 268.09842224 167.35001526 269.32640076 167.33522034 C270.43398743 167.31165466 270.43398743 167.31165466 271.56394958 167.28761292 C274.14547893 167.72877835 275.00135645 168.55125841 276.55686951 170.62818909 C276.8923934 173.14677994 277.04858017 175.41406253 277.06077576 177.93678284 C277.07076096 178.65874344 277.08074615 179.38070404 277.09103394 180.12454224 C277.10622406 181.65686832 277.11325945 183.18929364 277.11277771 184.72169495 C277.11926231 187.02757004 277.17349734 189.32895095 277.23069763 191.63404846 C277.3553763 202.6285956 275.34421535 210.85882358 268.11936951 219.56568909 C259.19771352 226.74653415 252.84023876 228.92924762 241.26602173 228.89561462 C240.12385061 228.90014574 238.98167949 228.90467685 237.80489713 228.90934527 C233.97502852 228.92201249 230.14530168 228.92036737 226.31541443 228.91871643 C223.57054101 228.9236134 220.82567756 228.93144878 218.08081055 228.93907166 C211.39698443 228.95567059 204.71319358 228.9611807 198.02934857 228.96229641 C192.59525756 228.9632474 187.16117817 228.96736025 181.72709084 228.97369766 C166.31361684 228.99130699 150.90017068 229.00053701 135.48668655 228.99903671 C134.2407838 228.99891685 134.2407838 228.99891685 132.9697113 228.99879456 C132.13809297 228.99871279 131.30647464 228.99863103 130.44965575 228.99854679 C116.97336159 228.99773396 103.49717921 229.0168717 90.02091738 229.04507129 C76.17689408 229.07381139 62.33292528 229.08761097 48.4888714 229.08588374 C40.71916851 229.08522023 32.94958283 229.09069535 25.17990685 229.11223984 C18.56447293 229.13046647 11.94920935 229.13478688 5.33376118 229.12122099 C1.9603421 229.11469859 -1.41248419 229.11672781 -4.78591537 229.13192749 C-8.44801232 229.14735833 -12.10925333 229.13808463 -15.77133179 229.12266541 C-16.83048902 229.13295253 -17.88964625 229.14323966 -18.98089916 229.15383852 C-28.07923711 229.06927371 -36.84210578 226.1660461 -43.44313049 219.62818909 C-48.67184541 212.32726457 -51.75554515 205.85121512 -51.74391174 196.80787659 C-51.74819687 196.06740082 -51.75248199 195.32692505 -51.75689697 194.56401062 C-51.76261827 193.00582397 -51.76315681 191.44761063 -51.75880432 189.88941956 C-51.75563118 187.50370649 -51.77917432 185.11921899 -51.80445862 182.73365784 C-51.80673051 181.21673232 -51.80743562 179.69980346 -51.80641174 178.18287659 C-51.81562149 177.47033722 -51.82483124 176.75779785 -51.83432007 176.02366638 C-51.78808243 171.092125 -51.78808243 171.092125 -50.18426514 168.93510437 C-48.01802833 167.30910262 -46.89723338 167.27810179 -44.21266174 167.33522034 C-43.00899963 167.34972229 -43.00899963 167.34972229 -41.78102112 167.36451721 C-40.94764221 167.38965393 -40.11426331 167.41479065 -39.25563049 167.44068909 C-38.41065002 167.45422424 -37.56566956 167.4677594 -36.69508362 167.48170471 C-34.61082665 167.5170311 -32.52689773 167.5708377 -30.44313049 167.62818909 C-30.44681767 166.88404031 -30.45050484 166.13989153 -30.45430374 165.37319279 C-30.54274288 147.24430079 -30.60888291 129.115452 -30.65037918 110.98639011 C-30.67098123 102.21920575 -30.69905658 93.45216562 -30.74488831 84.68507385 C-30.78482845 77.04131389 -30.81058044 69.39765841 -30.81948447 61.75379699 C-30.82468712 57.70852114 -30.83686561 53.66354415 -30.86605072 49.61836433 C-30.89333355 45.80572196 -30.90154977 41.99349969 -30.89556122 38.18076897 C-30.89665574 36.78643887 -30.90453304 35.39209377 -30.91995239 33.99784851 C-31.02952334 23.57313869 -29.70326373 15.09496802 -22.32864827 7.30476987 C-15.76052405 1.46446913 -8.53861038 -0.1100861 0 0 Z " fill="#202020" transform="translate(143.44313049316406,141.37181091308594)"/>
<path d="M0 0 C1.00266448 -0.00709439 2.00532897 -0.01418877 3.03837723 -0.02149814 C6.37249563 -0.03899273 9.70543507 -0.0210162 13.03953552 -0.00291443 C15.44017566 -0.00805644 17.84081202 -0.01533984 20.24143982 -0.02459717 C26.06925006 -0.04116532 31.89668786 -0.03450229 37.72448701 -0.01650894 C42.46294437 -0.00244731 47.2013107 0.00140224 51.93978691 -0.00195122 C52.61579701 -0.00242866 53.29180711 -0.0029061 53.98830236 -0.00339801 C55.36186046 -0.0044244 56.73541854 -0.00547977 58.1089766 -0.00656378 C70.23677559 -0.01511854 82.36441266 0.00150494 94.49217224 0.03126526 C106.24549662 0.06010612 117.9985878 0.06718163 129.75193787 0.05177307 C142.56922859 0.03499257 155.38640876 0.03099501 168.20370239 0.04848343 C169.5717242 0.05032771 170.93974603 0.05216244 172.30776787 0.0539875 C173.31725396 0.05535564 173.31725396 0.05535564 174.34713371 0.05675141 C179.07742503 0.06234484 183.80766216 0.05906086 188.53795052 0.05244255 C194.90992463 0.04477209 201.28156354 0.0569314 207.65348053 0.08429146 C209.98951917 0.09116798 212.32558916 0.09128117 214.66162682 0.08407593 C217.85503074 0.07536241 221.04740465 0.09137058 224.24072266 0.11352539 C225.621091 0.10116424 225.621091 0.10116424 227.02934557 0.08855337 C235.91581616 0.20202624 243.28384057 3.21259131 249.55686951 9.62818909 C253.39822774 15.53076394 255.68322768 20.42092194 255.67712402 27.53167725 C255.67918602 29.38056297 255.67918602 29.38056297 255.68128967 31.26679993 C255.67775054 32.6349032 255.67411573 34.00300622 255.6703949 35.37110901 C255.67011286 36.80995685 255.67027108 38.24880483 255.6708374 39.68765259 C255.67112474 43.59645376 255.66523824 47.50522434 255.65826344 51.41401839 C255.65201937 55.49796504 255.65142527 59.58191236 255.65023804 63.66586304 C255.64712784 71.40061716 255.63891863 79.13535718 255.62888855 86.87010509 C255.61771776 95.67532562 255.61221452 104.48054683 255.60719311 113.28577268 C255.59673577 131.39991949 255.57914233 149.51405315 255.55686951 167.62818909 C256.82143982 167.5933844 258.08601013 167.55857971 259.38890076 167.52272034 C261.04904373 167.49458232 262.70920106 167.46728217 264.36936951 167.44068909 C265.20274841 167.41555237 266.03612732 167.39041565 266.89476013 167.36451721 C268.09842224 167.35001526 268.09842224 167.35001526 269.32640076 167.33522034 C270.43398743 167.31165466 270.43398743 167.31165466 271.56394958 167.28761292 C274.14547893 167.72877835 275.00135645 168.55125841 276.55686951 170.62818909 C276.8923934 173.14677994 277.04858017 175.41406253 277.06077576 177.93678284 C277.07076096 178.65874344 277.08074615 179.38070404 277.09103394 180.12454224 C277.10622406 181.65686832 277.11325945 183.18929364 277.11277771 184.72169495 C277.11926231 187.02757004 277.17349734 189.32895095 277.23069763 191.63404846 C277.3553763 202.6285956 275.34421535 210.85882358 268.11936951 219.56568909 C259.19771352 226.74653415 252.84023876 228.92924762 241.26602173 228.89561462 C240.12385061 228.90014574 238.98167949 228.90467685 237.80489713 228.90934527 C233.97502852 228.92201249 230.14530168 228.92036737 226.31541443 228.91871643 C223.57054101 228.9236134 220.82567756 228.93144878 218.08081055 228.93907166 C211.39698443 228.95567059 204.71319358 228.9611807 198.02934857 228.96229641 C192.59525756 228.9632474 187.16117817 228.96736025 181.72709084 228.97369766 C166.31361684 228.99130699 150.90017068 229.00053701 135.48668655 228.99903671 C134.2407838 228.99891685 134.2407838 228.99891685 132.9697113 228.99879456 C132.13809297 228.99871279 131.30647464 228.99863103 130.44965575 228.99854679 C116.97336159 228.99773396 103.49717921 229.0168717 90.02091738 229.04507129 C76.17689408 229.07381139 62.33292528 229.08761097 48.4888714 229.08588374 C40.71916851 229.08522023 32.94958283 229.09069535 25.17990685 229.11223984 C18.56447293 229.13046647 11.94920935 229.13478688 5.33376118 229.12122099 C1.9603421 229.11469859 -1.41248419 229.11672781 -4.78591537 229.13192749 C-8.44801232 229.14735833 -12.10925333 229.13808463 -15.77133179 229.12266541 C-16.83048902 229.13295253 -17.88964625 229.14323966 -18.98089916 229.15383852 C-28.07923711 229.06927371 -36.84210578 226.1660461 -43.44313049 219.62818909 C-48.67184541 212.32726457 -51.75554515 205.85121512 -51.74391174 196.80787659 C-51.74819687 196.06740082 -51.75248199 195.32692505 -51.75689697 194.56401062 C-51.76261827 193.00582397 -51.76315681 191.44761063 -51.75880432 189.88941956 C-51.75563118 187.50370649 -51.77917432 185.11921899 -51.80445862 182.73365784 C-51.80673051 181.21673232 -51.80743562 179.69980346 -51.80641174 178.18287659 C-51.81562149 177.47033722 -51.82483124 176.75779785 -51.83432007 176.02366638 C-51.78808243 171.092125 -51.78808243 171.092125 -50.18426514 168.93510437 C-48.01802833 167.30910262 -46.89723338 167.27810179 -44.21266174 167.33522034 C-43.00899963 167.34972229 -43.00899963 167.34972229 -41.78102112 167.36451721 C-40.94764221 167.38965393 -40.11426331 167.41479065 -39.25563049 167.44068909 C-38.41065002 167.45422424 -37.56566956 167.4677594 -36.69508362 167.48170471 C-34.61082665 167.5170311 -32.52689773 167.5708377 -30.44313049 167.62818909 C-30.44681767 166.88404031 -30.45050484 166.13989153 -30.45430374 165.37319279 C-30.54274288 147.24430079 -30.60888291 129.115452 -30.65037918 110.98639011 C-30.67098123 102.21920575 -30.69905658 93.45216562 -30.74488831 84.68507385 C-30.78482845 77.04131389 -30.81058044 69.39765841 -30.81948447 61.75379699 C-30.82468712 57.70852114 -30.83686561 53.66354415 -30.86605072 49.61836433 C-30.89333355 45.80572196 -30.90154977 41.99349969 -30.89556122 38.18076897 C-30.89665574 36.78643887 -30.90453304 35.39209377 -30.91995239 33.99784851 C-31.02952334 23.57313869 -29.70326373 15.09496802 -22.32864827 7.30476987 C-15.76052405 1.46446913 -8.53861038 -0.1100861 0 0 Z M-20.91474915 17.61587524 C-23.68441684 23.2071043 -22.96395635 29.74329712 -22.89723206 35.82521057 C-22.89600546 37.28785948 -22.89654283 38.75051076 -22.89869308 40.21315861 C-22.89959303 44.11634646 -22.87647607 48.01903993 -22.84825134 51.92211151 C-22.82540536 55.58981823 -22.82439532 59.25740708 -22.82154846 62.92518616 C-22.80059172 73.63875215 -22.74474678 84.35222693 -22.69313049 95.06568909 C-22.61063049 119.01131409 -22.52813049 142.95693909 -22.44313049 167.62818909 C66.65686951 167.62818909 155.75686951 167.62818909 247.55686951 167.62818909 C247.65999451 143.70318909 247.76311951 119.77818909 247.86936951 95.12818909 C247.91488953 87.57879456 247.96040955 80.02940002 248.00730896 72.25123596 C248.02403297 65.47347066 248.02403297 65.47347066 248.03408813 58.69569397 C248.03873934 55.6808577 248.05744714 52.66646335 248.08474731 49.65174866 C248.11915538 45.80084664 248.12930513 41.95058313 248.12223089 38.09954166 C248.12370915 36.68964084 248.13355889 35.2797167 248.15294516 33.86994839 C248.24341627 26.96776346 248.28484519 21.20117299 244.31425762 15.36336517 C239.25336989 10.36644316 235.49571299 8.06904224 228.25201088 7.95480996 C227.32068445 7.96528145 226.38935802 7.97575294 225.42980957 7.98654175 C224.42491924 7.97803623 223.42002891 7.96953071 222.38468736 7.96076745 C219.02513694 7.93852295 215.66669677 7.95192768 212.30711365 7.96534729 C209.89543872 7.95693313 207.48377036 7.94640758 205.07211304 7.93392944 C199.20616499 7.90967288 193.34049925 7.90892016 187.47453744 7.91996763 C182.70548356 7.92853559 177.93651828 7.92768778 173.1674633 7.92017174 C172.14824232 7.91858941 172.14824232 7.91858941 171.10843102 7.91697511 C169.72794559 7.91480412 168.34746017 7.91261734 166.96697479 7.91041496 C154.02948604 7.8909964 141.09216923 7.90297195 128.15469455 7.9252009 C117.06247479 7.94344869 105.97058794 7.93255044 94.87840271 7.90089417 C81.98788074 7.86410749 69.09756665 7.84711835 56.20699209 7.86030644 C54.83135858 7.8616475 53.45572504 7.86295648 52.08009148 7.86423302 C51.40331096 7.86486368 50.72653045 7.86549435 50.02924143 7.86614412 C45.2684142 7.86916765 40.50774417 7.85792761 35.74695015 7.84098244 C29.33392838 7.81849974 22.92142528 7.82769247 16.50843239 7.8580761 C14.15584544 7.86440795 11.80320538 7.86053212 9.45065689 7.84566498 C6.23662304 7.82700104 3.02483489 7.84538013 -0.18908691 7.87301636 C-1.58273048 7.85191668 -1.58273048 7.85191668 -3.00452846 7.83039075 C-11.1821441 7.97190372 -15.79632158 11.4287334 -20.91474915 17.61587524 Z " fill="#F5F5F5" transform="translate(143.44313049316406,141.37181091308594)"/>
<path d="M0 0 C33 0 66 0 100 0 C100.495 7.425 100.495 7.425 101 15 C104.90055967 20.85083951 108.0372921 24.91802106 115.07339478 26.45204544 C117.28991319 26.64509239 119.45117739 26.67648837 121.67578125 26.64697266 C122.50290619 26.65573425 123.33003113 26.66449585 124.18222046 26.67352295 C126.89286102 26.69537459 129.60184537 26.68101579 132.3125 26.6640625 C134.21004547 26.66743474 136.10758883 26.67229076 138.00512695 26.67855835 C141.97270368 26.68591038 145.93971573 26.67527819 149.90722656 26.65185547 C154.97808281 26.62336866 160.0476157 26.63978161 165.11842346 26.66971779 C169.03399522 26.68783603 172.94925623 26.68201203 176.86483765 26.66907883 C178.73383747 26.66575731 180.60286605 26.66978749 182.47183228 26.68147659 C185.09004817 26.69426042 187.70615861 26.67470533 190.32421875 26.64697266 C191.46846817 26.66215439 191.46846817 26.66215439 192.63583374 26.67764282 C198.50125354 26.56327053 202.40305365 24.59644125 207 21 C212.68992347 14.75943877 211.35253744 9.0644758 212 0 C245 0 278 0 312 0 C312 29 312 29 306 39 C300.76670014 42.82733871 296.84794098 45.1217331 290.29036999 45.13142776 C288.82915951 45.13718948 288.82915951 45.13718948 287.33842963 45.1430676 C285.72931463 45.14176787 285.72931463 45.14176787 284.08769226 45.14044189 C282.95005127 45.14341302 281.81241028 45.14638414 280.64029533 45.1494453 C276.80795972 45.15815377 272.97565528 45.15964236 269.14331055 45.16113281 C266.40386775 45.16522053 263.66442825 45.17076311 260.92498779 45.17617798 C253.46839044 45.18976492 246.01179847 45.19578655 238.5551908 45.20018864 C233.90019921 45.20295038 229.24520969 45.2071876 224.5902195 45.21169281 C211.70455779 45.22388582 198.81889775 45.23418515 185.9332304 45.2375679 C184.69595719 45.23789725 184.69595719 45.23789725 183.43368857 45.23823325 C182.19343842 45.23856067 182.19343842 45.23856067 180.92813271 45.2388947 C179.25262558 45.23933817 177.57711846 45.23978473 175.90161133 45.24023438 C175.07050017 45.2404558 174.23938902 45.24067723 173.38309268 45.24090537 C159.91430393 45.24485389 146.44556927 45.26230941 132.97680142 45.2855939 C119.1521036 45.30930101 105.32743293 45.32176946 91.50271446 45.32293582 C83.73922869 45.32385293 75.9758134 45.32961423 68.21234703 45.34775543 C61.60190441 45.36314778 54.99155405 45.36828202 48.38109692 45.36001733 C45.00815239 45.3561077 41.63554491 45.35868375 38.26259804 45.37107468 C34.60599041 45.3837218 30.9498625 45.37795633 27.29325867 45.36749268 C26.2272075 45.37554908 25.16115633 45.38360548 24.06280059 45.39190602 C18.589589 45.35517593 14.74042255 45.0489832 10 42 C9.154375 41.46375 8.30875 40.9275 7.4375 40.375 C5 38 5 38 0 29 C0 19.43 0 9.86 0 0 Z " fill="#1B1B1B" transform="translate(100,317)"/>
<path d="M0 0 C32.01 0 64.02 0 97 0 C97 4.29 97 8.58 97 13 C91.87061126 18.12938874 88.95575895 18.15273473 82.11962891 18.17700195 C81.31767593 18.18357315 80.51572296 18.19014435 79.68946838 18.19691467 C77.03516547 18.21662841 74.38091903 18.22830477 71.7265625 18.23828125 C70.36649645 18.24439454 70.36649645 18.24439454 68.97895432 18.25063133 C64.18160988 18.27148193 59.38429399 18.28578911 54.58691406 18.29516602 C49.63133692 18.30624004 44.67620761 18.34065418 39.72078896 18.38033772 C35.91007651 18.4064725 32.09947141 18.41485496 28.28867722 18.41844749 C26.46182601 18.42332006 24.6349798 18.4349531 22.80821609 18.45348549 C20.25150165 18.47781494 17.69595474 18.47692377 15.13916016 18.4699707 C14.38573837 18.48278076 13.63231659 18.49559082 12.85606384 18.50878906 C7.94585427 18.46014449 5.443413 17.4999002 2 14 C-0.87893447 9.20177589 0 6.16707097 0 0 Z " fill="#1C1C1C" transform="translate(207,318)"/>
<path d="M0 0 C0.56700119 0.2443277 1.13400238 0.4886554 1.71818542 0.74038696 C2.43009949 2.99085999 2.43009949 2.99085999 2.71818542 5.74038696 C1.38908386 7.75737 1.38908386 7.75737 -0.67243958 9.7328186 C-1.43653137 10.48031876 -2.20062317 11.22781891 -2.98786926 11.99797058 C-4.24712219 13.18724403 -4.24712219 13.18724403 -5.53181458 14.40054321 C-6.3790509 15.22743149 -7.22628723 16.05431976 -8.09919739 16.90626526 C-10.8129241 19.55316396 -13.54516688 22.17970652 -16.28181458 24.80288696 C-19.0175566 27.43047509 -21.7484754 30.06217852 -24.46443176 32.71022034 C-26.15637749 34.35962005 -27.85996769 35.99717089 -29.57575989 37.62174988 C-30.33985168 38.36609787 -31.10394348 39.11044586 -31.89118958 39.87734985 C-32.91164368 40.85400352 -32.91164368 40.85400352 -33.95271301 41.85038757 C-35.48740617 43.62912791 -35.48740617 43.62912791 -35.21310425 45.74612427 C-34.07118982 48.19141859 -32.71363285 49.63425062 -30.77180481 51.5116272 C-30.03111252 52.23595444 -29.29042023 52.96028168 -28.52728271 53.70655823 C-27.32102989 54.86605736 -27.32102989 54.86605736 -26.09040833 56.04898071 C-24.40721357 57.69911428 -22.72427877 59.34951305 -21.0415802 61.00015259 C-18.37706782 63.59624948 -15.70868379 66.1881716 -13.0349884 68.77481079 C-10.45937075 71.27211334 -7.89923538 73.78449355 -5.34040833 76.29898071 C-4.53421555 77.0699559 -3.72802277 77.84093109 -2.8973999 78.63526917 C-2.15985977 79.36274857 -1.42231964 80.09022797 -0.66242981 80.8397522 C-0.00814499 81.47388535 0.64613983 82.10801849 1.32025146 82.7613678 C3.06953811 85.23778793 2.99607104 86.77302932 2.71818542 89.74038696 C0.00073242 90.46929932 0.00073242 90.46929932 -3.28181458 90.74038696 C-5.59109497 89.29980469 -5.59109497 89.29980469 -7.80256653 87.07778931 C-9.05835258 85.84057632 -9.05835258 85.84057632 -10.33950806 84.57836914 C-11.22410202 83.6701944 -12.10869598 82.76201965 -13.02009583 81.82632446 C-13.94146835 80.904534 -14.86284088 79.98274353 -15.81213379 79.03302002 C-17.76052306 77.08141494 -19.69647741 75.11850234 -21.62385559 73.14614868 C-24.09127597 70.62209832 -26.58219089 68.12295028 -29.08219624 65.63121605 C-31.46823696 63.24865104 -33.83747931 60.84973462 -36.20759583 58.45132446 C-37.10231094 57.5552951 -37.99702606 56.65926575 -38.91885376 55.73608398 C-39.74028366 54.89236237 -40.56171356 54.04864075 -41.40803528 53.17935181 C-42.49674675 52.07229385 -42.49674675 52.07229385 -43.60745239 50.94287109 C-45.54841651 48.3896943 -46.26067489 46.95612008 -46.28181458 43.74038696 C-44.75857544 41.4619751 -44.75857544 41.4619751 -42.41975403 39.11782837 C-41.55167618 38.23406525 -40.68359833 37.35030212 -39.78921509 36.4397583 C-38.82519341 35.48979331 -37.86046967 34.54054032 -36.89509583 33.59194946 C-35.9158067 32.61115829 -34.93748142 31.62940388 -33.96008301 30.64672852 C-31.90889271 28.59120503 -29.84750098 26.54666775 -27.77815247 24.50942993 C-25.12385985 21.89494509 -22.49487313 19.25662389 -19.87281513 16.60985756 C-17.85657499 14.57944908 -15.82839306 12.56132691 -13.79627037 10.54682541 C-12.82189192 9.57830425 -11.85108498 8.60617647 -10.88392067 7.6304512 C-9.53173005 6.27028871 -8.16167576 4.92795532 -6.79084778 3.58657837 C-6.01505875 2.81778351 -5.23926971 2.04898865 -4.43997192 1.25689697 C-2.28181458 -0.25961304 -2.28181458 -0.25961304 0 0 Z " fill="#F9F9F9" transform="translate(213.2818145751953,184.25961303710938)"/>
<path d="M0 0 C3.8551717 0.40713511 5.72220624 2.32707188 8.41723633 4.98144531 C9.28105423 5.82612366 10.14487213 6.670802 11.03486633 7.54107666 C12.41946297 8.92066559 12.41946297 8.92066559 13.83203125 10.328125 C14.79255951 11.27901159 15.75331208 12.22967164 16.71427917 13.18011475 C18.72431881 15.17220764 20.72807575 17.17038909 22.72827148 19.17236328 C25.29352084 21.73791807 27.87881428 24.28218851 30.46986866 26.82164383 C32.45923262 28.77767773 34.43483686 30.74716993 36.40680504 32.72072601 C37.81539649 34.12405242 39.23757346 35.51369924 40.65986633 36.90313721 C41.50792343 37.76042419 42.35598053 38.61771118 43.22973633 39.50097656 C44.36080559 40.62563324 44.36080559 40.62563324 45.51472473 41.77301025 C47 44 47 44 46.9730072 46.51147461 C45.8164096 49.46954366 44.44212924 51.06542376 42.20214844 53.31542969 C41.3975116 54.13267517 40.59287476 54.94992065 39.76385498 55.79193115 C38.44988739 57.09375336 38.44988739 57.09375336 37.109375 58.421875 C36.21261047 59.32246643 35.31584595 60.22305786 34.39190674 61.15093994 C32.4933726 63.05219588 30.59130889 64.94889259 28.68212891 66.83935547 C26.23950818 69.25918695 23.81528705 71.69653482 21.39605331 74.13972092 C19.08104341 76.47268654 16.75081674 78.79032968 14.421875 81.109375 C13.55399353 81.98535339 12.68611206 82.86133179 11.79193115 83.76385498 C10.97468567 84.56849182 10.15744019 85.37312866 9.31542969 86.20214844 C8.24406769 87.26873688 8.24406769 87.26873688 7.15106201 88.35687256 C4.70595244 90.22461352 3.04738983 90.74105597 0 91 C-0.66 90.67 -1.32 90.34 -2 90 C-2.29330507 86.98608759 -2.34828785 85.48469157 -0.55064392 82.98301697 C0.1274382 82.33111893 0.80552032 81.67922089 1.50415039 81.00756836 C2.65017479 79.88631813 2.65017479 79.88631813 3.8193512 78.74241638 C4.65369186 77.94956741 5.48803253 77.15671844 6.34765625 76.33984375 C7.19347763 75.51295547 8.03929901 74.6860672 8.91075134 73.8341217 C11.61638635 71.18965179 14.33735275 68.5618492 17.0625 65.9375 C20.6508514 62.48161828 24.22273809 59.00992944 27.78515625 55.52734375 C28.62152115 54.73247055 29.45788605 53.93759735 30.31959534 53.11863708 C31.08045944 52.37428909 31.84132355 51.6299411 32.62524414 50.86303711 C33.64117393 49.88638344 33.64117393 49.88638344 34.67762756 48.88999939 C36.2049161 47.11015703 36.2049161 47.11015703 35.93128967 44.9942627 C34.78692693 42.54372556 33.42440301 41.10566772 31.47412109 39.22875977 C30.73020111 38.50443253 29.98628113 37.78010529 29.21981812 37.03382874 C28.41251251 36.26082932 27.60520691 35.4878299 26.7734375 34.69140625 C25.08553337 33.04142895 23.39804594 31.39102527 21.7109375 29.74023438 C19.03883763 27.14274253 16.36225617 24.55023026 13.67773438 21.96557617 C11.0923889 19.47056604 8.52578333 16.9574604 5.9609375 14.44140625 C5.14958344 13.67043106 4.33822937 12.89945587 3.50228882 12.1051178 C2.76467316 11.3776384 2.0270575 10.650159 1.26708984 9.90063477 C0.61058441 9.26650162 -0.04592102 8.63236847 -0.72232056 7.97901917 C-2 6 -2 6 -1.76669312 3.31871033 C-1 1 -1 1 0 0 Z " fill="#FAFAFA" transform="translate(298,184)"/>
<path d="M0 0 C2.625 0.375 2.625 0.375 5 1 C4.5076213 8.53967152 2.53739957 14.88363639 -0.078125 21.9453125 C-0.48657654 23.07339325 -0.89502808 24.201474 -1.31585693 25.36373901 C-2.61791351 28.95429907 -3.93341138 32.5397462 -5.25 36.125 C-6.54656337 39.68172993 -7.84029052 43.23947905 -9.13317871 46.79754639 C-9.96591478 49.08908634 -10.79996294 51.38014995 -11.63537598 53.67071533 C-14.20509951 60.73516511 -16.66884121 67.81920967 -18.95605469 74.97998047 C-20.14172017 78.40998094 -21.54521729 81.67545887 -23 85 C-23.53295282 86.43305091 -24.05651084 87.86970806 -24.5625 89.3125 C-26 93 -26 93 -28 95 C-30.625 94.625 -30.625 94.625 -33 94 C-34.54268598 89.27212122 -33.18890235 85.95911452 -31.375 81.5625 C-30.81144123 80.13322952 -30.24896062 78.7035335 -29.6875 77.2734375 C-29.40261719 76.55768555 -29.11773437 75.84193359 -28.82421875 75.10449219 C-27.60398206 71.98884045 -26.48940438 68.8426574 -25.375 65.6875 C-20.87249108 52.96232408 -16.19969288 40.29683082 -11.54492188 27.62670898 C-10.75933902 25.48520882 -9.97583893 23.34294357 -9.19433594 21.19995117 C-8.05924588 18.08839382 -6.91709509 14.97951059 -5.7734375 11.87109375 C-5.42445404 10.90973007 -5.07547058 9.94836639 -4.71591187 8.95787048 C-4.38862091 8.07257156 -4.06132996 7.18727264 -3.72412109 6.27514648 C-3.43862396 5.4955809 -3.15312683 4.71601532 -2.85897827 3.91282654 C-2 2 -2 2 0 0 Z " fill="#F5F5F5" transform="translate(270,182)"/>
</svg>
