<?xml version="1.0" encoding="UTF-8"?>
<svg version="1.1" xmlns="http://www.w3.org/2000/svg" width="2481" height="2500">
<path d="M0 0 C3.86263847 0.52874734 4.76077118 2.24894348 7.0859375 5.30859375 C7.87097656 6.32179688 8.65601563 7.335 9.46484375 8.37890625 C10.20605469 9.36632813 10.94726562 10.35375 11.7109375 11.37109375 C12.81210665 12.81089123 13.91604063 14.2485807 15.0234375 15.68359375 C15.58160156 16.40804688 16.13976563 17.1325 16.71484375 17.87890625 C19.22033192 21.00708913 21.83698556 24.02968021 24.4609375 27.05859375 C29.01350965 32.31637383 33.3682624 37.68956371 37.63134766 43.18359375 C41.21590292 47.7858583 44.93950246 52.25160568 48.72680664 56.68774414 C51.59658999 60.04957822 54.42171076 63.44163525 57.2109375 66.87109375 C60.95946396 71.47642625 64.78177996 76.01313819 68.62719727 80.53735352 C71.5063907 83.93063484 74.34297987 87.35377161 77.1484375 90.80859375 C80.60368207 95.05502133 84.13800326 99.22397799 87.7109375 103.37109375 C92.81050836 109.29224431 97.79079642 115.29962167 102.7109375 121.37109375 C107.94905072 127.81727632 113.24634973 134.20534227 118.62451172 140.53466797 C122.27351847 144.83578344 125.84724008 149.19437681 129.40625 153.5703125 C131.9312667 156.63884974 134.50571555 159.66155297 137.0859375 162.68359375 C140.95623168 167.22017501 144.68222789 171.8461533 148.3359375 176.55859375 C152.21172724 181.5528725 156.26011444 186.29874383 160.5390625 190.95703125 C163.59582041 194.35465065 166.45293988 197.90172038 169.328125 201.453125 C171.91849598 204.62526782 174.55776617 207.75152669 177.2109375 210.87109375 C181.33217932 215.72049281 185.38085564 220.62270746 189.3984375 225.55859375 C191.97240142 228.68909041 194.58662836 231.78281836 197.2109375 234.87109375 C201.33195384 239.72068756 205.38085104 244.62270181 209.3984375 249.55859375 C211.97240142 252.68909041 214.58662836 255.78281836 217.2109375 258.87109375 C221.33077049 263.719295 225.37889714 268.6195522 229.39453125 273.5546875 C231.98880938 276.70894472 234.62696141 279.82315746 237.2734375 282.93359375 C240.46006853 286.67964706 243.59884689 290.44915335 246.6484375 294.30859375 C250.3828212 299.02248792 254.28941009 303.57341498 258.21630859 308.12646484 C262.03061019 312.55624782 265.74850197 317.05568942 269.43359375 321.59375 C271.99297804 324.71505742 274.59687541 327.79559405 277.2109375 330.87109375 C280.58377339 334.84012918 283.92270395 338.83126396 287.2109375 342.87109375 C292.29269427 349.11026131 297.49987856 355.24001337 302.7109375 361.37109375 C308.60252188 368.30284751 314.46280646 375.25296245 320.2109375 382.3046875 C328.21086656 392.11710049 336.247943 401.88900248 344.51611328 411.47705078 C349.73725281 417.54059265 354.78172514 423.74367062 359.80859375 429.96875 C364.1347106 435.29984499 368.56497268 440.51819315 373.0859375 445.68359375 C377.85459368 451.13437872 382.39322693 456.71390689 386.82104492 462.44360352 C390.22613976 466.82408038 393.85474291 470.94103038 397.609375 475.02734375 C400.37696204 478.11387204 402.91922055 481.35438817 405.484375 484.609375 C408.13904311 487.90209492 410.88551416 491.1066649 413.6484375 494.30859375 C417.99227331 499.34460152 422.24700457 504.43980331 426.44140625 509.6015625 C430.79599544 514.91551041 435.26172185 520.13636141 439.7109375 525.37109375 C445.6710202 532.38343933 451.58852545 539.4207018 457.3984375 546.55859375 C459.97240142 549.68909041 462.58662836 552.78281836 465.2109375 555.87109375 C469.33195384 560.72068756 473.38085104 565.62270181 477.3984375 570.55859375 C479.97240142 573.68909041 482.58662836 576.78281836 485.2109375 579.87109375 C488.58372324 583.8401731 491.92270267 587.83126238 495.2109375 591.87109375 C498.84470524 596.3345182 502.54884432 600.73397022 506.27783203 605.11767578 C510.09755439 609.61972574 513.84546389 614.17812274 517.5859375 618.74609375 C522.1042534 624.26236919 526.69819951 629.69661726 531.3984375 635.05859375 C536.06521986 640.38311526 540.49329927 645.84365296 544.82226562 651.44506836 C548.22797463 655.82660551 551.85753692 659.94431128 555.61328125 664.03125 C557.65766342 666.31166884 559.56785894 668.65173603 561.4609375 671.05859375 C564.8991627 675.42328681 568.49582732 679.62392282 572.1484375 683.80859375 C577.46069456 689.89897781 582.63320065 696.08302112 587.7109375 702.37109375 C593.12815955 709.0606175 598.64152254 715.65162273 604.26220703 722.17016602 C607.3649459 725.7761721 610.40537759 729.42286266 613.3984375 733.12109375 C616.24552251 736.62993365 619.16906302 740.02976012 622.2109375 743.37109375 C626.05285689 747.59123319 629.67208971 751.95136559 633.26171875 756.38671875 C636.0290445 759.75870738 638.8624069 763.06774821 641.7109375 766.37109375 C646.010836 771.36035069 650.21579628 776.41331109 654.3671875 781.52734375 C657.10395888 784.84795969 659.90200135 788.11153084 662.7109375 791.37109375 C667.03028022 796.38424148 671.26191027 801.4564689 675.43359375 806.59375 C677.99297804 809.71505742 680.59687541 812.79559405 683.2109375 815.87109375 C687.33201542 820.72063426 691.38085233 825.62270339 695.3984375 830.55859375 C698.4352652 834.25203285 701.53054705 837.89407861 704.62719727 841.53735352 C707.5063907 844.93063484 710.34297987 848.35377161 713.1484375 851.80859375 C716.60367901 856.05501757 720.13791584 860.22405669 723.7109375 864.37109375 C728.03022706 869.38428863 732.26190869 874.45646695 736.43359375 879.59375 C738.99297722 882.71505642 741.59683666 885.79562799 744.2109375 888.87109375 C747.56540877 892.81759856 750.88315579 896.78751447 754.1484375 900.80859375 C757.55568888 904.99933074 761.05190546 909.10032361 764.5859375 913.18359375 C768.57326216 917.79598574 772.41831449 922.486097 776.1484375 927.30859375 C780.58171293 933.03638561 785.24236324 938.52552481 790.01318359 943.97412109 C793.90770499 948.42549988 797.67675513 952.96122141 801.3984375 957.55859375 C804.14081444 960.89391706 806.95276977 964.16449196 809.7734375 967.43359375 C813.82056415 972.1265452 817.74837841 976.88627361 821.58984375 981.75 C824.71628734 985.61343213 827.97079146 989.36348553 831.21655273 993.12670898 C835.03073095 997.55644567 838.74857444 1002.05577866 842.43359375 1006.59375 C844.99297804 1009.71505742 847.59687541 1012.79559405 850.2109375 1015.87109375 C854.33201542 1020.72063426 858.38085233 1025.62270339 862.3984375 1030.55859375 C864.97240142 1033.68909041 867.58662836 1036.78281836 870.2109375 1039.87109375 C874.33195384 1044.72068756 878.38085104 1049.62270181 882.3984375 1054.55859375 C884.97240344 1057.68909287 887.58673216 1060.78272785 890.2109375 1063.87109375 C894.26224683 1068.64159926 898.2564291 1073.45335308 902.2109375 1078.3046875 C910.21213558 1088.11865702 918.24908922 1097.89350609 926.52050781 1107.48144531 C930.2336869 1111.79231922 933.84690861 1116.17687372 937.43359375 1120.59375 C939.99297804 1123.71505742 942.59687541 1126.79559405 945.2109375 1129.87109375 C949.33201542 1134.72063426 953.38085233 1139.62270339 957.3984375 1144.55859375 C959.97240142 1147.68909041 962.58662836 1150.78281836 965.2109375 1153.87109375 C969.33077049 1158.719295 973.37889714 1163.6195522 977.39453125 1168.5546875 C979.98880938 1171.70894472 982.62696141 1174.82315746 985.2734375 1177.93359375 C988.46006853 1181.67964706 991.59884689 1185.44915335 994.6484375 1189.30859375 C997.90346561 1193.41915287 1001.28596822 1197.40254596 1004.7109375 1201.37109375 C1008.84180394 1206.15920184 1012.87434944 1211.00250718 1016.80078125 1215.9609375 C1022.78600545 1223.51284616 1028.97788063 1230.8773007 1035.26635742 1238.17651367 C1039.06101988 1242.58943139 1042.76149184 1247.071052 1046.4296875 1251.58984375 C1049.00936638 1254.7349317 1051.63725733 1257.83589051 1054.2734375 1260.93359375 C1058.14341236 1265.48388694 1061.91053839 1270.09942453 1065.62109375 1274.78125 C1068.08278976 1277.83191254 1070.60904875 1280.82256569 1073.1484375 1283.80859375 C1078.82026595 1290.47800934 1084.36048827 1297.24931808 1089.8828125 1304.04296875 C1093.8983889 1308.96988164 1097.9602863 1313.84902784 1102.0859375 1318.68359375 C1105.86874701 1323.11970184 1109.51639372 1327.63699636 1113.0859375 1332.24609375 C1116.97505275 1337.26365333 1121.02251901 1342.10088199 1125.2109375 1346.87109375 C1129.88588377 1352.19541454 1134.34516981 1357.63432866 1138.68310547 1363.2355957 C1142.24732556 1367.8236364 1145.95510144 1372.26994863 1149.72705078 1376.68798828 C1153.34978331 1380.93198256 1156.88539492 1385.24128962 1160.40625 1389.5703125 C1162.93126825 1392.63885162 1165.50578519 1395.66149187 1168.0859375 1398.68359375 C1171.86885662 1403.11960298 1175.51639852 1407.63700255 1179.0859375 1412.24609375 C1182.97506442 1417.26366838 1187.02273379 1422.10068166 1191.2109375 1426.87109375 C1195.82885266 1432.13486643 1200.25602409 1437.49831067 1204.546875 1443.03125 C1208.03789476 1447.531235 1211.60769728 1451.96054997 1215.2109375 1456.37109375 C1219.8269956 1462.02748632 1224.38456484 1467.72423615 1228.87646484 1473.47973633 C1232.27353834 1477.83109357 1235.7405363 1482.12132086 1239.25 1486.3828125 C1240.7109375 1488.37109375 1240.7109375 1488.37109375 1241.7109375 1491.37109375 C1235.83652068 1496.82112304 1229.92797902 1502.09754756 1223.62890625 1507.0546875 C1219.84971362 1510.05476947 1216.12282793 1513.11589271 1212.3984375 1516.18359375 C1211.66246338 1516.78953369 1210.92648926 1517.39547363 1210.16821289 1518.01977539 C1205.75414994 1521.66224087 1201.37578115 1525.34275086 1197.0234375 1529.05859375 C1192.7130032 1532.73787403 1188.31538877 1536.27497139 1183.8359375 1539.74609375 C1178.15349737 1544.1508348 1172.72041815 1548.78914565 1167.3190918 1553.5324707 C1162.64062265 1557.61969475 1157.82408663 1561.47870993 1152.91015625 1565.27734375 C1148.73415695 1568.52220807 1144.70351429 1571.90373888 1140.7109375 1575.37109375 C1135.55704419 1579.84547934 1130.28331953 1584.1145408 1124.890625 1588.296875 C1120.91223548 1591.39414469 1117.03971227 1594.59111391 1113.2109375 1597.87109375 C1108.81739113 1601.63489402 1104.34491276 1605.26316071 1099.7734375 1608.80859375 C1094.35734899 1613.01176665 1089.13713612 1617.39617621 1083.96118164 1621.89038086 C1079.96745746 1625.34039255 1075.88291615 1628.63961559 1071.7109375 1631.87109375 C1066.22571753 1636.1203703 1060.93423158 1640.55223287 1055.68847656 1645.09277344 C1050.79867565 1649.3191757 1045.78927101 1653.37307574 1040.7109375 1657.37109375 C1032.99745685 1663.48264736 1025.3990722 1669.72918431 1017.80859375 1675.9921875 C1013.76144131 1679.33147998 1009.70118914 1682.6544695 1005.63671875 1685.97265625 C1003.33747371 1687.85748462 1001.04400834 1689.74864036 998.75390625 1691.64453125 C992.06946289 1697.17402308 985.37593015 1702.67556361 978.5234375 1707.99609375 C973.19292752 1712.13690011 968.05906002 1716.46474389 962.96240234 1720.88891602 C958.38699615 1724.84110049 953.67585162 1728.58527713 948.89941406 1732.2902832 C944.27160538 1735.89365978 939.78788324 1739.64425442 935.32836914 1743.45288086 C931.33788093 1746.85662245 927.27677075 1750.15489968 923.16796875 1753.4140625 C918.6430961 1757.01813436 914.18268384 1760.7014827 909.7109375 1764.37109375 C904.18431808 1768.90124694 898.65049827 1773.42219028 893.10083008 1777.92407227 C886.65737745 1783.15113095 880.23495296 1788.40220483 873.8359375 1793.68359375 C868.59949859 1798.00500666 863.34132535 1802.29352219 858.02734375 1806.51953125 C853.5544803 1810.0948049 849.13793794 1813.73932536 844.7109375 1817.37109375 C843.00271392 1818.7670614 841.29437893 1820.16289273 839.5859375 1821.55859375 C834.7855614 1825.48554899 829.9974037 1829.4272008 825.2109375 1833.37109375 C815.37426243 1841.47516655 805.50734475 1849.54087923 795.61303711 1857.57446289 C791.80628714 1860.66600803 788.00437788 1863.76321488 784.2109375 1866.87109375 C778.45226088 1871.58821601 772.67414118 1876.28122894 766.89453125 1880.97265625 C764.13382496 1883.21391978 761.3761575 1885.45883579 758.62109375 1887.70703125 C752.32153615 1892.84352343 746.00271066 1897.94407251 739.5859375 1902.93359375 C734.11686776 1907.18964888 728.84300133 1911.63874276 723.60449219 1916.17431641 C719.89410753 1919.37987971 716.11610971 1922.44883122 712.21875 1925.42578125 C702.32891076 1933.09733879 692.73531419 1941.16318104 683.08154297 1949.12792969 C678.18281427 1953.16693656 673.26601988 1957.18292907 668.3359375 1961.18359375 C667.66908936 1961.72483887 667.00224121 1962.26608398 666.31518555 1962.82373047 C665.03390366 1963.863505 663.75257426 1964.903221 662.47119141 1965.94287109 C656.61452807 1970.69481014 650.77188547 1975.45624807 645.03393555 1980.35107422 C639.43886977 1985.12345903 633.74881127 1989.73331193 627.94213867 1994.24560547 C623.94882492 1997.36214927 620.05805485 2000.57623899 616.2109375 2003.87109375 C611.79516057 2007.6529757 607.30175844 2011.30376478 602.7109375 2014.87109375 C597.47269102 2018.94213806 592.37312788 2023.14450355 587.32861328 2027.45263672 C583.33808144 2030.85650538 579.27686065 2034.15482837 575.16796875 2037.4140625 C569.74841677 2041.73074858 564.40828497 2046.14717452 559.0625 2050.5546875 C554.03818813 2054.6875892 548.96676631 2058.74707577 543.8359375 2062.74609375 C538.64952777 2066.79150747 533.60135224 2070.96752895 528.60595703 2075.24560547 C524.71883894 2078.55877087 520.74371394 2081.73739709 516.7109375 2084.87109375 C511.46896328 2088.94503517 506.36660985 2093.15130013 501.31762695 2097.46142578 C497.43145295 2100.77518085 493.48133498 2103.99051595 489.48046875 2107.1640625 C485.99725315 2109.9398267 482.54106547 2112.74799276 479.0859375 2115.55859375 C478.40660156 2116.11111816 477.72726562 2116.66364258 477.02734375 2117.23291016 C475.6280217 2118.37116955 474.22877127 2119.50951698 472.82958984 2120.64794922 C470.72447226 2122.36008564 468.61829884 2124.07091344 466.51171875 2125.78125 C453.09613226 2136.67240124 453.09613226 2136.67240124 439.75 2147.6484375 C433.04435631 2153.19467638 426.32968135 2158.71494552 419.4609375 2164.05859375 C414.30717239 2168.06805702 409.29287483 2172.21324876 404.32763672 2176.45336914 C400.33118354 2179.86254089 396.26344131 2183.16538159 392.1484375 2186.4296875 C388.67350544 2189.19738178 385.24378465 2192.01917759 381.80859375 2194.8359375 C377.54017528 2198.33310654 373.25500192 2201.80967283 368.97070312 2205.28735352 C365.51779108 2208.09020533 362.06676679 2210.8952827 358.62109375 2213.70703125 C352.32153469 2218.84352462 346.00266218 2223.94400919 339.5859375 2228.93359375 C334.23769369 2233.09636311 329.08268777 2237.44485579 323.96484375 2241.88647461 C319.36383047 2245.86025244 314.62976918 2249.63200602 309.82910156 2253.3605957 C304.95569681 2257.15277377 300.21756796 2261.08357816 295.48828125 2265.0546875 C293.02399294 2267.10999406 290.53604245 2269.12541596 288.0234375 2271.12109375 C283.37382149 2274.81674977 278.79077255 2278.58967429 274.2109375 2282.37109375 C268.95866867 2286.70634483 263.68989467 2291.01496058 258.359375 2295.25390625 C250.25910766 2301.7293412 242.23388919 2308.30026002 234.2109375 2314.87109375 C229.69745214 2318.56765868 225.17518267 2322.25328755 220.6484375 2325.93359375 C219.95580811 2326.49675293 219.26317871 2327.05991211 218.54956055 2327.64013672 C214.88987844 2330.61234787 211.21724973 2333.56631109 207.5234375 2336.49609375 C203.77106094 2339.48421332 200.10887076 2342.56964983 196.4609375 2345.68359375 C191.34272282 2350.04919667 186.11381541 2354.24637432 180.80834961 2358.3815918 C175.36912413 2362.62323142 170.03372654 2366.98435405 164.7109375 2371.37109375 C163.00306167 2372.76748682 161.29471601 2374.16330543 159.5859375 2375.55859375 C155.6142535 2378.80712618 151.65210352 2382.06696145 147.69360352 2385.33154297 C139.39026728 2392.17859603 131.05496185 2398.98466385 122.69482422 2405.76220703 C119.36487305 2408.4627212 116.03806016 2411.16709618 112.7109375 2413.87109375 C108.65288462 2417.16863525 104.59452028 2420.46579139 100.53515625 2423.76171875 C93.88587996 2429.16113107 87.24291559 2434.5677864 80.6171875 2439.99609375 C76.29047955 2443.5318981 71.95119971 2447.0521844 67.61328125 2450.57421875 C62.93601474 2454.37283367 58.26909382 2458.18377641 53.609375 2462.00390625 C51.38971801 2463.81672584 49.16568382 2465.6234922 46.9375 2467.42578125 C40.57667026 2472.57371171 34.24167931 2477.73887027 28.0234375 2483.05859375 C8.65621279 2499.58203869 8.65621279 2499.58203869 1.5859375 2500.99609375 C-4.42859468 2500.02600791 -7.81450359 2496.32839864 -12.2890625 2492.37109375 C-13.89373775 2491.00133491 -15.50579841 2489.64063219 -17.11865234 2488.28051758 C-18.23807284 2487.33599631 -19.35557062 2486.38919185 -20.47119141 2485.44018555 C-23.70121109 2482.69376711 -26.96528313 2480.00421767 -30.2890625 2477.37109375 C-34.1904823 2474.28035858 -37.99997602 2471.09730869 -41.7890625 2467.87109375 C-46.27908793 2464.05016761 -50.82257213 2460.31736985 -55.44140625 2456.65234375 C-64.42620778 2449.45464266 -73.28840213 2442.1012799 -82.0390625 2434.62109375 C-86.68709795 2430.65122607 -91.46424256 2426.90170854 -96.33813477 2423.21435547 C-101.14106027 2419.5509235 -105.70898427 2415.64333309 -110.27368164 2411.68945312 C-114.29598806 2408.20864334 -118.3865581 2404.83993899 -122.55859375 2401.5390625 C-133.28290505 2393.02405139 -143.83388048 2384.28974253 -154.3984375 2375.578125 C-162.69273026 2368.73872623 -171.03040283 2361.95314298 -179.37597656 2355.17651367 C-185.02502013 2350.58851604 -190.65969462 2345.98320985 -196.2890625 2341.37109375 C-197.12050781 2340.69175781 -197.95195313 2340.01242188 -198.80859375 2339.3125 C-205.22921111 2334.06626842 -211.63100207 2328.79748414 -218.02978516 2323.5246582 C-222.79391659 2319.59972974 -227.56700961 2315.68605298 -232.34765625 2311.78125 C-234.69756028 2309.85576423 -237.04339296 2307.92565808 -239.38671875 2305.9921875 C-248.41491544 2298.52884051 -248.41491544 2298.52884051 -257.5390625 2291.18359375 C-261.27314571 2288.21903445 -264.91351695 2285.15406992 -268.5390625 2282.05859375 C-272.96164569 2278.28692542 -277.45158018 2274.62772424 -282.0390625 2271.05859375 C-289.50602973 2265.2464227 -296.79747597 2259.23059616 -304.08496094 2253.19580078 C-307.79489508 2250.12446186 -311.51003827 2247.05945318 -315.2265625 2243.99609375 C-315.94561768 2243.4033667 -316.66467285 2242.81063965 -317.40551758 2242.19995117 C-321.76438772 2238.61193416 -326.1546201 2235.06770181 -330.57421875 2231.5546875 C-336.54018448 2226.75616255 -342.42545308 2221.8578092 -348.33105469 2216.98535156 C-355.98539632 2210.67481454 -363.68564156 2204.42073507 -371.38696289 2198.16772461 C-376.06134506 2194.37155634 -380.72478107 2190.56231227 -385.3828125 2186.74609375 C-389.0121154 2183.78021181 -392.65036813 2180.82544069 -396.2890625 2177.87109375 C-402.63430002 2172.71888263 -408.96651215 2167.55113117 -415.2890625 2162.37109375 C-416.12050781 2161.69175781 -416.95195313 2161.01242188 -417.80859375 2160.3125 C-422.6508259 2156.35595349 -427.48339573 2152.3881424 -432.30761719 2148.40966797 C-440.05756878 2142.01883666 -447.83551713 2135.66407611 -455.63671875 2129.3359375 C-461.38867869 2124.66964695 -467.11519394 2119.97230713 -472.84375 2115.27734375 C-478.86866388 2110.34299291 -484.91079874 2105.43036156 -490.95922852 2100.52490234 C-495.96648153 2096.45867669 -500.94341707 2092.35693359 -505.9140625 2088.24609375 C-511.62935402 2083.52121046 -517.40921099 2078.89596054 -523.26220703 2074.34326172 C-527.74187141 2070.84219606 -532.07769627 2067.19306164 -536.39550781 2063.49536133 C-540.28211101 2060.18256766 -544.25684892 2057.00447711 -548.2890625 2053.87109375 C-554.06054944 2049.38402441 -559.65764944 2044.72443146 -565.21875 2039.98046875 C-569.84682661 2036.03493985 -574.56791339 2032.20434841 -579.2890625 2028.37109375 C-580.57424824 2027.32685921 -581.8594024 2026.28258581 -583.14453125 2025.23828125 C-585.22560959 2023.54743603 -587.30677981 2021.85670436 -589.38818359 2020.16625977 C-596.36311539 2014.50088339 -603.32808589 2008.82386548 -610.25 2003.09375 C-619.16389303 1995.72022957 -628.15834992 1988.47393263 -637.2890625 1981.37109375 C-647.11897181 1973.72434533 -656.78032983 1965.89637557 -666.37353516 1957.95458984 C-670.66351264 1954.40822304 -674.9788306 1950.8927871 -679.2890625 1947.37109375 C-680.55169922 1946.33662109 -680.55169922 1946.33662109 -681.83984375 1945.28125 C-686.51688271 1941.44954253 -691.20213619 1937.6282961 -695.89770508 1933.81933594 C-702.93006806 1928.11442832 -709.93414199 1922.37679272 -716.91894531 1916.61376953 C-723.76582217 1910.96878822 -730.65520518 1905.37685581 -737.54638672 1899.78613281 C-743.18091326 1895.21094146 -748.79207931 1890.60740026 -754.390625 1885.98828125 C-761.21899718 1880.35515699 -768.04923305 1874.73018948 -774.9765625 1869.21875 C-781.42489584 1864.0666188 -787.77965464 1858.80213063 -794.1015625 1853.49609375 C-798.39240909 1849.90839234 -802.74768396 1846.42744518 -807.1640625 1842.99609375 C-812.59863812 1838.77028271 -817.84108327 1834.3648597 -823.03857422 1829.85205078 C-827.0323465 1826.4019217 -831.11696686 1823.10260533 -835.2890625 1819.87109375 C-840.07407801 1816.1648429 -844.71894107 1812.33926254 -849.2890625 1808.37109375 C-854.44023689 1803.89916347 -859.71112627 1799.6324218 -865.10058594 1795.4519043 C-869.73001107 1791.84726909 -874.21580155 1788.09589233 -878.67602539 1784.28491211 C-881.83663941 1781.58802871 -885.0319824 1778.95049106 -888.2890625 1776.37109375 C-892.10883058 1773.34608387 -895.83508931 1770.22340544 -899.5390625 1767.05859375 C-904.01765526 1763.23556599 -908.57399816 1759.54258011 -913.2265625 1755.93359375 C-918.73560224 1751.6574857 -924.05404142 1747.19978858 -929.32666016 1742.63647461 C-933.30107629 1739.20138775 -937.34711853 1735.88285722 -941.46875 1732.625 C-945.25370141 1729.60018426 -948.98942503 1726.51716936 -952.7265625 1723.43359375 C-953.84188354 1722.51344482 -953.84188354 1722.51344482 -954.97973633 1721.57470703 C-956.431662 1720.37681627 -957.88356697 1719.17890042 -959.33544922 1717.98095703 C-961.81474911 1715.93790486 -964.3009342 1713.90338175 -966.7890625 1711.87109375 C-973.56450372 1706.33406399 -980.31453926 1700.7662035 -987.06738281 1695.20166016 C-990.640683 1692.25741787 -994.21490678 1689.31429735 -997.7890625 1686.37109375 C-999.20573387 1685.20443279 -1000.62240053 1684.03776612 -1002.0390625 1682.87109375 C-1002.7403125 1682.29359375 -1003.4415625 1681.71609375 -1004.1640625 1681.12109375 C-1006.2890625 1679.37109375 -1008.4140625 1677.62109375 -1010.5390625 1675.87109375 C-1011.24063477 1675.29335205 -1011.94220703 1674.71561035 -1012.66503906 1674.12036133 C-1014.07854453 1672.95625021 -1015.49195634 1671.79202535 -1016.90527344 1670.62768555 C-1020.49453821 1667.67096871 -1024.08552072 1664.71638171 -1027.6796875 1661.765625 C-1034.7736628 1655.93823322 -1041.83801629 1650.08259705 -1048.82910156 1644.13208008 C-1052.72196122 1640.82731941 -1056.69312827 1637.63540528 -1060.6953125 1634.46484375 C-1064.34307683 1631.52026291 -1067.9036023 1628.47657842 -1071.47265625 1625.4375 C-1074.70330562 1622.69334842 -1077.96604304 1620.00361566 -1081.2890625 1617.37109375 C-1085.74159951 1613.84225972 -1090.07592229 1610.18880046 -1094.40234375 1606.5078125 C-1097.83477859 1603.59104862 -1101.29499065 1600.71415949 -1104.7890625 1597.87109375 C-1109.3935983 1594.12321577 -1113.92925441 1590.30125931 -1118.453125 1586.45703125 C-1121.8696579 1583.55864552 -1125.31411088 1580.69954275 -1128.7890625 1577.87109375 C-1133.394395 1574.12256729 -1137.93110694 1570.30025129 -1142.45532227 1566.45483398 C-1145.84860359 1563.57564055 -1149.27174036 1560.73905138 -1152.7265625 1557.93359375 C-1156.99651499 1554.46036709 -1161.18398018 1550.90303555 -1165.3515625 1547.30859375 C-1170.0680661 1543.24211702 -1174.84747967 1539.28722969 -1179.734375 1535.42578125 C-1183.34552721 1532.52139889 -1186.86795512 1529.51631834 -1190.39599609 1526.51196289 C-1193.88678753 1523.54371118 -1197.41448694 1520.62895999 -1200.9765625 1517.74609375 C-1205.36632897 1514.17583506 -1209.56733943 1510.4422687 -1213.74609375 1506.62890625 C-1216.42683474 1504.24877062 -1219.18410384 1501.99377534 -1221.9765625 1499.74609375 C-1225.79831388 1496.65203833 -1229.38347925 1493.48339459 -1232.78125 1489.9296875 C-1234.26345691 1488.35964696 -1234.26345691 1488.35964696 -1235.859375 1486.96875 C-1237.2890625 1485.68359375 -1237.2890625 1485.68359375 -1239.2890625 1483.37109375 C-1239.1387564 1479.12494656 -1235.95965133 1476.32596587 -1233.2890625 1473.30859375 C-1232.27785411 1472.14131039 -1231.26744834 1470.97333129 -1230.2578125 1469.8046875 C-1229.50177734 1468.93432861 -1229.50177734 1468.93432861 -1228.73046875 1468.04638672 C-1226.70422636 1465.69136042 -1224.74525915 1463.28444505 -1222.7890625 1460.87109375 C-1219.50082436 1456.83125832 -1216.16171489 1452.84028948 -1212.7890625 1448.87109375 C-1208.73893651 1444.10198165 -1204.74554137 1439.29196943 -1200.79296875 1434.44140625 C-1191.73006709 1423.32839423 -1182.58238311 1412.29201969 -1173.2890625 1401.37109375 C-1167.32790443 1394.35968612 -1161.4114479 1387.32145295 -1155.6015625 1380.18359375 C-1152.5647348 1376.49015465 -1149.46945295 1372.84810889 -1146.37280273 1369.20483398 C-1143.4936093 1365.81155266 -1140.65702013 1362.38841589 -1137.8515625 1358.93359375 C-1133.89462832 1354.07059951 -1129.82470308 1349.31409172 -1125.73291016 1344.56494141 C-1121.93742883 1340.15077609 -1118.23628337 1335.66776177 -1114.56640625 1331.1484375 C-1111.54486306 1327.46350232 -1108.45870299 1323.83541054 -1105.37255859 1320.20458984 C-1102.49348407 1316.811359 -1099.65694758 1313.38832655 -1096.8515625 1309.93359375 C-1092.43993195 1304.51538796 -1087.89582608 1299.21838525 -1083.33984375 1293.921875 C-1076.31876781 1285.75850771 -1069.39368991 1277.52446192 -1062.59375 1269.17578125 C-1058.6814734 1264.41473956 -1054.68629685 1259.72423134 -1050.69628906 1255.02832031 C-1048.3901083 1252.31243637 -1046.08977582 1249.59160935 -1043.7890625 1246.87109375 C-1041.01860174 1243.5951177 -1038.24680405 1240.3203224 -1035.46875 1237.05078125 C-1030.4523323 1231.14255596 -1025.49453134 1225.19495547 -1020.6015625 1219.18359375 C-1017.5647348 1215.49015465 -1014.46945295 1211.84810889 -1011.37280273 1208.20483398 C-1008.4936093 1204.81155266 -1005.65702013 1201.38841589 -1002.8515625 1197.93359375 C-998.43993195 1192.51538796 -993.89582608 1187.21838525 -989.33984375 1181.921875 C-983.09478929 1174.66078372 -976.892751 1167.36555946 -970.8515625 1159.93359375 C-966.89398062 1155.0698035 -962.82363804 1150.31228144 -958.73071289 1145.56274414 C-955.69960961 1142.03810456 -952.71920934 1138.48069493 -949.7890625 1134.87109375 C-945.8552768 1130.02512586 -941.80458491 1125.29010847 -937.73046875 1120.5625 C-934.69947966 1117.03791472 -931.71913669 1113.48060543 -928.7890625 1109.87109375 C-924.8552768 1105.02512586 -920.80458491 1100.29010847 -916.73046875 1095.5625 C-913.69947966 1092.03791472 -910.71913669 1088.48060543 -907.7890625 1084.87109375 C-903.40193348 1079.47033203 -898.87682838 1074.19641675 -894.33984375 1068.921875 C-888.09478929 1061.66078372 -881.892751 1054.36555946 -875.8515625 1046.93359375 C-871.89398062 1042.0698035 -867.82363804 1037.31228144 -863.73071289 1032.56274414 C-860.69960961 1029.03810456 -857.71920934 1025.48069493 -854.7890625 1021.87109375 C-850.85759485 1017.02798142 -846.81026852 1012.29485194 -842.73706055 1007.57128906 C-839.63466725 1003.96544372 -836.5944047 1000.31905583 -833.6015625 996.62109375 C-830.73627845 993.08862262 -827.79030254 989.67034263 -824.7265625 986.30859375 C-821.14433714 982.37432211 -817.80791124 978.31047452 -814.515625 974.1328125 C-811.86095817 970.84009417 -809.11451899 967.6354923 -806.3515625 964.43359375 C-802.77548064 960.288476 -799.23908648 956.1225752 -795.7890625 951.87109375 C-791.85462994 947.024329 -787.80351676 942.2883012 -783.72827148 937.56030273 C-780.71661241 934.05874073 -777.758473 930.52322818 -774.8515625 926.93359375 C-770.70909871 921.82881532 -766.40787151 916.87486693 -762.08837891 911.92041016 C-758.16644146 907.41150049 -754.35867135 902.82402358 -750.59765625 898.1796875 C-747.87562159 894.86810895 -745.08766519 891.61796316 -742.2890625 888.37109375 C-738.73448758 884.24645075 -735.22113952 880.09901471 -731.7890625 875.87109375 C-727.85462994 871.024329 -723.80351676 866.2883012 -719.72827148 861.56030273 C-716.71661241 858.05874073 -713.758473 854.52322818 -710.8515625 850.93359375 C-706.70909871 845.82881532 -702.40787151 840.87486693 -698.08837891 835.92041016 C-694.16404592 831.40874642 -690.35472213 826.81774869 -686.58984375 822.171875 C-682.90899837 817.69111755 -679.11393057 813.30950189 -675.33203125 808.9140625 C-671.07554325 803.96550659 -666.86739244 798.97630835 -662.65673828 793.98876953 C-661.26446833 792.34200396 -659.86900777 790.69799308 -658.47265625 789.0546875 C-654.22166191 784.04874723 -649.99341958 779.03068995 -645.8515625 773.93359375 C-642.49838022 769.81346021 -639.0710958 765.76785544 -635.6015625 761.74609375 C-627.08024659 751.86048711 -618.84718017 741.73669971 -610.6015625 731.62109375 C-605.11467952 724.90701513 -599.4882943 718.31170716 -593.87304688 711.70507812 C-589.1538664 706.15041341 -584.44831201 700.5904945 -579.8515625 694.93359375 C-575.43993195 689.51538796 -570.89582608 684.21838525 -566.33984375 678.921875 C-560.11383883 671.68293251 -553.9282001 664.41243466 -547.9140625 656.99609375 C-543.74749827 651.87375851 -539.42704969 646.89691997 -535.08862305 641.9206543 C-531.1665671 637.41169418 -527.35874385 632.82411311 -523.59765625 628.1796875 C-520.36976897 624.25269773 -517.04674828 620.41027316 -513.72802734 616.56005859 C-510.7164822 613.05855122 -507.75840041 609.52313854 -504.8515625 605.93359375 C-501.25270052 601.49869849 -497.54170362 597.17545124 -493.7890625 592.87109375 C-489.27068291 587.6876544 -484.85110537 582.44304826 -480.51953125 577.1015625 C-474.70051541 569.97810878 -468.69813944 563.00507462 -462.70019531 556.03222656 C-457.91148277 550.46416856 -453.19635945 544.8500616 -448.56640625 539.1484375 C-445.54421027 535.46270622 -442.45759043 531.83364553 -439.37036133 528.20239258 C-436.51046755 524.83239059 -433.69643268 521.43074119 -430.9140625 517.99609375 C-426.74749827 512.87375851 -422.42704969 507.89691997 -418.08862305 502.9206543 C-414.167765 498.41307132 -410.3607151 493.82725284 -406.6015625 489.18359375 C-403.85918556 485.84827044 -401.04723023 482.57769554 -398.2265625 479.30859375 C-394.84119368 475.38300089 -391.50269785 471.43991689 -388.2890625 467.37109375 C-383.63611316 461.48506467 -378.7156433 455.83452621 -373.81933594 450.15136719 C-368.08349066 443.47845975 -362.40193191 436.76174604 -356.8515625 429.93359375 C-352.89398062 425.0698035 -348.82363804 420.31228144 -344.73071289 415.56274414 C-341.69960961 412.03810456 -338.71920934 408.48069493 -335.7890625 404.87109375 C-332.35698237 400.64316895 -328.84355079 396.49581485 -325.2890625 392.37109375 C-320.96733387 387.35517686 -316.73427054 382.27934076 -312.55859375 377.140625 C-307.74217311 371.26309964 -302.7941195 365.49497461 -297.87304688 359.70507812 C-292.38635736 353.24702449 -286.95129121 346.75611759 -281.6015625 340.18359375 C-278.5647348 336.49015465 -275.46945295 332.84810889 -272.37280273 329.20483398 C-269.4936093 325.81155266 -266.65702013 322.38841589 -263.8515625 318.93359375 C-259.89398062 314.0698035 -255.82363804 309.31228144 -251.73071289 304.56274414 C-248.69960961 301.03810456 -245.71920934 297.48069493 -242.7890625 293.87109375 C-239.35698237 289.64316895 -235.84355079 285.49581485 -232.2890625 281.37109375 C-227.96971978 276.35794602 -223.73808973 271.2857186 -219.56640625 266.1484375 C-217.00702196 263.02713008 -214.40312459 259.94659345 -211.7890625 256.87109375 C-208.41622661 252.90205832 -205.07729605 248.91092354 -201.7890625 244.87109375 C-198.04053604 240.26576125 -194.21822004 235.72904931 -190.37280273 231.20483398 C-187.4936093 227.81155266 -184.65702013 224.38841589 -181.8515625 220.93359375 C-177.89462832 216.07059951 -173.82470308 211.31409172 -169.73291016 206.56494141 C-165.93742883 202.15077609 -162.23628337 197.66776177 -158.56640625 193.1484375 C-156.00702196 190.02713008 -153.40312459 186.94659345 -150.7890625 183.87109375 C-147.41622661 179.90205832 -144.07729605 175.91092354 -140.7890625 171.87109375 C-137.04118452 167.26655795 -133.21922806 162.73090184 -129.375 158.20703125 C-125.73046843 153.91096331 -122.1611891 149.55741034 -118.60546875 145.1875 C-116.01118984 142.03324183 -113.37299985 138.91906395 -110.7265625 135.80859375 C-106.85359884 131.25466945 -103.08283555 126.63614322 -99.37109375 121.94921875 C-96.95822243 118.96142312 -94.47113331 116.04050413 -91.9765625 113.12109375 C-88.06606908 108.54195969 -84.29466811 103.87708376 -80.6015625 99.12109375 C-76.96835754 94.44510103 -73.22076948 89.9488917 -69.23828125 85.5625 C-66.28434943 82.24154659 -63.51049868 78.77930818 -60.7109375 75.328125 C-58.08580465 72.12292248 -55.41205566 68.9631586 -52.7265625 65.80859375 C-48.81241816 61.20443224 -44.98645368 56.54341112 -41.23046875 51.80859375 C-39.20851551 49.26996433 -37.15933981 46.75576045 -35.1015625 44.24609375 C-33.49732537 42.28781808 -31.89312391 40.32951335 -30.2890625 38.37109375 C-29.79212891 37.76458984 -29.29519531 37.15808594 -28.78320312 36.53320312 C-24.93206898 31.82834618 -21.09895084 27.10942257 -17.2890625 22.37109375 C-16.79631836 21.7584668 -16.30357422 21.14583984 -15.79589844 20.51464844 C-10.92150614 14.42082055 -6.46194339 8.54456359 -3.2890625 1.37109375 C-2.2890625 0.37109375 -2.2890625 0.37109375 0 0 Z " fill="#00BEF2" transform="translate(1239.2890625,-0.37109375)"/>
<path d="M0 0 C0.83427521 -0.00358521 1.66855042 -0.00717041 2.52810669 -0.01086426 C54.9589445 -0.1323531 102.02266568 19.55237968 140.5 54.875 C141.0667041 55.39304199 141.6334082 55.91108398 142.21728516 56.44482422 C175.4664756 87.42371686 193.88825957 130.51328043 202.25 174.3125 C202.50136719 175.58738281 202.75273438 176.86226562 203.01171875 178.17578125 C208.95153635 214.02531868 200.51100252 248.9014144 188.5625 282.4375 C187.52723494 285.35157942 186.49370107 288.26623671 185.4641571 291.18234253 C184.82885502 292.98105552 184.19020154 294.77858945 183.54768372 296.57473755 C180.83270607 304.24838793 178.26619486 312.23426114 181.6484375 320.1015625 C182.2869173 321.39050296 182.94680382 322.66900722 183.625 323.9375 C183.98295654 324.6269873 184.34091309 325.31647461 184.7097168 326.02685547 C188.57845662 333.26632098 193.2498003 339.82114282 198.25 346.3125 C198.89775391 347.15844727 198.89775391 347.15844727 199.55859375 348.02148438 C205.36763223 355.5801294 211.38842817 362.96826386 217.41552734 370.35327148 C220.88880576 374.61499746 224.30809008 378.91358904 227.6875 383.25 C232.3690214 389.25336273 237.19639812 395.1278452 242.05395508 400.98925781 C245.73328198 405.43933288 249.33514862 409.93844225 252.875 414.5 C257.01627411 419.83143499 261.34469514 424.9662197 265.77001953 430.06323242 C269.70314668 434.61587475 273.42208072 439.30700191 277.10546875 444.0625 C280.84576943 448.86380287 284.78169914 453.47037017 288.77172852 458.06469727 C292.20251839 462.03564699 295.47829884 466.09856246 298.6875 470.25 C303.06975023 475.91516986 307.6880878 481.32645793 312.41381836 486.70678711 C315.99836017 490.80939686 319.4209972 495.00061977 322.75 499.3125 C327.15958474 505.02135183 331.79926078 510.48679044 336.55029297 515.91357422 C340.46657235 520.39049008 344.26341578 524.94810849 348.0078125 529.5703125 C350.55253683 532.68250148 353.14618225 535.74976497 355.75 538.8125 C359.87113948 543.66198722 363.91991612 548.56411123 367.9375 553.5 C370.51146392 556.63049666 373.12569086 559.72422461 375.75 562.8125 C379.12278574 566.78157935 382.46176517 570.77266863 385.75 574.8125 C390.83175677 581.05166756 396.03894106 587.18141962 401.25 593.3125 C406.44219022 599.42138035 411.63123581 605.52760641 416.6875 611.75 C421.1014623 617.17106956 425.64782805 622.47091974 430.20703125 627.76953125 C433.09230617 631.12392676 435.95674413 634.49545871 438.8125 637.875 C439.26294678 638.40794678 439.71339355 638.94089355 440.17749023 639.48999023 C441.98707308 641.63183287 443.79576529 643.77442673 445.60449219 645.91699219 C446.96508114 647.52834484 448.32613696 649.13930129 449.6875 650.75 C450.13730225 651.28230225 450.58710449 651.81460449 451.05053711 652.36303711 C454.97656399 657.00276034 458.94079031 661.60917277 462.90551758 666.21582031 C465.95219619 669.76656142 468.9343205 673.36039139 471.875 677 C475.58257712 681.57089381 479.48071735 685.9203505 483.5 690.21875 C485.93237532 692.88115731 488.16842596 695.68452705 490.42578125 698.49609375 C508.80793172 721.50241407 508.80793172 721.50241407 533.48828125 736.21875 C538.55673536 736.34506661 542.75590448 735.06693334 547.5625 733.5625 C548.44873047 733.29695313 549.33496094 733.03140625 550.24804688 732.7578125 C552.04542676 732.21768083 553.84059199 731.67012837 555.63354492 731.11547852 C557.27271753 730.61242368 558.91567598 730.12137366 560.5637207 729.64819336 C565.80410647 728.13935505 570.93795726 726.38585627 576.06640625 724.53515625 C576.77257584 724.28081818 577.47874542 724.0264801 578.20631409 723.76443481 C581.13643212 722.70733717 584.06589731 721.64875153 586.99047852 720.57641602 C611.69224696 711.53755514 636.93239833 707.56251653 663.25 708.3125 C664.41015625 708.34085938 665.5703125 708.36921875 666.765625 708.3984375 C704.09970147 709.98551363 742.19196359 723.67495181 771.25 747.3125 C771.84893066 747.7986377 772.44786133 748.28477539 773.06494141 748.78564453 C785.99397345 759.38213703 797.258881 770.91447912 807.25 784.3125 C808.18779297 785.55773438 808.18779297 785.55773438 809.14453125 786.828125 C825.17815627 808.90721519 836.97155729 834.28751652 841.25 861.3125 C841.52650391 863.01986328 841.52650391 863.01986328 841.80859375 864.76171875 C842.60841937 871.46900012 842.49357727 878.25405676 842.5 885 C842.50100708 885.73248962 842.50201416 886.46497925 842.50305176 887.21966553 C842.48672115 904.82261667 840.45050579 921.44347585 835.25 938.3125 C834.88003906 939.53066406 834.51007813 940.74882813 834.12890625 942.00390625 C831.13612927 951.41398208 827.39343445 960.36057903 823.25 969.3125 C822.72792969 970.46363281 822.20585937 971.61476563 821.66796875 972.80078125 C811.89934954 993.40757652 796.89918283 1014.72650562 779.40625 1029.4609375 C777.8927705 1030.76055576 776.41604132 1032.10361834 774.96875 1033.4765625 C753.19339064 1054.10938758 727.64122674 1069.01893614 698.25 1075.3125 C697.57791504 1075.45816406 696.90583008 1075.60382813 696.21337891 1075.75390625 C672.04087225 1080.89773225 645.63521344 1081.37244653 621.25 1077.3125 C619.91280911 1077.1155545 618.57556849 1076.91894642 617.23828125 1076.72265625 C594.98706232 1073.23978682 574.57600207 1062.03947681 555.125 1051.1875 C547.91333944 1047.17426235 540.64421187 1043.51565379 533.0625 1040.25 C532.2379834 1039.89212402 531.4134668 1039.53424805 530.56396484 1039.16552734 C521.69473954 1035.45137144 510.90092388 1030.99908241 501.25 1033.3125 C494.52363944 1036.21559858 488.40340085 1040.37907826 482.25 1044.3125 C480.16427214 1045.62663488 478.07832604 1046.94042342 475.9921875 1048.25390625 C465.25258635 1055.05122472 454.61198926 1061.99399822 444.06851196 1069.09120178 C441.79716731 1070.61661884 439.51960313 1072.13264086 437.24139404 1073.64778137 C427.79763102 1079.92919006 418.39611456 1086.27261947 409 1092.625 C408.18673248 1093.17464417 407.37346497 1093.72428833 406.53555298 1094.29058838 C394.74673123 1102.25873732 382.97287507 1110.24753652 371.25 1118.3125 C369.87765975 1119.25528925 368.50526345 1120.19799691 367.1328125 1121.140625 C363.82145516 1123.41557921 360.51132198 1125.69230659 357.20166016 1127.96972656 C354.55434037 1129.79112497 351.90635259 1131.61155083 349.25830078 1133.43188477 C347.91675339 1134.35413744 346.57528233 1135.27650117 345.23388672 1136.19897461 C341.98929087 1138.43017581 338.74384001 1140.66010537 335.49609375 1142.88671875 C312.67184262 1158.54226775 289.98984348 1174.40825099 267.390625 1190.38671875 C264.61195056 1192.35133866 261.8305758 1194.31204007 259.046875 1196.26953125 C242.29692821 1208.05273282 225.80159034 1220.10307261 209.54541016 1232.56054688 C206.56735313 1234.83352467 203.56743865 1237.07519009 200.5625 1239.3125 C177.85390104 1255.40467077 177.85390104 1255.40467077 163.25 1278.3125 C162.9347761 1281.39447703 162.9347761 1281.39447703 163 1284.625 C162.99226563 1286.22794922 162.99226563 1286.22794922 162.984375 1287.86328125 C163.5771896 1295.56115325 166.31818122 1302.5163571 169 1309.6875 C169.72014123 1311.65183427 170.43887374 1313.61668552 171.15625 1315.58203125 C171.51074219 1316.55221191 171.86523438 1317.52239258 172.23046875 1318.52197266 C172.56691406 1319.44284668 172.90335938 1320.3637207 173.25 1321.3125 C173.54519531 1322.11606934 173.84039063 1322.91963867 174.14453125 1323.74755859 C181.02246337 1342.64149889 183.91237691 1360.99395966 183.66162109 1381.09838867 C183.6248088 1384.14080172 183.62060603 1387.18199495 183.62109375 1390.22460938 C183.56759517 1405.53063121 182.4347077 1420.17608646 178.625 1435.0625 C178.36702637 1436.07618652 178.10905273 1437.08987305 177.84326172 1438.13427734 C172.54113991 1458.14470401 163.96602988 1475.94942522 151.25 1492.3125 C150.58613281 1493.16972656 149.92226562 1494.02695313 149.23828125 1494.91015625 C116.79531268 1535.62878039 75.00295851 1561.64806092 24.25 1572.3125 C23.39905762 1572.49329102 22.54811523 1572.67408203 21.67138672 1572.86035156 C-19.39582358 1581.28654238 -62.01396923 1570.49084592 -96.74023438 1547.73461914 C-107.32583995 1540.64377564 -117.17337171 1532.69569716 -126.75 1524.3125 C-127.26594727 1523.86116699 -127.78189453 1523.40983398 -128.31347656 1522.94482422 C-155.24463937 1499.21975223 -175.94188698 1469.10143338 -182.875 1433.4375 C-183.04386719 1432.61636719 -183.21273437 1431.79523438 -183.38671875 1430.94921875 C-188.50481119 1405.11695693 -188.31283512 1374.01458313 -182.75 1348.3125 C-182.44400879 1346.88164062 -182.44400879 1346.88164062 -182.13183594 1345.421875 C-180.5676637 1338.31821068 -178.75150819 1331.30490919 -176.75 1324.3125 C-176.52425293 1323.51827637 -176.29850586 1322.72405273 -176.06591797 1321.90576172 C-171.80314294 1307.42989213 -165.11849015 1293.85913874 -158.70385742 1280.2434082 C-158.33618759 1279.45957764 -157.96851776 1278.67574707 -157.58970642 1277.86816406 C-156.89874174 1276.39747757 -156.20349519 1274.9287912 -155.50294495 1273.46264648 C-150.33262012 1262.78474136 -150.33262012 1262.78474136 -149.75 1251.3125 C-155.33084556 1245.78621577 -161.8165957 1242.14725219 -168.625 1238.3125 C-169.76976807 1237.66023438 -170.91453613 1237.00796875 -172.09399414 1236.3359375 C-175.63982828 1234.31712938 -179.1943521 1232.31395631 -182.75 1230.3125 C-184.34352295 1229.41337891 -184.34352295 1229.41337891 -185.96923828 1228.49609375 C-198.88008866 1221.21732961 -211.84396089 1214.03356977 -224.80664062 1206.84765625 C-231.0226923 1203.39787282 -237.2199822 1199.91812301 -243.39794922 1196.40063477 C-253.36442062 1190.72656716 -263.42061183 1185.24158316 -273.54595947 1179.85751343 C-281.61959445 1175.56253778 -289.62277942 1171.16325269 -297.5625 1166.625 C-306.01073628 1161.80026334 -314.5601077 1157.22190741 -323.203125 1152.7565918 C-330.6155768 1148.92258671 -337.95270706 1144.96542415 -345.26977539 1140.95288086 C-352.41115041 1137.0375838 -359.57576574 1133.16723373 -366.75 1129.3125 C-374.76411356 1125.0046714 -382.76686724 1120.67747803 -390.75 1116.3125 C-399.79109683 1111.36967084 -408.858165 1106.476323 -417.93310547 1101.59594727 C-428.22762836 1096.05889173 -438.50636713 1090.49298277 -448.78222656 1084.92138672 C-453.77072657 1082.21702549 -458.76042717 1079.51488119 -463.75 1076.8125 C-465.75000568 1075.72917715 -467.75000568 1074.64584382 -469.75 1073.5625 C-470.74 1073.02625 -471.73 1072.49 -472.75 1071.9375 C-475.75 1070.3125 -478.75 1068.6875 -481.75 1067.0625 C-482.74032227 1066.52608887 -483.73064453 1065.98967773 -484.75097656 1065.43701172 C-486.74776681 1064.35538991 -488.74451173 1063.27368439 -490.74121094 1062.19189453 C-495.78994861 1059.45668118 -500.83950506 1056.72299933 -505.890625 1053.9921875 C-507.40861694 1053.17077271 -507.40861694 1053.17077271 -508.95727539 1052.33276367 C-510.96853473 1051.24523445 -512.98072696 1050.15942856 -514.99389648 1049.07543945 C-519.84828039 1046.45555593 -524.67395082 1043.79896553 -529.45703125 1041.05078125 C-530.36098633 1040.53660645 -531.26494141 1040.02243164 -532.19628906 1039.49267578 C-533.88646137 1038.52835015 -535.56998333 1037.55223035 -537.24511719 1036.56201172 C-542.77658367 1033.42122382 -546.78568147 1032.45569567 -553.171875 1033.8359375 C-565.58567926 1038.37655718 -577.23324841 1045.082275 -588.5 1051.9375 C-610.89263274 1065.50388255 -634.7802939 1075.98680279 -660.75 1080.3125 C-661.5032959 1080.43947266 -662.2565918 1080.56644531 -663.03271484 1080.69726562 C-704.77282938 1087.33710611 -749.17626454 1078.76077171 -783.97265625 1054.359375 C-784.88917969 1053.68390625 -785.80570313 1053.0084375 -786.75 1052.3125 C-787.77996094 1051.55453125 -788.80992187 1050.7965625 -789.87109375 1050.015625 C-806.28037359 1037.73839208 -821.98702546 1024.08292433 -834.68359375 1007.92578125 C-836.04833531 1006.19986045 -837.45734644 1004.50794139 -838.91015625 1002.85546875 C-854.86271904 984.53956333 -863.5985343 962.0055928 -867.75 938.3125 C-867.92732666 937.41797119 -868.10465332 936.52344238 -868.28735352 935.60180664 C-870.2833 924.14576667 -870.08671102 912.61584797 -870.06567383 901.02124023 C-870.06253415 897.41423717 -870.08596383 893.80807289 -870.11132812 890.20117188 C-870.22280713 850.09552519 -861.64748104 815.51304376 -835.75 784.3125 C-835.31961426 783.79333008 -834.88922852 783.27416016 -834.44580078 782.73925781 C-824.76670164 771.11647232 -814.61431341 760.74531895 -802.75 751.3125 C-802.0075 750.67957031 -801.265 750.04664063 -800.5 749.39453125 C-780.20761315 732.30805968 -756.03462388 721.61465468 -730.75 714.3125 C-729.92967285 714.07096191 -729.1093457 713.82942383 -728.26416016 713.58056641 C-695.69859057 704.46166292 -656.65873 709.4195364 -625.43359375 720.6640625 C-612.88969182 725.17335893 -600.41570416 729.23144974 -587.75 723.3125 C-585.07013701 721.66810061 -582.60230308 719.80808008 -580.125 717.875 C-579.4355127 717.34712891 -578.74602539 716.81925781 -578.03564453 716.27539062 C-571.65887994 711.34476687 -565.54136962 706.13258414 -559.48095703 700.82128906 C-557.12097783 698.7642127 -554.73529542 696.73801238 -552.35058594 694.7097168 C-546.53273603 689.75691858 -540.82719697 684.70689781 -535.1953125 679.54296875 C-533.06961102 677.60403018 -530.92221951 675.69890115 -528.75 673.8125 C-524.57131921 670.18184292 -520.49183696 666.44531424 -516.40234375 662.71484375 C-514.22539004 660.74308156 -512.03161326 658.79884663 -509.8125 656.875 C-505.86254739 653.44413767 -502.018129 649.90119729 -498.16992188 646.35742188 C-495.4154424 643.82524592 -492.64266213 641.32222265 -489.8125 638.875 C-485.62890143 635.25037911 -481.5856539 631.47864933 -477.52758789 627.71508789 C-474.63635872 625.03848962 -471.73110596 622.38938821 -468.75 619.8125 C-464.63639854 616.25432153 -460.65904725 612.5540788 -456.67016602 608.85766602 C-452.57018379 605.06099125 -448.43003258 601.31236766 -444.26953125 597.58203125 C-439.39789755 593.19378446 -434.57787676 588.74876191 -429.75 584.3125 C-418.47339154 573.95059743 -418.47339154 573.95059743 -412.8125 568.875 C-407.84487617 564.41606085 -402.94316748 559.88811669 -398.04296875 555.35546875 C-393.45429271 551.11178568 -388.84368397 546.89209459 -384.23388672 542.67138672 C-381.73835595 540.38607506 -379.24423792 538.09922251 -376.75 535.8125 C-373.7624059 533.07346752 -370.77454703 530.33472787 -367.78515625 527.59765625 C-360.97165316 521.35801623 -354.17685775 515.09842351 -347.39111328 508.82861328 C-345.21909558 506.82203341 -343.04623927 504.81636308 -340.87329102 502.81079102 C-339.78906892 501.81005842 -338.70492206 500.80924431 -337.62084961 499.80834961 C-334.93851745 497.33188674 -332.25534524 494.85634728 -329.5703125 492.3828125 C-323.11145756 486.43045683 -316.67964387 480.45023148 -310.26391602 474.45141602 C-306.46627629 470.90405194 -302.64974854 467.37947902 -298.8125 463.875 C-292.08947396 457.72797619 -285.45256358 451.49040312 -278.81445312 445.25195312 C-276.12451425 442.72488661 -273.4319323 440.20064827 -270.73901367 437.67675781 C-269.41603678 436.4367613 -268.0932818 435.19652798 -266.77075195 433.95605469 C-263.32842477 430.72747092 -259.88321804 427.50203706 -256.43359375 424.28125 C-255.72267578 423.61673828 -255.01175781 422.95222656 -254.27929688 422.26757812 C-252.93386361 421.01008168 -251.5875784 419.75349582 -250.24023438 418.49804688 C-246.54100232 415.03847248 -242.92317669 411.5162445 -239.3737793 407.90283203 C-237.68518818 406.2490232 -235.92924312 404.71360062 -234.125 403.1875 C-230.31055544 399.90737452 -226.78436565 396.38725263 -223.25 392.8125 C-219.24088538 388.75783373 -215.1913548 384.87271834 -210.83984375 381.18359375 C-208.03089466 378.6686655 -205.39891383 375.99414678 -202.75 373.3125 C-199.52601619 370.04867703 -196.31482179 366.84419881 -192.8125 363.875 C-188.47895058 360.19284005 -184.53838048 356.13909153 -180.55395508 352.08813477 C-176.93439244 348.42819538 -173.21876171 345.02784519 -169.140625 341.875 C-167.14945129 339.63772617 -166.94812635 338.32270134 -166.75 335.3125 C-167.82228352 332.53083005 -168.94827 330.0323639 -170.30859375 327.3984375 C-170.87794647 326.25393883 -170.87794647 326.25393883 -171.45880127 325.08631897 C-172.2704071 323.45730895 -173.08798997 321.83126554 -173.91098022 320.20797729 C-176.03880171 316.0066121 -178.11832427 311.78142471 -180.203125 307.55859375 C-180.60911423 306.73897659 -181.01510345 305.91935944 -181.43339539 305.0749054 C-185.60211475 296.63859845 -189.41737151 288.1136963 -192.75 279.3125 C-193.05437988 278.51714844 -193.35875977 277.72179687 -193.67236328 276.90234375 C-198.09327776 265.22156103 -201.51916547 253.60016379 -203.75 241.3125 C-203.97429687 240.16031982 -203.97429687 240.16031982 -204.203125 238.98486328 C-213.6325902 189.30743293 -203.92049039 135.20359081 -175.90234375 92.9375 C-162.41578416 73.17495133 -145.9273752 54.70233189 -126.75 40.3125 C-126.19812012 39.88952637 -125.64624023 39.46655273 -125.07763672 39.03076172 C-87.16150169 9.99977469 -47.32363599 0.08168288 0 0 Z " fill="#FEFEFE" transform="translate(1254.75,541.6875)"/>
<path d="M0 0 C4.98301473 4.00490164 9.1525439 8.24950408 13.125 13.25 C13.67776611 13.93819824 14.23053223 14.62639648 14.80004883 15.33544922 C20.48754277 22.48842747 25.95799843 29.83623038 31.08982199 37.39935029 C32.99153642 40.09394387 32.99153642 40.09394387 35.47343189 42.6557864 C45.15047118 53.49823277 44.38465298 64.83966845 44.20927429 78.7414856 C44.2143562 81.25994564 44.22383257 83.77839997 44.23730403 86.2968291 C44.2564919 91.75820317 44.24484282 97.21814467 44.205513 102.67938614 C44.14717761 110.80274213 44.14667037 118.92540002 44.15759921 127.04892166 C44.17436429 140.73194181 44.14453162 154.41448803 44.08786583 168.09738541 C44.03175309 181.67843499 43.9961923 195.25928412 43.98771095 208.84045029 C43.98689755 210.11108899 43.98689755 210.11108899 43.98606771 211.40739717 C43.98341148 215.71117258 43.98110717 220.01494811 43.97893129 224.31872378 C43.96281504 254.81206149 43.89962451 285.30513938 43.80932617 315.79833984 C43.7221451 345.26708403 43.65812223 374.73573372 43.62475586 404.20458984 C43.62320756 405.56134193 43.62320756 405.56134193 43.62162799 406.94550314 C43.61230299 415.13141083 43.60321438 423.31731878 43.5943707 431.503227 C43.53268302 488.33141628 43.44573411 545.15963417 43.28980151 601.98764823 C43.27606017 607.06445659 43.26439966 612.14126665 43.25378799 617.21808243 C43.19220289 646.20325583 43.01845659 675.18318662 42.53767395 704.16452026 C42.51795852 705.37188163 42.49824308 706.57924299 42.47793021 707.82319106 C41.36811534 774.3409042 41.36811534 774.3409042 38.6171875 798.64453125 C38.50376007 799.69291672 38.39033264 800.74130219 38.27346802 801.82145691 C37.62054821 807.16720021 36.82047764 811.38239079 34 816 C11.35344465 817.07014374 -15.16509092 796.86734477 -34 786 C-36.12877477 784.77711485 -38.25768393 783.55446361 -40.38671875 782.33203125 C-53.9758357 774.51874651 -67.52074229 766.62989522 -81.05419922 758.72070312 C-83.97394319 757.01522032 -86.8949316 755.31189123 -89.81640625 753.609375 C-158.40147999 713.64055551 -226.58934472 673.00119229 -293.63818359 630.49365234 C-296.02209467 628.98602696 -298.41108154 627.48671094 -300.80078125 625.98828125 C-312.75903923 618.46449093 -324.55206234 610.70305506 -336.3125 602.875 C-337.0636911 602.3759314 -337.8148822 601.87686279 -338.58883667 601.3626709 C-353.68711569 591.32452407 -368.6152167 581.043436 -383 570 C-383.57911133 569.55769043 -384.15822266 569.11538086 -384.75488281 568.65966797 C-386.61240788 567.23779196 -388.46331216 565.80769746 -390.3125 564.375 C-390.87541748 563.94372803 -391.43833496 563.51245605 -392.01831055 563.06811523 C-393.0985605 562.22431416 -394.16449759 561.36175897 -395.21286011 560.47865295 C-396.97166712 558.98529524 -396.97166712 558.98529524 -398.8278656 557.70849609 C-402.07977865 555.08911412 -403.77446089 553.09390476 -404.63093567 548.93984985 C-404.85702562 545.10881389 -404.86458624 541.31044625 -404.796875 537.4765625 C-404.79864692 536.04754809 -404.80394197 534.61853419 -404.81256104 533.18954468 C-404.82778082 529.43091196 -404.80407278 525.67362737 -404.76934814 521.91516113 C-404.71284777 515.22744151 -404.71646692 508.53944699 -404.734375 501.8515625 C-404.73553188 501.13889221 -404.73668877 500.42622192 -404.73788071 499.69195557 C-404.77114577 489.13267012 -405.49738183 479.27687059 -408 469 C-408.38572509 467.05786787 -408.76875817 465.1151981 -409.1484375 463.171875 C-412.75459009 446.76462889 -418.2721892 431.15700485 -423.9765625 415.38671875 C-424.74748131 413.24990367 -425.5178919 411.1129091 -426.28723145 408.9755249 C-426.9619493 407.10546216 -427.642425 405.23747976 -428.32324219 403.36962891 C-428.88640137 401.77320557 -428.88640137 401.77320557 -429.4609375 400.14453125 C-429.78626465 399.23678955 -430.1115918 398.32904785 -430.44677734 397.39379883 C-431.08408087 394.63618141 -431.17461649 393.57270414 -430 391 C-428.2875124 389.01996484 -426.58173293 387.20898791 -424.71484375 385.38671875 C-424.18033096 384.85407913 -423.64581818 384.32143951 -423.09510803 383.7726593 C-421.96118377 382.64545361 -420.8236693 381.52184972 -419.68286133 380.40161133 C-417.96125613 378.71083078 -416.25023613 377.00993062 -414.54101562 375.30664062 C-409.38590236 370.18878032 -404.19408008 365.17899588 -398.67016602 360.45629883 C-396.14795447 358.25706014 -393.83806092 355.89439973 -391.5 353.5 C-387.76997377 349.71319427 -383.93765921 346.12602691 -379.89453125 342.67578125 C-377.134772 340.23467461 -374.58789024 337.597094 -372.00390625 334.97265625 C-369.41753849 332.42662171 -366.6846472 330.07978443 -363.93359375 327.71484375 C-361.46827727 325.52843176 -359.18055333 323.19363107 -356.8737793 320.8425293 C-355.07094291 319.06975976 -353.21418978 317.41311736 -351.296875 315.765625 C-347.00773357 312.0362796 -342.87192407 308.16230241 -338.75 304.25 C-332.83886504 298.66283329 -326.89449954 293.11994569 -320.88671875 287.63671875 C-317.76898728 284.7889938 -314.66403608 281.92783402 -311.5625 279.0625 C-310.75292847 278.31480347 -310.75292847 278.31480347 -309.92700195 277.55200195 C-308.28450073 276.03484887 -306.64221388 274.5174641 -305 273 C-297.17590115 265.77025406 -289.34096296 258.55278739 -281.48388672 251.35888672 C-279.48917482 249.53220583 -277.49540093 247.70450295 -275.50170898 245.87670898 C-274.50260376 244.96076778 -273.50341789 244.04491455 -272.50415039 243.12915039 C-269.97803926 240.81406372 -267.45294702 238.49788212 -264.9296875 236.1796875 C-260.32650235 231.95233249 -255.71586224 227.73473917 -251.0625 223.5625 C-247.17629402 220.07551903 -243.33157193 216.54668015 -239.5 213 C-234.87647389 208.72025045 -230.21907665 204.48241392 -225.52734375 200.27734375 C-222.66917797 197.70190225 -219.83289739 195.10314236 -217 192.5 C-212.54938022 188.41079455 -208.06921883 184.35630885 -203.5703125 180.3203125 C-200.65571553 177.68920217 -197.76460776 175.03347525 -194.875 172.375 C-191.63786909 169.3977736 -188.38862144 166.44047034 -185.0625 163.5625 C-180.87890143 159.93787911 -176.8356539 156.16614933 -172.77758789 152.40258789 C-169.28928664 149.17324129 -165.7526582 146.01500963 -162.15625 142.90625 C-159.22759537 140.31714953 -156.36604832 137.65802213 -153.5 135 C-149.39415861 131.19285012 -145.25871875 127.43686643 -141.0234375 123.7734375 C-138.48498829 121.54861908 -135.99358224 119.27496681 -133.5 117 C-130.38092989 114.15475772 -127.25244609 111.3280042 -124.0625 108.5625 C-120.6531142 105.6011649 -117.3220569 102.55847514 -114 99.5 C-110.04408354 95.85834719 -106.05438449 92.26500564 -101.9921875 88.7421875 C-99.63979365 86.68499601 -97.31965034 84.59403085 -95 82.5 C-91.37976277 79.23295665 -87.73016435 76.00479224 -84.05078125 72.8046875 C-81.73911203 70.77041859 -79.4646857 68.6977769 -77.1875 66.625 C-73.78916448 63.55253227 -70.32409477 60.61557378 -66.75 57.75 C-61.67657078 53.6511278 -56.93930819 49.26760012 -52.19458008 44.80004883 C-47.87826283 40.75774597 -43.39523766 37.00426509 -38.77734375 33.30859375 C-35.57556812 30.64720219 -32.53769562 27.84533495 -29.5 25 C-24.70607333 20.51107721 -19.77422359 16.28693226 -14.6484375 12.17578125 C-10.9792675 9.16143362 -7.48723072 5.96743183 -3.99609375 2.75 C-2 1 -2 1 0 0 Z " fill="#00BEF2" transform="translate(1157,941)"/>
<path d="M0 0 C4.07300891 2.45785021 7.49268057 5.79912618 11 9 C11.66451172 9.60424805 12.32902344 10.20849609 13.01367188 10.83105469 C20.68638468 17.84759432 28.20494329 24.91115086 35.0234375 32.76953125 C37.13698961 35.15458709 39.35481303 37.38897972 41.625 39.625 C44.86412696 42.82523521 47.89321883 46.11551049 50.85546875 49.5703125 C53.83448821 52.9454493 56.91961932 56.21749566 60 59.5 C65.21437452 65.06628558 70.32826179 70.68337925 75.27050781 76.49365234 C76.76242576 78.24683488 78.25576805 79.99878925 79.75 81.75 C80.52234985 82.65564697 80.52234985 82.65564697 81.31030273 83.57958984 C84.69114834 87.52504981 88.15114509 91.38123248 91.6875 95.1875 C95.89029309 99.71198101 99.81689214 104.40813737 103.6875 109.21875 C106.19971133 112.24019336 108.82402457 115.12440078 111.5 118 C115.7895776 122.61001639 119.80410897 127.37783236 123.75390625 132.28515625 C126.0883059 135.10673495 128.51990598 137.80590712 131 140.5 C135.01974536 144.87170463 138.79988195 149.37786886 142.53125 153.99609375 C147.02422836 159.4630247 151.70746063 164.76675791 156.35351562 170.10351562 C160.42902525 174.79784521 164.46183847 179.52898741 168.50292969 184.25292969 C170.03286759 186.03835624 171.56670801 187.82036145 173.1015625 189.6015625 C177.60650422 194.8338868 182.08913348 200.07345663 186.4375 205.4375 C190.53915271 210.48854068 194.78591011 215.40128396 199.05786133 220.30786133 C203.97866074 225.96244531 208.82773721 231.67463329 213.65722656 237.40722656 C215.47568438 239.56424816 217.29825769 241.71777183 219.12109375 243.87109375 C220.49525771 245.49439792 221.86872338 247.11829118 223.2421875 248.7421875 C225.09911777 250.93698142 226.95876969 253.12942971 228.8203125 255.3203125 C233.06965921 260.3252298 237.29680691 265.34183625 241.4375 270.4375 C245.39508188 275.30129025 249.46542446 280.05881231 253.55834961 284.80834961 C256.58945289 288.33298919 259.56985316 291.89039882 262.5 295.5 C266.88712902 300.90076172 271.41223412 306.174677 275.94921875 311.44921875 C282.19427321 318.71031003 288.3963115 326.00553429 294.4375 333.4375 C298.39508188 338.30129025 302.46542446 343.05881231 306.55834961 347.80834961 C310.33334391 352.1980035 314.00728461 356.66114771 317.65625 361.15625 C320.39302049 364.47686486 323.1910295 367.74046782 326 371 C330.29853483 375.98802412 334.50294555 381.03902002 338.65234375 386.15234375 C340.90003341 388.87874269 343.18502916 391.56605784 345.49511719 394.23950195 C346.53908509 395.45372443 347.57495358 396.67495839 348.60253906 397.90307617 C350.8184418 400.54332357 352.94653364 402.95302188 355.54296875 405.234375 C358.7203038 408.22613119 360.75804722 410.90324739 361.2726593 415.362854 C361.35235183 418.29523367 361.32217742 421.20792136 361.25390625 424.140625 C361.24047684 425.23919327 361.22704742 426.33776154 361.21321106 427.46961975 C361.16274952 430.9804741 361.08500744 434.48982288 361 438 C360.97528625 439.11925873 360.95057251 440.23851746 360.92510986 441.39169312 C360.74097447 449.40932186 360.47974004 457.4231488 360.1875 465.4375 C360.14398407 466.65014526 360.10046814 467.86279053 360.05563354 469.11218262 C359.51027563 484.01398041 358.85540832 498.89245628 357.5625 513.75 C357.45252686 515.05380615 357.34255371 516.3576123 357.22924805 517.70092773 C355.1641156 539.26609133 355.1641156 539.26609133 347.734375 545.828125 C346.83203125 546.54484375 345.9296875 547.2615625 345 548 C344.42443359 548.45955078 343.84886719 548.91910156 343.25585938 549.39257812 C335.23546424 555.75526241 326.97149866 561.79929156 318.6875 567.8125 C317.9960791 568.31483154 317.3046582 568.81716309 316.59228516 569.3347168 C310.50184981 573.71780058 304.26149527 577.86668391 298 582 C297.28188141 582.4744455 296.56376282 582.94889099 295.82388306 583.43771362 C290.72238927 586.8074621 285.61769197 590.17232638 280.51147461 593.53491211 C277.83463345 595.29792256 275.15851218 597.06202196 272.48242188 598.82617188 C257.55756665 608.65963946 242.56422274 618.3814944 227.5 628 C220.42471768 632.5221696 213.35583452 637.05322156 206.3125 641.625 C197.18974192 647.54339626 188.0098505 653.37146788 178.83056641 659.20166016 C174.21865773 662.13173772 169.60945985 665.06607223 165 668 C163.17057958 669.16407298 161.34115249 670.32813546 159.51171875 671.4921875 C155.80542555 673.85067786 152.09976197 676.21015336 148.39453125 678.5703125 C137.37939245 685.58562649 126.35073386 692.57886956 115.3046875 699.54541016 C113.01454836 700.99081789 110.72580343 702.43840684 108.4375 703.88671875 C99.70534914 709.4117079 90.95473099 714.90583093 82.1875 720.375 C72.50475893 726.41686985 62.86486553 732.52319989 53.2421875 738.66015625 C45.94517568 743.31310913 38.62472045 747.92879846 31.3046875 752.54541016 C29.01454836 753.99081789 26.72580343 755.43840684 24.4375 756.88671875 C11.65606458 764.97426116 -1.1624959 773.00177569 -14 781 C-14.87881836 781.54769043 -15.75763672 782.09538086 -16.66308594 782.65966797 C-54.21574702 806.04192091 -54.21574702 806.04192091 -72.5625 816.625 C-73.19260986 816.9972168 -73.82271973 817.36943359 -74.47192383 817.75292969 C-76.19140625 818.7265625 -76.19140625 818.7265625 -79 820 C-82 819 -82 819 -83.09375 816.95703125 C-84.23196957 813.24309929 -84.91197412 809.51846861 -85.5 805.6875 C-85.62745605 804.86499756 -85.75491211 804.04249512 -85.88623047 803.19506836 C-90.02030101 775.17149181 -90.24638232 746.57983632 -90.9375 718.3125 C-90.95829998 717.46210899 -90.97909996 716.61171799 -91.00053024 715.73555756 C-93.04343878 631.42211121 -93.77018367 547.06642747 -94.32764959 462.73208332 C-94.34102081 460.71032547 -94.35450154 458.68856834 -94.36809015 456.66681194 C-94.52229782 433.69702029 -94.63836825 410.72791671 -94.64613605 387.75757122 C-94.64972807 379.05940356 -94.65970965 370.36124126 -94.67142725 361.66308117 C-94.67433257 359.44556561 -94.6769295 357.22804962 -94.67921972 355.01053333 C-94.71405063 323.53308527 -95.15639792 292.0836373 -95.96580124 260.61813068 C-96.03913162 257.76256126 -96.11225714 254.9069867 -96.18518066 252.05140686 C-96.20333133 251.34168778 -96.22148199 250.6319687 -96.24018267 249.90074299 C-96.51317533 239.16602981 -96.73924578 228.43111453 -96.92614746 217.69456482 C-96.93845944 216.9900277 -96.95077141 216.28549059 -96.96345648 215.55960386 C-97.08668232 208.47056529 -97.20376785 201.38144849 -97.31293462 194.29217958 C-97.36747541 190.7730521 -97.42418379 187.25396297 -97.48236084 183.7348938 C-97.49382248 183.04111258 -97.50528413 182.34733136 -97.51709309 181.63252646 C-97.70497007 170.55434162 -98.04707731 159.48617755 -98.45167821 148.41401549 C-98.85625535 137.26245877 -99.09429201 126.11457394 -99.18156725 114.9555319 C-99.23449685 108.87809257 -99.35879507 102.82508811 -99.6825161 96.75554085 C-101.46869865 62.0363182 -101.46869865 62.0363182 -93.04545546 51.5717926 C-82.7084106 41.12772421 -69.45652986 34.31140327 -56.43839073 27.8107605 C-49.13795752 24.13037876 -42.40302568 19.65017645 -35.63352454 15.0867815 C-32.19224318 12.79730202 -28.6373631 10.69728485 -25.0625 8.625 C-24.36141113 8.21854248 -23.66032227 7.81208496 -22.93798828 7.39331055 C-21.57314494 6.60716204 -20.20640851 5.82428685 -18.83740234 5.04541016 C-17.20511045 4.11669983 -15.58049051 3.17453428 -13.95703125 2.23046875 C-13.10496094 1.76253906 -12.25289062 1.29460938 -11.375 0.8125 C-10.33472656 0.23435547 -10.33472656 0.23435547 -9.2734375 -0.35546875 C-5.89126975 -1.31433074 -3.39558172 -0.80382134 0 0 Z " fill="#00BEF2" transform="translate(1368,941)"/>
</svg>
