<?xml version="1.0" encoding="UTF-8"?>
<svg version="1.1" xmlns="http://www.w3.org/2000/svg" width="512" height="512">
<path d="M0 0 C3.45847397 1.5314206 6.64693095 3.41029726 9.875 5.375 C10.70257813 5.86355469 11.53015625 6.35210938 12.3828125 6.85546875 C14.14685108 7.8985754 15.8978774 8.96395664 17.63619995 10.04937744 C20.10773284 11.48258624 22.42739633 12.66629047 25.01980591 13.81658936 C33.83016385 17.96125079 39.19981901 22.01577898 42.6328125 31.31982422 C43.90677948 35.03546828 45.0221475 38.78534348 46.125 42.5546875 C46.76870148 44.58256467 47.41799304 46.60867483 48.07250977 48.63308716 C49.77498124 53.94904441 51.40193295 59.28517598 53.01312256 64.62939453 C54.63744662 69.9714105 56.33089145 75.29132025 58.01953125 80.61328125 C60.59436634 88.75176438 63.12519332 96.90241477 65.62109375 105.06542969 C67.66263829 111.73854816 69.75717058 118.38741325 71.97265625 125.00488281 C72.19412827 125.67076227 72.41560028 126.33664173 72.64378357 127.02269936 C73.62884456 129.98160461 74.62681611 132.9346065 75.65209961 135.87985229 C77.48399097 141.35910259 78.71700856 145.37807657 77 151 C74.7694451 153.00929342 72.88236999 154.44660069 70.375 156 C69.08428692 156.86409537 67.79648682 157.73255865 66.51171875 158.60546875 C65.89731934 159.01845215 65.28291992 159.43143555 64.64990234 159.85693359 C50.58918484 169.59831852 41.7969864 188.1169569 38.0625 204.375 C34.35227252 226.45085352 38.2261849 248.7302743 51.28442383 267.20263672 C58.32608681 276.71855239 66.63157106 284.23303441 77 290 C77.81082031 290.46019531 78.62164062 290.92039062 79.45703125 291.39453125 C92.53680673 298.3887246 105.62318461 300.20037025 120.20898438 300.34179688 C121.16482422 300.36951172 122.12066406 300.39722656 123.10546875 300.42578125 C123.97324951 300.44036377 124.84103027 300.45494629 125.73510742 300.4699707 C128.79508082 301.18606451 129.3159227 302.39077976 131 305 C131.98545837 307.38633728 131.98545837 307.38633728 132.85913086 310.08569336 C133.19547043 311.11195328 133.53181 312.1382132 133.87834167 313.1955719 C134.23688736 314.31568161 134.59543304 315.43579132 134.96484375 316.58984375 C135.35074173 317.77380234 135.73663971 318.95776093 136.13423157 320.17759705 C137.18942035 323.41952012 138.23787571 326.66347109 139.28315735 329.90859222 C140.37969117 333.30859373 141.48343428 336.70625162 142.58691406 340.10400391 C143.03971686 341.4984087 143.49250606 342.89281792 143.94528198 344.28723145 C144.17196438 344.98531418 144.39864677 345.68339691 144.63219833 346.40263367 C145.33009726 348.55327141 146.02684981 350.70427798 146.72341919 352.85534668 C149.79324745 362.32854415 152.90928312 371.78550887 156.05748177 381.23293495 C157.45310674 385.42375016 158.84324922 389.61638842 160.23386669 393.80886745 C161.34847666 397.16734678 162.46675701 400.52451781 163.59298706 403.87911987 C164.84921306 407.62146312 166.08916738 411.36908997 167.328125 415.1171875 C167.70213943 416.22182846 168.07615387 417.32646942 168.46150208 418.46458435 C171.85928154 428.82221254 171.85928154 428.82221254 171 434 C169.24755859 435.95556641 169.24755859 435.95556641 166.7734375 437.4765625 C165.85530273 438.05567383 164.93716797 438.63478516 163.99121094 439.23144531 C163.00411133 439.81506836 162.01701172 440.39869141 161 441 C160.04125977 441.58620117 159.08251953 442.17240234 158.09472656 442.77636719 C154.95579825 444.67406186 151.79381182 446.52767194 148.625 448.375 C146.21850621 449.78774311 143.81420328 451.20419186 141.41015625 452.62109375 C140.49069466 453.16247734 140.49069466 453.16247734 139.55265808 453.71479797 C133.0215915 457.56589234 126.53862831 461.49492503 120.0625 465.4375 C119.48485901 465.78899109 118.90721802 466.14048218 118.31207275 466.50262451 C115.37956518 468.28719061 112.44765986 470.0727425 109.51611328 471.85888672 C104.262084 475.05936155 99.00229249 478.25034407 93.74295044 481.44207764 C92.01130578 482.49313771 90.27990276 483.54459463 88.54858398 484.59619141 C83.09641697 487.90765064 77.64306705 491.21712179 72.18609619 494.5206604 C69.6169845 496.07609128 67.04846049 497.63249115 64.47998047 499.18896484 C63.25891943 499.92854406 62.03757264 500.66765176 60.81591797 501.40625 C59.11873607 502.43238721 57.42262919 503.46030179 55.7265625 504.48828125 C54.76314941 505.07134033 53.79973633 505.65439941 52.80712891 506.25512695 C50.78767436 507.51039236 48.80700382 508.82884764 46.85424805 510.18554688 C43.17345309 512.52543809 41.29987334 512.64754322 37 512 C34.22520215 510.72725908 31.80530844 509.06494404 29.3125 507.3125 C27.82065031 506.30548896 26.32844717 505.29900137 24.8359375 504.29296875 C24.05444336 503.75849121 23.27294922 503.22401367 22.46777344 502.67333984 C18.16770224 499.75756145 13.79860527 496.9482782 9.4375 494.125 C8.20737183 493.32316284 8.20737183 493.32316284 6.95239258 492.50512695 C6.16243896 491.99038818 5.37248535 491.47564941 4.55859375 490.9453125 C3.52690063 490.27266357 3.52690063 490.27266357 2.47436523 489.58642578 C0.13557882 488.03052131 0.13557882 488.03052131 -1.90657043 487.0242157 C-7.9355266 483.75152426 -10.02356894 480.15164583 -12.50390625 473.87890625 C-13.06302452 472.55349571 -13.06302452 472.55349571 -13.63343811 471.2013092 C-14.77781907 468.47615459 -15.88913586 465.73895438 -17 463 C-17.6687736 461.40485201 -18.34036293 459.8108808 -19.01513672 458.21826172 C-20.67076199 454.29845562 -22.29751868 450.36749245 -23.9135437 446.43121338 C-25.73755782 441.98906247 -27.57291292 437.55159052 -29.40625 433.11328125 C-29.78474594 432.19617371 -30.16324188 431.27906616 -30.5532074 430.33416748 C-34.64810877 420.41720434 -38.7900873 410.52009184 -42.9375 400.625 C-43.69068407 398.82739687 -44.44385787 397.02978944 -45.19702148 395.23217773 C-46.70903578 391.62374573 -48.22138058 388.01545243 -49.73388672 384.40722656 C-53.49263313 375.4395645 -57.24593099 366.46962084 -61 357.5 C-62.48562224 353.95049787 -63.97129844 350.40101834 -65.45703125 346.8515625 C-65.82601532 345.97004517 -66.19499939 345.08852783 -66.57516479 344.18029785 C-68.93462273 338.54388247 -71.29519117 332.90793329 -73.65646362 327.27227783 C-75.27750223 323.40322584 -76.89816366 319.53401591 -78.51879883 315.66479492 C-79.28228356 313.84228813 -80.04594761 312.01985644 -80.80981445 310.19750977 C-85.5809091 298.81502585 -90.31541957 287.41837634 -95 276 C-102.40503603 279.54303584 -109.42970313 283.54407375 -116.4375 287.8125 C-118.65714052 289.15432688 -120.87720723 290.49544894 -123.09765625 291.8359375 C-123.94952515 292.35096077 -123.94952515 292.35096077 -124.81860352 292.87638855 C-130.98215555 296.60038258 -137.17706682 300.27106616 -143.375 303.9375 C-144.49874023 304.60265625 -145.62248047 305.2678125 -146.78027344 305.953125 C-149.05829851 307.30133064 -151.33645594 308.64931268 -153.61474609 309.99707031 C-159.14045151 313.26642609 -164.66403952 316.53935333 -170.1875 319.8125 C-171.27587158 320.45743408 -172.36424316 321.10236816 -173.4855957 321.7668457 C-181.97453329 326.79789735 -190.46148597 331.83229036 -198.94692993 336.86923218 C-200.33618743 337.69387273 -201.72548862 338.51843969 -203.11483765 339.34292603 C-204.4330223 340.12521684 -205.75103509 340.90779732 -207.06886292 341.69068909 C-208.32279997 342.43471767 -209.5776915 343.17714037 -210.83360291 343.91783142 C-213.56533563 345.532274 -216.26956375 347.17284662 -218.94091797 348.88574219 C-219.80475098 349.43649414 -220.66858398 349.98724609 -221.55859375 350.5546875 C-222.28232178 351.03147949 -223.0060498 351.50827148 -223.75170898 351.99951172 C-226.77303567 353.34400045 -228.71150035 353.39544603 -232 353 C-234.42823523 351.88526752 -236.56169543 350.76734191 -238.82421875 349.38671875 C-239.76633965 348.83139214 -239.76633965 348.83139214 -240.72749329 348.2648468 C-242.04796662 347.4832269 -243.36475421 346.69535022 -244.67797852 345.90161133 C-246.6843015 344.68943246 -248.70112525 343.49657797 -250.72070312 342.30664062 C-252.00586356 341.54276796 -253.29039131 340.77782964 -254.57421875 340.01171875 C-255.17425217 339.65534836 -255.77428558 339.29897797 -256.39250183 338.93180847 C-262.70890601 335.1023258 -262.70890601 335.1023258 -264 333 C-263.83269892 327.70796088 -262.11223716 323.6021422 -259.64453125 319.01953125 C-259.2832312 318.32620193 -258.92193115 317.63287262 -258.54968262 316.91853333 C-257.74407241 315.37369062 -256.93403961 313.83114849 -256.12026978 312.29058838 C-253.76369069 307.8251149 -251.44519587 303.33992558 -249.125 298.85546875 C-248.5932869 297.82901245 -248.06157379 296.80255615 -247.51374817 295.74499512 C-242.42498658 285.88885977 -237.45503015 275.97465135 -232.5 266.05078125 C-232.0838059 265.21730227 -231.66761181 264.38382328 -231.23880577 263.52508736 C-227.42176805 255.87904221 -223.60994813 248.23039919 -219.80020142 240.58071899 C-217.77031011 236.50492097 -215.73852128 232.43007311 -213.70573425 228.35571861 C-212.59881978 226.13542032 -211.49434033 223.91392372 -210.39001465 221.69233704 C-206.69321562 214.27236056 -202.91602891 206.9026134 -199.0378418 199.57568359 C-194.57951442 191.15135739 -190.26972696 182.66061547 -186.02571106 174.12658691 C-184.79762741 171.65726061 -183.5667714 169.18933165 -182.33532715 166.72167969 C-179.72124255 161.48226911 -177.11035454 156.24126973 -174.5 151 C-171.46692631 144.9099624 -168.43241766 138.8206479 -165.39448547 132.73303223 C-164.20216392 130.34207114 -163.01232079 127.94988897 -161.82263184 125.55761719 C-158.7201316 119.3334197 -155.60868742 113.11938604 -152.34204102 106.97924805 C-151.89635521 106.14121643 -151.4506694 105.30318481 -150.99147797 104.4397583 C-150.14256042 102.849967 -149.28917725 101.26254775 -148.43021393 99.67816162 C-145.93670162 95.01680101 -143.83068626 90.3138492 -141.93164635 85.37946987 C-136.53314101 71.54621081 -123.16220014 66.20700918 -110.71289062 59.91308594 C-104.92702921 56.96677041 -99.35063275 53.65561306 -93.75 50.375 C-91.59953998 49.13180583 -89.44850239 47.88961017 -87.296875 46.6484375 C-80.19962567 42.54076797 -73.11796431 38.40655844 -66.03808594 34.26904297 C-57.62922731 29.35812602 -49.2008395 24.48146013 -40.75268555 19.63842773 C-35.2223641 16.46271094 -29.7247824 13.2446658 -24.26953125 9.94140625 C-23.18478516 9.29042969 -22.10003906 8.63945312 -20.98242188 7.96875 C-18.92267209 6.73010811 -16.87009581 5.47942978 -14.82617188 4.21484375 C-5.77801168 -1.20019993 -5.77801168 -1.20019993 0 0 Z M-10.06640625 13.75390625 C-11.09588379 14.35340088 -12.12536133 14.95289551 -13.18603516 15.57055664 C-14.30026855 16.22789795 -15.41450195 16.88523926 -16.5625 17.5625 C-17.73186267 18.24604 -18.9016285 18.92889072 -20.07177734 19.61108398 C-22.50627046 21.03106009 -24.93899063 22.45400747 -27.37060547 23.87890625 C-32.93775158 27.13732576 -38.53339952 30.34630256 -44.125 33.5625 C-53.41436079 38.91711769 -62.68182632 44.30827643 -71.93945312 49.7175293 C-88.2401656 59.23569285 -104.59439728 68.66372063 -121 78 C-116.44687128 81.51381339 -111.57011259 84.38946427 -106.625 87.3125 C-105.69171875 87.88806641 -104.7584375 88.46363281 -103.796875 89.05664062 C-102.88679688 89.59095703 -101.97671875 90.12527344 -101.0390625 90.67578125 C-100.21615723 91.16989502 -99.39325195 91.66400879 -98.54541016 92.1730957 C-95.02750463 93.31592575 -93.34217339 92.47142088 -90 91 C-88.18677744 90.06721403 -86.4002814 89.08106039 -84.640625 88.05078125 C-83.62097656 87.4578125 -82.60132813 86.86484375 -81.55078125 86.25390625 C-80.46152344 85.61324219 -79.37226563 84.97257812 -78.25 84.3125 C-77.09279028 83.63743361 -75.93523143 82.96296538 -74.77734375 82.2890625 C-72.37429418 80.88984195 -69.9727608 79.48807065 -67.57226562 78.08447266 C-62.06213188 74.86550635 -56.52992383 71.68480155 -51 68.5 C-48.83323021 67.25017876 -46.66656385 66.0001782 -44.5 64.75 C-31.5 57.25 -31.5 57.25 -28.24560547 55.37255859 C-26.0934787 54.13088473 -23.94145927 52.88902478 -21.78955078 51.64697266 C-16.74969023 48.73833177 -11.70882508 45.83148102 -6.66400146 42.93145752 C-4.88250422 41.90724335 -3.10135678 40.88242349 -1.3203125 39.85742188 C0.91076625 38.57366625 3.14249573 37.29104061 5.375 36.00976562 C10.98865365 32.77798665 16.53291438 29.47428702 22 26 C18.24048344 21.87599373 13.30225802 19.54149401 8.5 16.8125 C7.53707031 16.25369141 6.57414062 15.69488281 5.58203125 15.11914062 C4.65777344 14.59126953 3.73351562 14.06339844 2.78125 13.51953125 C1.93626953 13.03589111 1.09128906 12.55225098 0.22070312 12.05395508 C-4.04993305 10.02709312 -6.25734187 11.51834943 -10.06640625 13.75390625 Z M-129 86 C-135.42532735 95.06155527 -139.93649274 105.63895678 -144.859375 115.55859375 C-145.81292052 117.47197234 -146.76688762 119.38514089 -147.72125244 121.29811096 C-150.2261995 126.32124894 -152.72668258 131.34659414 -155.22583008 136.37261963 C-159.2090156 144.38221681 -163.19750786 152.38916599 -167.1888504 160.394701 C-168.56537429 163.15777193 -169.93906809 165.92223526 -171.31243896 168.68687439 C-175.87169896 177.8486438 -180.52431009 186.94969999 -185.31560898 195.99229336 C-189.38246152 203.68401999 -193.28491076 211.45382445 -197.15948486 219.24380493 C-198.42117866 221.78033847 -199.68563571 224.31547952 -200.95068359 226.8503418 C-203.63609551 232.23241295 -206.31831302 237.61607209 -209 243 C-212.11568364 249.25524763 -215.23279697 255.50977497 -218.35333252 261.76260376 C-219.57889055 264.22004319 -220.80197229 266.67870319 -222.02490234 269.13745117 C-226.81453931 278.74760517 -231.73874313 288.27769913 -236.76901245 297.76411438 C-239.9912778 303.85333004 -243.06327479 310.01621012 -246.125 316.1875 C-246.98738281 317.9190332 -246.98738281 317.9190332 -247.8671875 319.68554688 C-249.24670865 322.45608519 -250.62432493 325.22755056 -252 328 C-249.10800701 330.38034958 -246.29059473 332.54666307 -243.01171875 334.359375 C-241.95307617 334.94912109 -241.95307617 334.94912109 -240.87304688 335.55078125 C-240.15181641 335.94652344 -239.43058594 336.34226562 -238.6875 336.75 C-237.94693359 337.16121094 -237.20636719 337.57242188 -236.44335938 337.99609375 C-234.63120373 339.00154785 -232.8159158 340.001353 -231 341 C-226.73090215 337.0050644 -223.42588222 332.6447465 -220.0625 327.875 C-218.90709387 326.25590788 -217.7508151 324.63743821 -216.59375 323.01953125 C-216.00078125 322.1888916 -215.4078125 321.35825195 -214.796875 320.50244141 C-211.92046392 316.49657 -208.99328824 312.52867698 -206.0625 308.5625 C-205.48185791 307.77601074 -204.90121582 306.98952148 -204.30297852 306.17919922 C-203.12428674 304.58297611 -201.94533157 302.98694747 -200.76611328 301.39111328 C-197.84043897 297.43008838 -194.92049694 293.46484283 -192 289.5 C-190.8333611 287.91664621 -189.66669442 286.33331288 -188.5 284.75 C-187.63375 283.574375 -187.63375 283.574375 -186.75 282.375 C-153.5 237.25 -153.5 237.25 -151.74780273 234.87207031 C-150.58839358 233.29855175 -149.42905046 231.72498454 -148.26977539 230.15136719 C-145.24262576 226.04245361 -142.21412149 221.93454784 -139.18359375 217.828125 C-138.55646484 216.97798828 -137.92933594 216.12785156 -137.28320312 215.25195312 C-136.09092326 213.63575153 -134.89824319 212.01984507 -133.70507812 210.40429688 C-133.16173828 209.66759766 -132.61839844 208.93089844 -132.05859375 208.171875 C-131.53982666 207.4713501 -131.02105957 206.7708252 -130.48657227 206.04907227 C-129.50315107 204.69353702 -128.5420707 203.32148232 -127.60522461 201.93334961 C-124.32950674 197.09325663 -124.32950674 197.09325663 -120.6875 196.0625 C-119.800625 196.041875 -118.91375 196.02125 -118 196 C-115.2873251 200.22398525 -113.3482766 204.60857632 -111.41015625 209.21875 C-111.07001495 210.01986206 -110.72987366 210.82097412 -110.37942505 211.6463623 C-109.26994745 214.26263618 -108.16605672 216.88122377 -107.0625 219.5 C-106.28639121 221.33471031 -105.51010369 223.16934502 -104.73364258 225.00390625 C-99.54022575 237.28808823 -94.41264606 249.59842684 -89.33203125 261.9296875 C-85.04225451 272.34025689 -80.70657436 282.73177103 -76.375 293.125 C-75.94603424 294.15434662 -75.51706848 295.18369324 -75.07510376 296.24423218 C-66.07441721 317.83968866 -57.040835 339.42132784 -48 361 C-45.41260542 367.17559544 -42.82546959 373.35129903 -40.23907471 379.52731323 C-39.49855871 381.29551679 -38.75795862 383.06368514 -38.01727295 384.83181763 C-33.58873827 395.40424684 -29.17282988 405.9818149 -24.7734375 416.56640625 C-23.885256 418.70223069 -22.99707241 420.83805426 -22.10888672 422.97387695 C-20.4287137 427.01450768 -18.75096913 431.05613422 -17.07470703 435.09838867 C-15.13377816 439.77593717 -13.17113948 444.44406452 -11.20440674 449.11080933 C-9.92782951 452.17312616 -8.68516752 455.2480947 -7.44287109 458.32446289 C-6.58502341 460.40019737 -5.72648184 462.47564523 -4.8671875 464.55078125 C-4.48872681 465.51022644 -4.11026611 466.46967163 -3.72033691 467.45819092 C-0.13158831 476.00444058 5.02307393 479.93114507 13.12939453 484.01025391 C16.20028368 485.6350757 18.9637934 487.63808699 21.8125 489.625 C25.13166205 492.16669568 25.13166205 492.16669568 29 493 C26.48172955 483.04568905 23.22663348 473.34840814 19.99609375 463.609375 C19.39941283 461.80341724 18.80300387 459.9973696 18.20684814 458.1912384 C16.94297433 454.36379498 15.6774249 450.53691162 14.41049194 446.71047974 C12.41697828 440.68938005 10.4273916 434.66698778 8.4387207 428.64428711 C8.1086159 427.64458735 7.7785111 426.6448876 7.43840313 425.61489391 C6.77413717 423.60318657 6.10988357 421.59147515 5.44564247 419.5797596 C4.45451624 416.57843169 3.46303827 413.57722018 2.47148132 410.57603455 C-2.48246364 395.57995172 -7.40950627 380.57532664 -12.3125 365.5625 C-19.12196991 344.72129173 -25.96193352 323.89022625 -32.8125 303.0625 C-34.8711699 296.80341046 -36.92979521 290.54430626 -38.98828125 284.28515625 C-39.24215418 283.51322496 -39.49602711 282.74129368 -39.75759315 281.94597054 C-45.4364095 264.67819124 -51.1034481 247.4065545 -56.76782227 230.1340332 C-61.68678461 215.13466639 -66.61112299 200.13709011 -71.54613113 185.14299393 C-72.36201776 182.66399525 -73.1777788 180.18495529 -73.99349976 177.7059021 C-74.53472708 176.06109556 -75.07595633 174.41628965 -75.6171875 172.77148438 C-75.8840568 171.96046076 -76.15092609 171.14943714 -76.42588234 170.31383705 C-77.98033273 165.59017073 -79.53563522 160.86678634 -81.09189796 156.14371681 C-81.8239746 153.9209464 -82.55500641 151.69783421 -83.28598022 149.47470093 C-84.22109416 146.63172572 -85.16165229 143.79063895 -86.10635376 140.95083618 C-88.24287095 134.50781992 -90.29814462 128.06485241 -92.15771484 121.53466797 C-92.66391609 119.80572548 -92.66391609 119.80572548 -93.18034363 118.04185486 C-93.79330419 115.92953352 -94.38050571 113.8094641 -94.93452454 111.68092346 C-96.80044979 105.33193326 -99.03060306 102.46068159 -104.79255676 99.15901184 C-105.52101303 98.77653793 -106.2494693 98.39406403 -107 98 C-108.45212891 97.11755615 -108.45212891 97.11755615 -109.93359375 96.21728516 C-111.17302734 95.51031494 -111.17302734 95.51031494 -112.4375 94.7890625 C-113.80841797 94.00595703 -113.80841797 94.00595703 -115.20703125 93.20703125 C-116.12871094 92.68496094 -117.05039063 92.16289063 -118 91.625 C-118.95261719 91.07972656 -119.90523437 90.53445312 -120.88671875 89.97265625 C-124.73239443 87.34038172 -124.73239443 87.34038172 -129 86 Z " fill="#000000" transform="translate(304,0)"/>
<path d="M0 0 C10.23026173 7.75069589 17.43349754 19.06844534 20.0234375 31.7265625 C22.10737786 47.56450925 19.07782995 61.36645258 9.65234375 74.28515625 C1.28593852 84.4174216 -10.61508905 90.773102 -23.56640625 92.84375 C-39.92218772 93.90554855 -53.34033098 90.27056783 -65.87890625 79.53125 C-74.97352036 70.89785245 -81.02457826 59.64623425 -81.8046875 46.97265625 C-82.22147404 29.97411997 -78.13250066 16.88952675 -66.50390625 4.09375 C-48.42927168 -13.14524222 -20.07471568 -13.7522 0 0 Z M-64.5859375 17.0546875 C-70.74971513 25.73503706 -73.68827729 36.24127866 -72.56640625 46.84375 C-71.59191226 51.33755944 -70.22679181 55.55837393 -68.56640625 59.84375 C-68.21191406 60.77832031 -67.85742188 61.71289062 -67.4921875 62.67578125 C-66.10617518 65.45217817 -65.07832371 67.00688166 -62.56640625 68.84375 C-49.93617119 71.53168394 -36.02730106 66.94996359 -25.16015625 60.60546875 C-20.52864162 57.45966589 -16.52495654 53.78872036 -12.56640625 49.84375 C-11.60927734 48.92142578 -11.60927734 48.92142578 -10.6328125 47.98046875 C-5.04395136 42.16755527 -1.74319332 35.15540278 1.43359375 27.84375 C1.81773437 26.99039063 2.201875 26.13703125 2.59765625 25.2578125 C3.43214249 22.85550363 3.78769197 21.36492929 3.43359375 18.84375 C-1.47790795 10.17980306 -10.66856104 4.85067024 -19.94140625 1.96875 C-37.40099598 -2.16836012 -53.02994768 3.51474898 -64.5859375 17.0546875 Z " fill="#000000" transform="translate(450.56640625,179.15625)"/>
</svg>
