<?xml version="1.0" encoding="UTF-8"?>
<svg version="1.1" xmlns="http://www.w3.org/2000/svg" width="225" height="225">
<path d="M0 0 C74.25 0 148.5 0 225 0 C225 74.25 225 148.5 225 225 C150.75 225 76.5 225 0 225 C0 150.75 0 76.5 0 0 Z " fill="#3F06BE" transform="translate(0,0)"/>
<path d="M0 0 C1.07507813 0.36222656 2.15015625 0.72445312 3.2578125 1.09765625 C10.73973236 3.92011962 16.80914627 7.9853173 23 13 C23.84433594 13.66773437 24.68867188 14.33546875 25.55859375 15.0234375 C35.74262589 23.5710339 43.29044681 34.58916926 48 47 C48.29390625 47.75667969 48.5878125 48.51335937 48.890625 49.29296875 C56.08659992 69.22299733 54.11683655 91.14666564 45.390625 110.28125 C34.51364476 131.54635744 17.56932661 145.59813851 -5.15234375 153.03125 C-28.21444506 159.06932743 -50.69226372 154.68488809 -71 143 C-73.93843804 141.22236641 -76.45809806 139.30672598 -79 137 C-79.94359375 136.14792969 -80.8871875 135.29585937 -81.859375 134.41796875 C-92.64550469 124.3361288 -99.25502002 112.99585181 -104 99 C-104.3609375 97.96359375 -104.721875 96.9271875 -105.09375 95.859375 C-110.01768605 80.32350781 -107.49044137 60.97393101 -102 46 C-99.30273169 47.25107339 -97.62917481 48.33550851 -95.375 50.375 C-89.40727254 55.42807577 -82.27711252 57.69391142 -74.5078125 57.31640625 C-65.44428173 56.17287667 -58.10974273 53.01388613 -52.2421875 45.85546875 C-46.73611989 38.04855646 -44.9921483 30.47890899 -46 21 C-47.79154121 13.11507311 -51.26394173 7.62327061 -57 2 C-43.44334311 -9.55065992 -15.47471358 -5.25588824 0 0 Z " fill="#5C00D1" transform="translate(141,37)"/>
<path d="M0 0 C0.67450195 0.23605957 1.34900391 0.47211914 2.04394531 0.71533203 C29.33695195 10.32301548 49.01245372 29.74930287 61.5859375 55.703125 C72.86182962 81.99277404 72.47515757 109.58438525 62 136 C51.28531734 160.85806378 31.5980686 180.66868856 6.43115234 190.72680664 C-12.75177312 197.95715889 -31.85825803 199.77956678 -52 196 C-53.47339844 195.72542969 -53.47339844 195.72542969 -54.9765625 195.4453125 C-78.16617624 190.38235101 -100.57864978 175.61124123 -114 156 C-115.01126953 154.52466797 -115.01126953 154.52466797 -116.04296875 153.01953125 C-130.99342951 129.99077274 -136.60888328 101.99981815 -130.96484375 75.0859375 C-127.02858866 57.88665571 -119.53013555 43.32770679 -108 30 C-107.236875 28.989375 -106.47375 27.97875 -105.6875 26.9375 C-80.18935205 -0.93256869 -35.85918812 -13.45717862 0 0 Z M-60 23 C-59.54109375 23.44988281 -59.0821875 23.89976563 -58.609375 24.36328125 C-52.22116345 31.06016689 -48.91201585 38.18312554 -48.5 47.5 C-48.88678696 56.24637614 -51.88071261 63.92032768 -57.9375 70.27734375 C-64.98742984 76.16563742 -73.12027858 78.45203703 -82.17578125 78.34375 C-90.77252217 77.29739702 -97.37242092 73.36805001 -103 67 C-103.66 67 -104.32 67 -105 67 C-112.69431315 88.15041429 -111.84737106 110.25444028 -103 131 C-98.84644425 139.4935554 -93.55375254 146.24001049 -87 153 C-86.07960938 154.04800781 -86.07960938 154.04800781 -85.140625 155.1171875 C-74.37297645 166.94319467 -56.11046053 174.93019209 -40.28930664 176.22119141 C-27.29230954 176.74342691 -15.35711045 176.22596441 -3 172 C-1.96101563 171.66097656 -0.92203125 171.32195312 0.1484375 170.97265625 C20.09171676 163.61824487 34.40643115 147.47365415 43.4609375 128.703125 C51.64223248 109.97147294 52.69288438 88.06325904 45.5234375 68.890625 C42.12277912 60.40096023 37.839228 53.08161693 32 46 C31.38511719 45.22269531 30.77023438 44.44539063 30.13671875 43.64453125 C17.99168803 29.0352914 -0.15767722 19.36645286 -19 17 C-40.77160534 15.19173797 -40.77160534 15.19173797 -60 23 Z " fill="#FCFBFC" transform="translate(144,16)"/>
<path d="M0 0 C0.61875 0.350625 1.2375 0.70125 1.875 1.0625 C2.57625 1.371875 3.2775 1.68125 4 2 C4.66 1.67 5.32 1.34 6 1 C6.33 1.66 6.66 2.32 7 3 C7.99 3.33 8.98 3.66 10 4 C9.01 4.33 8.02 4.66 7 5 C7.25007813 5.67289063 7.50015625 6.34578125 7.7578125 7.0390625 C8.10559167 11.29094336 6.05906162 13.90770741 3.875 17.375 C-9.20231154 39.43442629 -12.30002826 65.61790008 -6.26171875 90.38671875 C-2.13399585 106.0301666 4.65643242 119.48525903 15 132 C15.4228125 132.56847656 15.845625 133.13695312 16.28125 133.72265625 C29.64646835 150.95889821 53.69736931 162.80874988 75 166 C75.72445312 166.10957031 76.44890625 166.21914062 77.1953125 166.33203125 C91.58980899 168.11352834 106.40037201 167.63636873 120.2109375 162.8984375 C123 162 123 162 127 162 C127 162.66 127 163.32 127 164 C127.66 164 128.32 164 129 164 C129 163.34 129 162.68 129 162 C130.32 161.67 131.64 161.34 133 161 C133 161.66 133 162.32 133 163 C133.7425 162.79375 134.485 162.5875 135.25 162.375 C138.32330841 161.95591249 139.42786866 162.38050989 142 164 C139.69 164 137.38 164 135 164 C135.495 164.45375 135.99 164.9075 136.5 165.375 C138 167 138 167 138 169 C122.65232901 176.21547538 106.79404963 179.16747094 89.91430664 179.11352539 C88.71359528 179.11367142 87.51288391 179.11381744 86.27578735 179.1139679 C83.00149561 179.11339275 79.72724722 179.10839536 76.45296407 179.10139394 C73.02434431 179.09512066 69.59572361 179.09455346 66.167099 179.09336853 C59.68266037 179.0902669 53.1982387 179.08206932 46.71380752 179.07201904 C39.32805652 179.06082155 31.94230467 179.0553383 24.55654728 179.05032361 C9.37102209 179.03988569 -5.81448725 179.02230895 -21 179 C-21.07041718 163.12603493 -21.12314703 147.25211278 -21.15543652 131.37802982 C-21.17083477 124.00562853 -21.19178758 116.63332489 -21.22631836 109.26098633 C-21.25643854 102.82718709 -21.27562601 96.39345865 -21.28226548 89.95959085 C-21.28613993 86.5602064 -21.29509364 83.16102429 -21.31719017 79.7617054 C-21.41892907 62.14781285 -21.37659915 45.09078608 -14.875 28.4375 C-14.58149658 27.66083984 -14.28799316 26.88417969 -13.9855957 26.08398438 C-10.36305621 16.85922179 -5.49151433 8.23727149 0 0 Z " fill="#3F05BE" transform="translate(21,46)"/>
<path d="M0 0 C33.33 0 66.66 0 101 0 C101 34.98 101 69.96 101 106 C100.67 106 100.34 106 100 106 C99.83564453 104.47632812 99.83564453 104.47632812 99.66796875 102.921875 C96.85930438 78.01777632 88.47396117 57.00103482 72 38 C70.824375 36.453125 70.824375 36.453125 69.625 34.875 C51.67110291 15.21120795 25.91209605 4.6068119 0 1 C0 0.67 0 0.34 0 0 Z " fill="#FDFDFD" transform="translate(124,0)"/>
<path d="M0 0 C0.33 0 0.66 0 1 0 C1.1959375 1.28390625 1.391875 2.5678125 1.59375 3.890625 C5.2882269 26.3660738 13.43607198 45.36998187 28 63 C28.68449219 63.88558594 28.68449219 63.88558594 29.3828125 64.7890625 C40.79470079 79.07022556 58.17840742 88.58334447 75 95 C75.68489502 95.26433838 76.36979004 95.52867676 77.07543945 95.80102539 C83.14343083 97.99429982 89.17478568 98.91387212 95.5625 99.6875 C96.57119141 99.81705078 97.57988281 99.94660156 98.61914062 100.08007812 C101.07852642 100.39478626 103.5386332 100.70125469 106 101 C106 101.33 106 101.66 106 102 C71.02 102 36.04 102 0 102 C0 68.34 0 34.68 0 0 Z " fill="#FDFDFD" transform="translate(0,123)"/>
<path d="M0 0 C0.33 0 0.66 0 1 0 C1 33.66 1 67.32 1 102 C-32.66 102 -66.32 102 -101 102 C-101 101.67 -101 101.34 -101 101 C-99.94683594 100.84144531 -98.89367187 100.68289062 -97.80859375 100.51953125 C-67.86709229 95.78051309 -41.2924652 81.89697582 -22.40234375 57.77734375 C-9.76779763 40.28835795 -3.18648622 21.16552226 0 0 Z " fill="#FEFDFE" transform="translate(224,123)"/>
<path d="M0 0 C35.31 0 70.62 0 107 0 C107 0.33 107 0.66 107 1 C106.28199219 1.01417969 105.56398438 1.02835937 104.82421875 1.04296875 C79.45595432 2.21186761 57.29096817 13.02680473 38 29 C36.989375 29.763125 35.97875 30.52625 34.9375 31.3125 C15.50239456 49.09355391 4.20255878 75.25311293 1 101 C0.67 101 0.34 101 0 101 C0 67.67 0 34.34 0 0 Z " fill="#FDFDFD" transform="translate(0,0)"/>
<path d="M0 0 C1.49200928 0.00132935 1.49200928 0.00132935 3.01416016 0.00268555 C11.53829545 0.13786947 19.94319343 1.05341714 27.875 4.375 C28.37 5.86 28.37 5.86 28.875 7.375 C27.555 7.375 26.235 7.375 24.875 7.375 C23.62074219 7.38660156 22.36648437 7.39820313 21.07421875 7.41015625 C12.32813405 7.47156306 3.7297456 7.27294763 -4.98828125 6.49609375 C-7.92360035 6.38277508 -10.29015958 6.65698226 -13.125 7.375 C-13.125 6.715 -13.125 6.055 -13.125 5.375 C-15.99755066 7.79695448 -16.83338919 9.97242703 -17.8125 13.5625 C-18.06386719 14.46355469 -18.31523438 15.36460938 -18.57421875 16.29296875 C-18.75597656 16.98003906 -18.93773438 17.66710937 -19.125 18.375 C-22.57601522 14.12759665 -25.85779209 9.76394929 -29.125 5.375 C-19.51981613 1.46177694 -10.36055254 -0.01670206 0 0 Z " fill="#3F04BF" transform="translate(113.125,32.625)"/>
<path d="M0 0 C0.99 0.33 1.98 0.66 3 1 C-2.58926136 14.14569292 -17.61063284 23.74931566 -29.9375 29.375 C-38.19192361 32.69892897 -47.02899408 35.30070411 -56 35 C-55.01 34.505 -55.01 34.505 -54 34 C-54.66 33.01 -55.32 32.02 -56 31 C-56 29.68 -56 28.36 -56 27 C-54.35 27.33 -52.7 27.66 -51 28 C-51 28.66 -51 29.32 -51 30 C-50.29875 29.505 -49.5975 29.01 -48.875 28.5 C-45.58932694 26.78573579 -43.65298142 26.76176208 -40 27 C-39.01 27 -38.02 27 -37 27 C-35.33333333 27 -33.66666667 27 -32 27 C-32.04125 26.05125 -32.0825 25.1025 -32.125 24.125 C-32 21 -32 21 -30 19 C-27.4375 18.875 -27.4375 18.875 -25 19 C-24.67 19 -24.34 19 -24 19 C-21.33333333 19 -18.66666667 19 -16 19 C-15.67 16.69 -15.34 14.38 -15 12 C-13.02 12 -11.04 12 -9 12 C-7.57055055 9.64561267 -6.91338739 8.51967567 -7.375 5.75 C-7.58125 5.1725 -7.7875 4.595 -8 4 C-5.23735711 3.40267181 -2.83967231 3 0 3 C0 2.01 0 1.02 0 0 Z " fill="#6F0BDD" transform="translate(176,157)"/>
<path d="M0 0 C4.3475282 0.58225824 7.9550728 1.70646753 12 3.375 C21.67571276 6.96437731 31.79220215 7.88659852 42 9 C42 9.33 42 9.66 42 10 C36.50076251 10.07411371 31.00181521 10.12858464 25.50219727 10.16479492 C23.63105201 10.17988873 21.75994217 10.20036589 19.88891602 10.22631836 C17.20059474 10.26267593 14.51274087 10.27972015 11.82421875 10.29296875 C10.56782845 10.31619453 10.56782845 10.31619453 9.28605652 10.33988953 C3.39184408 10.34160054 3.39184408 10.34160054 1.25495911 8.47871399 C0.8408226 7.99073837 0.4266861 7.50276276 0 7 C0.66 6.01 1.32 5.02 2 4 C1.34 4 0.68 4 0 4 C0 2.68 0 1.36 0 0 Z " fill="#F9F7F9" transform="translate(64,215)"/>
<path d="M0 0 C1.87135349 3.2650812 2.50610676 6.22977025 3.0625 9.9375 C3.73197336 14.33523761 3.73197336 14.33523761 4.62109375 18.69140625 C5 21 5 21 4 24 C4.66 24 5.32 24 6 24 C6 26.64 6 29.28 6 32 C4.68 32 3.36 32 2 32 C1.67 32.99 1.34 33.98 1 35 C0 32 0 32 1 29 C0.34 29 -0.32 29 -1 29 C-1 30.98 -1 32.96 -1 35 C-1.33 35 -1.66 35 -2 35 C-2.41277905 11.41761516 -2.41277905 11.41761516 0 0 Z " fill="#4911C3" transform="translate(2,88)"/>
<path d="M0 0 C5.62656131 5.62656131 5.62656131 5.62656131 7.16796875 8.8125 C7.50376953 9.49570313 7.83957031 10.17890625 8.18554688 10.8828125 C8.68151367 11.93082031 8.68151367 11.93082031 9.1875 13 C9.52974609 13.69867188 9.87199219 14.39734375 10.22460938 15.1171875 C13.23602953 21.31545034 15.27660986 25.94644865 15 33 C13.68 33 12.36 33 11 33 C10.505 31.515 10.505 31.515 10 30 C9.34 30.33 8.68 30.66 8 31 C8.875 23.125 8.875 23.125 10 22 C10 20.35 10 18.7 10 17 C6.7 17 3.4 17 0 17 C0 11.39 0 5.78 0 0 Z " fill="#510AC7" transform="translate(176,63)"/>
<path d="M0 0 C1.69141656 0.08963062 3.37959602 0.24577676 5.0625 0.4375 C6.44115234 0.59025391 6.44115234 0.59025391 7.84765625 0.74609375 C8.55792969 0.82988281 9.26820312 0.91367187 10 1 C10 1.66 10 2.32 10 3 C12.64 3 15.28 3 18 3 C18 3.66 18 4.32 18 5 C16.68 6.32 15.36 7.64 14 9 C20.93 9.495 20.93 9.495 28 10 C28 10.33 28 10.66 28 11 C27.26475098 11.01981934 26.52950195 11.03963867 25.77197266 11.06005859 C22.38933373 11.1562499 19.00723463 11.26554257 15.625 11.375 C14.46871094 11.4059375 13.31242187 11.436875 12.12109375 11.46875 C5.21961964 11.70269827 -1.28483607 12.36678922 -8 14 C-8.33 13.34 -8.66 12.68 -9 12 C-7.865625 11.87625 -6.73125 11.7525 -5.5625 11.625 C-4.386875 11.41875 -3.21125 11.2125 -2 11 C-1.67 10.34 -1.34 9.68 -1 9 C-0.01 9.33 0.98 9.66 2 10 C2 9.01 2 8.02 2 7 C1.34 6.34 0.68 5.68 0 5 C0.66 4.67 1.32 4.34 2 4 C2 3.34 2 2.68 2 2 C1.01 1.67 0.02 1.34 -1 1 C-0.67 0.67 -0.34 0.34 0 0 Z " fill="#4B14C3" transform="translate(94,1)"/>
<path d="M0 0 C2.31 0 4.62 0 7 0 C7.33 1.65 7.66 3.3 8 5 C8.66 5 9.32 5 10 5 C10.33 3.35 10.66 1.7 11 0 C11.66 0 12.32 0 13 0 C13 2.31 13 4.62 13 7 C12.01 7.495 12.01 7.495 11 8 C12.27875 7.979375 13.5575 7.95875 14.875 7.9375 C18.75 7.875 18.75 7.875 21 9 C21 11.64 21 14.28 21 17 C6.23489933 10.28187919 6.23489933 10.28187919 1 4 C0.29296875 1.7890625 0.29296875 1.7890625 0 0 Z " fill="#6C04DC" transform="translate(59,168)"/>
<path d="M0 0 C0.33 0 0.66 0 1 0 C1 11.22 1 22.44 1 34 C-3 32 -3 32 -3.75 29.875 C-3.87375 28.946875 -3.87375 28.946875 -4 28 C-4.33 29.98 -4.66 31.96 -5 34 C-5.66 34 -6.32 34 -7 34 C-7 34.66 -7 35.32 -7 36 C-7.66 36 -8.32 36 -9 36 C-8.5875 34.80375 -8.175 33.6075 -7.75 32.375 C-4.21356329 21.68188807 -1.41289846 11.19164306 0 0 Z " fill="#F6F5F8" transform="translate(224,123)"/>
<path d="M0 0 C0.33 0 0.66 0 1 0 C1 4.95 1 9.9 1 15 C-0.98 15.99 -0.98 15.99 -3 17 C-3.33 16.34 -3.66 15.68 -4 15 C-7.24716062 18.48783514 -7.24716062 18.48783514 -8 23 C-8.99 22.34 -9.98 21.68 -11 21 C-11.495 21.66 -11.99 22.32 -12.5 23 C-16.10340212 25.8827217 -18.46985042 25.30200997 -23 25 C-23.33 24.34 -23.66 23.68 -24 23 C-23.3709375 22.79246094 -22.741875 22.58492187 -22.09375 22.37109375 C-12.58524521 18.94860483 -7.08815326 14.66376663 -2.5 5.5625 C-1.64841522 3.71664469 -0.80852427 1.86511849 0 0 Z " fill="#4D08C4" transform="translate(95,71)"/>
<path d="M0 0 C0 0.66 0 1.32 0 2 C-0.66 2 -1.32 2 -2 2 C-2 2.66 -2 3.32 -2 4 C-2.66 4.33 -3.32 4.66 -4 5 C-3.505 6.485 -3.505 6.485 -3 8 C-7.455 8.495 -7.455 8.495 -12 9 C-12 9.33 -12 9.66 -12 10 C-19.92 10 -27.84 10 -36 10 C-36 9.67 -36 9.34 -36 9 C-34.94683594 8.84144531 -33.89367187 8.68289062 -32.80859375 8.51953125 C-22.56021484 6.89174209 -9.74219764 0 0 0 Z " fill="#F3F0F7" transform="translate(159,215)"/>
<path d="M0 0 C2.58361518 -0.05407567 5.16609255 -0.093707 7.75 -0.125 C8.84441406 -0.15013672 8.84441406 -0.15013672 9.9609375 -0.17578125 C13.8044624 -0.21072239 16.74606772 -0.17499684 20 2 C20 3.65 20 5.3 20 7 C16.08651218 8.30449594 13.32920975 7.2633256 9.5 6.1875 C8.82324219 6.00896484 8.14648438 5.83042969 7.44921875 5.64648438 C4.20300129 4.75969716 1.82444863 3.88296575 -1 2 C-0.67 1.34 -0.34 0.68 0 0 Z " fill="#7506E2" transform="translate(84,184)"/>
<path d="M0 0 C3.94139078 1.66751148 6.7892812 4.22710649 10 7 C8.68 7.33 7.36 7.66 6 8 C6.66 9.65 7.32 11.3 8 13 C5.525 12.01 5.525 12.01 3 11 C3 11.66 3 12.32 3 13 C2.34 13 1.68 13 1 13 C0.67 13.66 0.34 14.32 0 15 C0 14.34 0 13.68 0 13 C-0.99 12.67 -1.98 12.34 -3 12 C-2.69106068 10.3743193 -2.3777305 8.74947252 -2.0625 7.125 C-1.88847656 6.22007813 -1.71445312 5.31515625 -1.53515625 4.3828125 C-1 2 -1 2 0 0 Z " fill="#5107C6" transform="translate(39,83)"/>
<path d="M0 0 C3.72890255 -0.1164862 7.45733514 -0.18734576 11.1875 -0.25 C12.77014648 -0.30027344 12.77014648 -0.30027344 14.38476562 -0.3515625 C22.28079214 -0.4511969 22.28079214 -0.4511969 26.11328125 1.953125 C26.73589844 2.62859375 27.35851562 3.3040625 28 4 C28.66 4.33 29.32 4.66 30 5 C28.40625 6.109375 28.40625 6.109375 26 7 C22.96875 6.390625 22.96875 6.390625 19.5 5.25 C13.03651506 3.24455813 6.69561343 1.93199015 0 1 C0 0.67 0 0.34 0 0 Z " fill="#F0ECF6" transform="translate(124,0)"/>
<path d="M0 0 C4.68443012 0.58555377 9.12405031 2.30480319 13 5 C13.66 6.32 14.32 7.64 15 9 C10.38 9 5.76 9 1 9 C0.67 6.03 0.34 3.06 0 0 Z " fill="#4910C1" transform="translate(143,39)"/>
<path d="M0 0 C3.37014456 1.49271243 5.87217838 3.43520826 8.625 5.875 C9.78902344 6.89207031 9.78902344 6.89207031 10.9765625 7.9296875 C12.89524597 9.89281924 13.95194753 11.48692795 15 14 C14 15 14 15 10.4375 15.0625 C9.303125 15.041875 8.16875 15.02125 7 15 C7.185625 14.38125 7.37125 13.7625 7.5625 13.125 C8.23686176 10.95839822 8.23686176 10.95839822 7 9 C7 8.01 7 7.02 7 6 C6.236875 6.226875 5.47375 6.45375 4.6875 6.6875 C2 7 2 7 0.125 5.8125 C-1 4 -1 4 -0.6875 1.8125 C-0.460625 1.214375 -0.23375 0.61625 0 0 Z " fill="#4603C3" transform="translate(161,49)"/>
<path d="M0 0 C0.66 0.33 1.32 0.66 2 1 C1 4 1 4 0 6 C-1.32 6 -2.64 6 -4 6 C-1.69 6.66 0.62 7.32 3 8 C2.67 9.65 2.34 11.3 2 13 C-2.35453922 12.74385063 -4.49609768 12.42722153 -7.875 9.5625 C-10 7 -10 7 -11 5 C-8.525 5.495 -8.525 5.495 -6 6 C-5.67 4.68 -5.34 3.36 -5 2 C-3.35 2 -1.7 2 0 2 C0 1.34 0 0.68 0 0 Z " fill="#450EC3" transform="translate(192,33)"/>
<path d="M0 0 C0.33 0 0.66 0 1 0 C1.11593506 0.60996826 1.23187012 1.21993652 1.35131836 1.84838867 C1.87980106 4.628139 2.40864714 7.40782007 2.9375 10.1875 C3.11990234 11.14720703 3.30230469 12.10691406 3.49023438 13.09570312 C3.66748047 14.02705078 3.84472656 14.95839844 4.02734375 15.91796875 C4.18968506 16.77156982 4.35202637 17.6251709 4.51928711 18.50463867 C5.0010684 21.00554603 5.49750748 23.5031792 6 26 C5.01 26 4.02 26 3 26 C3 25.01 3 24.02 3 23 C2.01 23.33 1.02 23.66 0 24 C0 16.08 0 8.16 0 0 Z " fill="#EDE7F7" transform="translate(0,123)"/>
<path d="M0 0 C3.875 2.875 3.875 2.875 5 4 C6.7015625 3.9690625 6.7015625 3.9690625 8.4375 3.9375 C12 4 12 4 14 6 C14 7.32 14 8.64 14 10 C13.34 10 12.68 10 12 10 C11.67 10.66 11.34 11.32 11 12 C9.96939453 11.27683594 9.96939453 11.27683594 8.91796875 10.5390625 C8.01691406 9.90742188 7.11585938 9.27578125 6.1875 8.625 C5.29417969 7.99851562 4.40085938 7.37203125 3.48046875 6.7265625 C1.66732122 5.46449761 -0.16188211 4.22541192 -2 3 C-2 2.34 -2 1.68 -2 1 C-1.34 0.67 -0.68 0.34 0 0 Z " fill="#F7F6F4" transform="translate(170,12)"/>
<path d="M0 0 C0.66 0 1.32 0 2 0 C1.81824219 0.59683594 1.63648438 1.19367188 1.44921875 1.80859375 C-1.04873185 10.42972583 -2.53843314 19.15803876 -4 28 C-4.33 28 -4.66 28 -5 28 C-5 20.74 -5 13.48 -5 6 C-4.34 6 -3.68 6 -3 6 C-2.01 4.02 -1.02 2.04 0 0 Z " fill="#F6F4F9" transform="translate(5,73)"/>
<path d="M0 0 C1.2375 0.0309375 1.2375 0.0309375 2.5 0.0625 C2.83 0.0625 3.16 0.0625 3.5 0.0625 C4.83568021 0.38630126 6.16923011 0.71907551 7.5 1.0625 C6.51 2.5475 6.51 2.5475 5.5 4.0625 C4.84 4.0625 4.18 4.0625 3.5 4.0625 C3.5 4.7225 3.5 5.3825 3.5 6.0625 C0.6875 7.625 0.6875 7.625 -2.5 9.0625 C-3.49 8.7325 -4.48 8.4025 -5.5 8.0625 C-3.32379863 0.08309497 -3.32379863 0.08309497 0 0 Z " fill="#6F02E0" transform="translate(148.5,175.9375)"/>
<path d="M0 0 C0.99 0.33 1.98 0.66 3 1 C3.16873478 2.43725871 3.33490737 3.87481838 3.5 5.3125 C3.5928125 6.11300781 3.685625 6.91351563 3.78125 7.73828125 C4 10 4 10 4 13 C2.125 12.75 2.125 12.75 0 12 C-1.38495802 9.85331506 -2 8.56128588 -2 6 C-1.34 6 -0.68 6 0 6 C-0.33 5.34 -0.66 4.68 -1 4 C-1.99 4 -2.98 4 -4 4 C-2.68 2.68 -1.36 1.36 0 0 Z " fill="#6A03D7" transform="translate(52,152)"/>
<path d="M0 0 C1.65 1.32 3.3 2.64 5 4 C4.67 4.99 4.34 5.98 4 7 C1.36 7 -1.28 7 -4 7 C-4 6.34 -4 5.68 -4 5 C-5.32 5.33 -6.64 5.66 -8 6 C-8 6.66 -8 7.32 -8 8 C-8.66 8 -9.32 8 -10 8 C-10.33 7.01 -10.66 6.02 -11 5 C-7.37 3.35 -3.74 1.7 0 0 Z " fill="#4510C3" transform="translate(158,202)"/>
<path d="M0 0 C0.33 0.99 0.66 1.98 1 3 C1.66 3.33 2.32 3.66 3 4 C2.01 4.33 1.02 4.66 0 5 C-0.33 6.65 -0.66 8.3 -1 10 C0.32 10 1.64 10 3 10 C3.99 10.33 4.98 10.66 6 11 C4.1875 13 4.1875 13 2 15 C1.01 15 0.02 15 -1 15 C-3 12 -3 12 -2.625 9.0625 C-2.41875 8.051875 -2.2125 7.04125 -2 6 C-2 4.68 -2 3.36 -2 2 C-1.34 1.34 -0.68 0.68 0 0 Z " fill="#440DC2" transform="translate(41,25)"/>
<path d="M0 0 C4 4 4 4 4.390625 7.234375 C4.34421875 8.39453125 4.2978125 9.5546875 4.25 10.75 C4.21390625 11.92046875 4.1778125 13.0909375 4.140625 14.296875 C4.09421875 15.18890625 4.0478125 16.0809375 4 17 C2.68 17 1.36 17 0 17 C0 11.39 0 5.78 0 0 Z " fill="#4B05C5" transform="translate(176,63)"/>
<path d="M0 0 C5.5952381 0.5952381 5.5952381 0.5952381 8 3 C8.66 3 9.32 3 10 3 C10 4.32 10 5.64 10 7 C10.66 7.33 11.32 7.66 12 8 C11.01 9.32 10.02 10.64 9 12 C8.52949219 11.45730469 8.05898437 10.91460937 7.57421875 10.35546875 C6.95160156 9.64003906 6.32898438 8.92460938 5.6875 8.1875 C5.07261719 7.47980469 4.45773438 6.77210937 3.82421875 6.04296875 C2.26665665 4.29863261 0.67341125 2.63221959 -1 1 C-0.67 0.67 -0.34 0.34 0 0 Z " fill="#F3EEF6" transform="translate(166,50)"/>
<path d="M0 0 C1.86059067 0.12504527 3.71616186 0.32615099 5.56640625 0.55859375 C6.69111328 0.69716797 7.81582031 0.83574219 8.97460938 0.97851562 C10.15861328 1.12998047 11.34261719 1.28144531 12.5625 1.4375 C13.75037109 1.58509766 14.93824219 1.73269531 16.16210938 1.88476562 C19.10872152 2.25161292 22.05459773 2.62358169 25 3 C25 3.33 25 3.66 25 4 C16.75 4 8.5 4 0 4 C-0.33 3.01 -0.66 2.02 -1 1 C-0.67 0.67 -0.34 0.34 0 0 Z " fill="#E9E3F7" transform="translate(81,221)"/>
<path d="M0 0 C0.66 0.66 1.32 1.32 2 2 C2.99 1.34 3.98 0.68 5 0 C5.28875 0.61875 5.5775 1.2375 5.875 1.875 C6.93720042 4.13325765 6.93720042 4.13325765 9 6 C7.35 6.66 5.7 7.32 4 8 C4 6.68 4 5.36 4 4 C3.01 4 2.02 4 1 4 C1.33 5.32 1.66 6.64 2 8 C1.01 8.66 0.02 9.32 -1 10 C-2.32 7.03 -3.64 4.06 -5 1 C-3.02 1.99 -3.02 1.99 -1 3 C-0.67 2.01 -0.34 1.02 0 0 Z " fill="#440CC6" transform="translate(15,158)"/>
<path d="M0 0 C1.32 0.66 2.64 1.32 4 2 C4 10.25 4 18.5 4 27 C3.67 27 3.34 27 3 27 C2.87882813 25.96101563 2.75765625 24.92203125 2.6328125 23.8515625 C1.78311697 16.73376123 0.89230994 9.71578168 -0.73046875 2.72265625 C-0.81941406 2.15417969 -0.90835938 1.58570312 -1 1 C-0.67 0.67 -0.34 0.34 0 0 Z " fill="#ECE8F7" transform="translate(221,79)"/>
<path d="M0 0 C8.25 0 16.5 0 25 0 C25 0.33 25 0.66 25 1 C24.18917969 1.04898438 23.37835938 1.09796875 22.54296875 1.1484375 C15.23864773 1.64162798 8.16973078 2.52007561 1 4 C0.67 2.68 0.34 1.36 0 0 Z " fill="#E5DFF4" transform="translate(82,0)"/>
<path d="M0 0 C1 3 1 3 1 6 C0.34 6 -0.32 6 -1 6 C-2.73662334 9.22515763 -3.8905928 12.51329166 -5 16 C-6.65 15.67 -8.3 15.34 -10 15 C-9.08333333 13.625 -8.16666667 12.25 -7.25 10.875 C-6.70601562 10.05902344 -6.16203125 9.24304688 -5.6015625 8.40234375 C-3.734375 5.6015625 -1.8671875 2.80078125 0 0 Z " fill="#F1ECF5" transform="translate(210,168)"/>
<path d="M0 0 C0.66 0.99 1.32 1.98 2 3 C-1.63 5.31 -5.26 7.62 -9 10 C-9.66 9.34 -10.32 8.68 -11 8 C-7.85214347 4.5823272 -5.41881673 2.47293891 -1 1 C-0.67 0.67 -0.34 0.34 0 0 Z " fill="#F2EFF8" transform="translate(171,191)"/>
<path d="M0 0 C-0.17625835 2.37948772 -0.69719773 3.70225849 -2.40234375 5.37890625 C-3.90649092 6.62115486 -5.45129851 7.81376056 -7 9 C-7.66 8.34 -8.32 7.68 -9 7 C-9 6.01 -9 5.02 -9 4 C-5.7309841 0.8217901 -4.67834007 0 0 0 Z " fill="#F3EFF3" transform="translate(90,80)"/>
<path d="M0 0 C2.97 0.495 2.97 0.495 6 1 C5.34 2.32 4.68 3.64 4 5 C6.97 5.495 6.97 5.495 10 6 C9.34 6.66 8.68 7.32 8 8 C8.66 9.32 9.32 10.64 10 12 C6.07328769 10.6910959 3.56073969 9.2923796 1 6 C0.25 2.75 0.25 2.75 0 0 Z " fill="#4305C9" transform="translate(47,194)"/>
<path d="M0 0 C0.33 0 0.66 0 1 0 C1.33 1.65 1.66 3.3 2 5 C2.33 3.35 2.66 1.7 3 0 C3.33 0 3.66 0 4 0 C4 5.28 4 10.56 4 16 C3.67 16 3.34 16 3 16 C2.67 14.35 2.34 12.7 2 11 C1.67 13.31 1.34 15.62 1 18 C0.67 18 0.34 18 0 18 C0 12.06 0 6.12 0 0 Z " fill="#D3C8E7" transform="translate(11,104)"/>
<path d="M0 0 C5 1.66666667 10 3.33333333 15 5 C14.67 5.66 14.34 6.32 14 7 C9.86425173 7.0984702 6.06368679 6.77403558 2 6 C2 5.01 2 4.02 2 3 C1.34 2.67 0.68 2.34 0 2 C0 1.34 0 0.68 0 0 Z " fill="#F5EEF6" transform="translate(77,184)"/>
<path d="M0 0 C0.99 0.66 1.98 1.32 3 2 C1.515 4.475 1.515 4.475 0 7 C-0.33 6.34 -0.66 5.68 -1 5 C-1.99 5.33 -2.98 5.66 -4 6 C-4.33 7.65 -4.66 9.3 -5 11 C-6.65 11.33 -8.3 11.66 -10 12 C-7.75066455 6.93899525 -4.58147862 3.10886049 0 0 Z " fill="#3802B8" transform="translate(37,29)"/>
<path d="M0 0 C0.33 0.99 0.66 1.98 1 3 C4.0745356 2.2236068 4.0745356 2.2236068 6 0 C5.56179109 4.55737263 5.14958831 7.57653445 2 11 C1.690625 10.21625 1.38125 9.4325 1.0625 8.625 C0.07124962 6.07669872 0.07124962 6.07669872 -1 4 C-0.5625 1.875 -0.5625 1.875 0 0 Z " fill="#F5F1F7" transform="translate(89,69)"/>
<path d="M0 0 C3.44421518 3.7886367 5.01152998 6.96778898 6 12 C5.625 14.9375 5.625 14.9375 5 17 C4.34 17 3.68 17 3 17 C1.7922442 13.37673261 2.45688872 12.35853631 4 9 C3.34 9 2.68 9 2 9 C1.87625 8.195625 1.7525 7.39125 1.625 6.5625 C1.315625 5.2940625 1.315625 5.2940625 1 4 C0.34 3.67 -0.32 3.34 -1 3 C-0.67 2.01 -0.34 1.02 0 0 Z " fill="#F9F6F3" transform="translate(89,44)"/>
<path d="M0 0 C4.62040332 1.45907473 4.62040332 1.45907473 6.25 3.78125 C7.22114577 6.65422291 6.6959613 7.94902429 5.625 10.75 C5.18027344 11.94882813 5.18027344 11.94882813 4.7265625 13.171875 C4.36691406 14.07679688 4.36691406 14.07679688 4 15 C3.34 15 2.68 15 2 15 C1.875 12.625 1.875 12.625 2 10 C2.66 9.34 3.32 8.68 4 8 C3.01 6.576875 3.01 6.576875 2 5.125 C0 2 0 2 0 0 Z " fill="#3B00BC" transform="translate(211,136)"/>
<path d="M0 0 C3.3 0.33 6.6 0.66 10 1 C9.34 2.65 8.68 4.3 8 6 C5.36 5.34 2.72 4.68 0 4 C0 2.68 0 1.36 0 0 Z " fill="#F1EEF5" transform="translate(135,32)"/>
<path d="M0 0 C0 0.33 0 0.66 0 1 C-2.31 1 -4.62 1 -7 1 C-6.505 1.45375 -6.01 1.9075 -5.5 2.375 C-4 4 -4 4 -4 6 C-7.01031744 6.93423645 -7.86650268 7.04449911 -11 6 C-11 5.34 -11 4.68 -11 4 C-10.34 3.67 -9.68 3.34 -9 3 C-9.33 2.34 -9.66 1.68 -10 1 C-6.42181037 -1.33958553 -4.07775191 -0.9267618 0 0 Z " fill="#3902B7" transform="translate(163,209)"/>
<path d="M0 0 C1.22855311 3.68565932 0.39009675 4.52475813 -1 8 C-0.67 8.99 -0.34 9.98 0 11 C-0.99 11.33 -1.98 11.66 -3 12 C-3.99 11.01 -4.98 10.02 -6 9 C-4.02 6.03 -2.04 3.06 0 0 Z " fill="#F3EEF6" transform="translate(31,52)"/>
<path d="M0 0 C0.33 0.99 0.66 1.98 1 3 C-2.465 4.485 -2.465 4.485 -6 6 C-6 5.34 -6 4.68 -6 4 C-6.99 3.67 -7.98 3.34 -9 3 C-9 2.34 -9 1.68 -9 1 C-2.25 0 -2.25 0 0 0 Z " fill="#4710BF" transform="translate(165,209)"/>
<path d="M0 0 C0.66 0.99 1.32 1.98 2 3 C1.1025444 6.06630664 0.26961192 7.73038808 -2 10 C-3.5 8.625 -3.5 8.625 -5 7 C-5 5 -5 5 -2.5 2.375 C-1.675 1.59125 -0.85 0.8075 0 0 Z " fill="#6B0CD7" transform="translate(182,147)"/>
<path d="M0 0 C0.66 0 1.32 0 2 0 C2 1.65 2 3.3 2 5 C2.33 5 2.66 5 3 5 C2.67 8.96 2.34 12.92 2 17 C1.67 17 1.34 17 1 17 C0.09586327 13.16275828 -0.10576898 9.62497726 -0.0625 5.6875 C-0.05347656 4.61886719 -0.04445312 3.55023438 -0.03515625 2.44921875 C-0.02355469 1.64097656 -0.01195313 0.83273438 0 0 Z " fill="#3803B9" transform="translate(1,117)"/>
<path d="M0 0 C-1.25805377 4.50802601 -2.90407165 7.4912812 -6 11 C-6.97791242 8.35963647 -7.03638105 7.12733368 -6.25 4.375 C-4.74841055 1.52198004 -3.37404586 0 0 0 Z " fill="#4111B7" transform="translate(214,160)"/>
<path d="M0 0 C2.20827308 3.31240961 2.69719195 5.06349537 3 9 C2.0625 12.875 2.0625 12.875 1 16 C-1.49310643 12.26034036 -1.0603261 10.70929359 -0.625 6.3125 C-0.51414063 5.13300781 -0.40328125 3.95351562 -0.2890625 2.73828125 C-0.19367187 1.83464844 -0.09828125 0.93101563 0 0 Z " fill="#620DD8" transform="translate(36,117)"/>
<path d="M0 0 C0.66 0 1.32 0 2 0 C2.33 2.31 2.66 4.62 3 7 C0.03 6.01 -2.94 5.02 -6 4 C-5.67 3.01 -5.34 2.02 -5 1 C-3.68 1.66 -2.36 2.32 -1 3 C-0.67 2.01 -0.34 1.02 0 0 Z " fill="#F0ECF4" transform="translate(150,35)"/>
<path d="M0 0 C1.23556641 0.01740234 1.23556641 0.01740234 2.49609375 0.03515625 C3.32238281 0.04417969 4.14867188 0.05320313 5 0.0625 C5.63808594 0.07410156 6.27617188 0.08570313 6.93359375 0.09765625 C7.26359375 0.75765625 7.59359375 1.41765625 7.93359375 2.09765625 C2.18359375 2.22265625 2.18359375 2.22265625 -0.06640625 1.09765625 C-0.06640625 2.08765625 -0.06640625 3.07765625 -0.06640625 4.09765625 C2.24359375 4.42765625 4.55359375 4.75765625 6.93359375 5.09765625 C6.93359375 5.42765625 6.93359375 5.75765625 6.93359375 6.09765625 C1.47245385 5.74532464 1.47245385 5.74532464 -1.06640625 5.09765625 C-2.56640625 3.03515625 -2.56640625 3.03515625 -3.06640625 1.09765625 C-2.06640625 0.09765625 -2.06640625 0.09765625 0 0 Z " fill="#3903B5" transform="translate(88.06640625,216.90234375)"/>
<path d="M0 0 C0.99 0.66 1.98 1.32 3 2 C3.40305624 6.35300737 3.15831711 9.22294505 1 13 C1 13.99 1 14.98 1 16 C0.01 14.68 -0.98 13.36 -2 12 C-1.505 11.4225 -1.01 10.845 -0.5 10.25 C1.36980013 7.89599371 1.36980013 7.89599371 1 4 C0.34 4 -0.32 4 -1 4 C-0.67 2.68 -0.34 1.36 0 0 Z " fill="#3901B5" transform="translate(204,155)"/>
<path d="M0 0 C1.32 0.33 2.64 0.66 4 1 C4 1.99 4 2.98 4 4 C4.66 4.33 5.32 4.66 6 5 C6.33 5.66 6.66 6.32 7 7 C5.02 7.66 3.04 8.32 1 9 C0.67 6.03 0.34 3.06 0 0 Z " fill="#3F03BD" transform="translate(143,39)"/>
<path d="M0 0 C0.33 1.32 0.66 2.64 1 4 C-0.98 4.66 -2.96 5.32 -5 6 C-5 5.34 -5 4.68 -5 4 C-6.45833358 2.37485532 -6.45833358 2.37485532 -8 1 C-5.07175348 0.02391783 -3.04386724 -0.08226668 0 0 Z " fill="#F7F5F9" transform="translate(82,0)"/>
<path d="M0 0 C1.32 0 2.64 0 4 0 C4.33 0.66 4.66 1.32 5 2 C6.64363134 2.72159424 8.31050386 3.39351421 10 4 C10 4.66 10 5.32 10 6 C2.375 4.25 2.375 4.25 -1 2 C-0.67 1.34 -0.34 0.68 0 0 Z " fill="#7715DE" transform="translate(84,184)"/>
<path d="M0 0 C4 4.5 4 4.5 4 9 C3.34 9.66 2.68 10.32 2 11 C-0.67927341 6.98108988 -0.15601248 4.75838077 0 0 Z " fill="#F3EEF7" transform="translate(194,53)"/>
<path d="M0 0 C2.62187494 1.04874998 3.79371361 1.64931313 5.25 4.125 C5.4975 4.74375 5.745 5.3625 6 6 C4.1875 6.6875 4.1875 6.6875 2 7 C0.1875 5.8125 0.1875 5.8125 -1 4 C-0.6875 1.8125 -0.6875 1.8125 0 0 Z " fill="#3F02BB" transform="translate(161,49)"/>
<path d="M0 0 C3.53600465 1.91135386 5.78972846 3.62642766 8 7 C5 8 5 8 2.3125 6.875 C0 5 0 5 -0.3125 2.3125 C-0.209375 1.549375 -0.10625 0.78625 0 0 Z " fill="#F7F5F4" transform="translate(163,25)"/>
<path d="M0 0 C2.95409701 1.37154504 5.44008376 2.98863724 8 5 C7.67 5.66 7.34 6.32 7 7 C6.34 7 5.68 7 5 7 C5 6.01 5 5.02 5 4 C2.36 4.33 -0.28 4.66 -3 5 C-2.01 3.35 -1.02 1.7 0 0 Z " fill="#3F0BBD" transform="translate(53,195)"/>
<path d="M0 0 C1.65 0.33 3.3 0.66 5 1 C3.35 2.98 1.7 4.96 0 7 C-0.99 6.34 -1.98 5.68 -3 5 C-2.67 4.01 -2.34 3.02 -2 2 C-1.34 2 -0.68 2 0 2 C0 1.34 0 0.68 0 0 Z " fill="#ECE8F7" transform="translate(35,25)"/>
<path d="M0 0 C3.3 0.33 6.6 0.66 10 1 C10 2.65 10 4.3 10 6 C6.7 4.35 3.4 2.7 0 1 C0 0.67 0 0.34 0 0 Z " fill="#7215D7" transform="translate(70,179)"/>
<path d="M0 0 C0.66 1.32 1.32 2.64 2 4 C1.34 4 0.68 4 0 4 C0 4.66 0 5.32 0 6 C-0.99 6.495 -0.99 6.495 -2 7 C-2.33 7.99 -2.66 8.98 -3 10 C-5.0625 10.6875 -5.0625 10.6875 -7 11 C-5.22054913 6.95579349 -2.60470327 3.53921513 0 0 Z " fill="#F1E3F7" transform="translate(181,155)"/>
<path d="M0 0 C2 2 2 2 2.125 5.125 C2.08375 6.07375 2.0425 7.0225 2 8 C0.35 8 -1.3 8 -3 8 C-2.67 6.02 -2.34 4.04 -2 2 C-1.34 2 -0.68 2 0 2 C0 1.34 0 0.68 0 0 Z " fill="#F9F7F5" transform="translate(222,70)"/>
<path d="M0 0 C2 2 2 2 2 4 C3.9600281 5.63676257 3.9600281 5.63676257 6 7 C2.70772079 7 0.14445451 6.84985257 -3 6 C-3.33 5.34 -3.66 4.68 -4 4 C-2.68 4 -1.36 4 0 4 C0 2.68 0 1.36 0 0 Z " fill="#3803B2" transform="translate(47,196)"/>
<path d="M0 0 C1.98 0.99 1.98 0.99 4 2 C4.66 1.34 5.32 0.68 6 0 C6.5625 1.9375 6.5625 1.9375 7 4 C6.67 4.33 6.34 4.66 6 5 C6.66 5.66 7.32 6.32 8 7 C6.35 7 4.7 7 3 7 C2.01 4.69 1.02 2.38 0 0 Z " fill="#6A12DF" transform="translate(41,146)"/>
<path d="M0 0 C-1 3 -1 3 -4 5 C-4 5.99 -4 6.98 -4 8 C-4.66 7.67 -5.32 7.34 -6 7 C-6.625 4.4375 -6.625 4.4375 -7 2 C-4 0 -4 0 0 0 Z " fill="#ECEBF4" transform="translate(89,34)"/>
<path d="M0 0 C2.97 1.65 5.94 3.3 9 5 C8.67 5.66 8.34 6.32 8 7 C6.35 7 4.7 7 3 7 C2.67 5.68 2.34 4.36 2 3 C1.34 3 0.68 3 0 3 C0 2.01 0 1.02 0 0 Z " fill="#EEEAF5" transform="translate(47,204)"/>
<path d="M0 0 C2.4375 0.75 2.4375 0.75 5 2 C5.8125 4.125 5.8125 4.125 6 6 C5.01 6.66 4.02 7.32 3 8 C0.37613513 4.93882432 0 4.26826873 0 0 Z " fill="#3B00BB" transform="translate(206,151)"/>
<path d="M0 0 C0.66 0 1.32 0 2 0 C2.66 3.3 3.32 6.6 4 10 C3.01 10.33 2.02 10.66 1 11 C0.63890458 9.35567294 0.28629924 7.7094792 -0.0625 6.0625 C-0.25972656 5.14597656 -0.45695313 4.22945312 -0.66015625 3.28515625 C-0.77230469 2.53105469 -0.88445313 1.77695313 -1 1 C-0.67 0.67 -0.34 0.34 0 0 Z " fill="#4816C8" transform="translate(12,133)"/>
<path d="M0 0 C1.1055189 0.93590504 2.20935453 1.87379858 3.3125 2.8125 C3.92738281 3.33457031 4.54226562 3.85664063 5.17578125 4.39453125 C6.85424679 5.87172469 8.43882034 7.40039131 10 9 C8.68 9 7.36 9 6 9 C5.34 8.01 4.68 7.02 4 6 C1.43717258 5.27034634 1.43717258 5.27034634 -1 5 C-0.34 4.67 0.32 4.34 1 4 C0.67 2.68 0.34 1.36 0 0 Z " fill="#4418B8" transform="translate(182,24)"/>
<path d="M0 0 C4.95 0.99 4.95 0.99 10 2 C10 2.66 10 3.32 10 4 C9.34 4 8.68 4 8 4 C7.67 4.66 7.34 5.32 7 6 C5.83054208 5.19152271 4.66449539 4.37810888 3.5 3.5625 C2.8503125 3.11003906 2.200625 2.65757813 1.53125 2.19140625 C1.0259375 1.79824219 0.520625 1.40507812 0 1 C0 0.67 0 0.34 0 0 Z " fill="#EDE7F6" transform="translate(174,18)"/>
<path d="M0 0 C0 0.66 0 1.32 0 2 C-1.65 2 -3.3 2 -5 2 C-5 1.34 -5 0.68 -5 0 C-7.31 0.33 -9.62 0.66 -12 1 C-11 -1 -11 -1 -9.375 -1.75 C-5.96334563 -2.10912151 -3.22534792 -1.05444067 0 0 Z " fill="#450EC7" transform="translate(93,212)"/>
<path d="M0 0 C2.9719385 1.12451727 5.33440687 2.22293791 8 4 C8.33 3.34 8.66 2.68 9 2 C9 3.32 9 4.64 9 6 C9.66 6.33 10.32 6.66 11 7 C5.95904225 6.55520961 3.58884285 4.33845847 0 1 C0 0.67 0 0.34 0 0 Z " fill="#F1ECFA" transform="translate(46,188)"/>
<path d="M0 0 C1.0625 1.8125 1.0625 1.8125 2 4 C1.67 4.99 1.34 5.98 1 7 C-1.86724686 6.42655063 -2.8614515 6.1385485 -5 4 C-3.35 2.68 -1.7 1.36 0 0 Z " fill="#F7F8F1" transform="translate(174,169)"/>
<path d="M0 0 C0.33 0 0.66 0 1 0 C1 2.97 1 5.94 1 9 C-3 8 -3 8 -4.25 5.9375 C-4.62125 4.9784375 -4.62125 4.9784375 -5 4 C-3.68 4 -2.36 4 -1 4 C-0.67 2.68 -0.34 1.36 0 0 Z " fill="#6C0DE0" transform="translate(55,156)"/>
<path d="M0 0 C0.99 0.33 1.98 0.66 3 1 C3 2.98 3 4.96 3 7 C2.01 7 1.02 7 0 7 C-0.66 6.34 -1.32 5.68 -2 5 C-1.46428571 1.46428571 -1.46428571 1.46428571 0 0 Z " fill="#F5F4F5" transform="translate(20,145)"/>
<path d="M0 0 C3.16033363 4.21377818 3.43052797 5.0489284 3 10 C2.67 10.66 2.34 11.32 2 12 C1.34 12 0.68 12 0 12 C0 8.04 0 4.08 0 0 Z " fill="#3802B9" transform="translate(1,98)"/>
<path d="M0 0 C1.32 1.65 2.64 3.3 4 5 C3.34 5.66 2.68 6.32 2 7 C1.67 6.34 1.34 5.68 1 5 C0.67 5.66 0.34 6.32 0 7 C-0.66 7 -1.32 7 -2 7 C-2.33 5.68 -2.66 4.36 -3 3 C-2.34 3 -1.68 3 -1 3 C-0.67 2.01 -0.34 1.02 0 0 Z " fill="#430BC8" transform="translate(209,56)"/>
<path d="M0 0 C0.66 0.33 1.32 0.66 2 1 C1.01 3.97 0.02 6.94 -1 10 C-1.66 9.67 -2.32 9.34 -3 9 C-3 6.69 -3 4.38 -3 2 C-2.34 2 -1.68 2 -1 2 C-0.67 1.34 -0.34 0.68 0 0 Z " fill="#6412D9" transform="translate(189,134)"/>
<path d="M0 0 C3.49234244 -0.09978121 6.59437148 0.22157062 10 1 C10 2.32 10 3.64 10 5 C6.08788267 3.84414715 3.1254959 2.64465038 0 0 Z " fill="#E7DFEF" transform="translate(62,200)"/>
<path d="M0 0 C0.66 0.33 1.32 0.66 2 1 C1.67 2.65 1.34 4.3 1 6 C-0.65 6 -2.3 6 -4 6 C-4 5.34 -4 4.68 -4 4 C-4.66 3.67 -5.32 3.34 -6 3 C-4.03533587 1.93224776 -2.03144641 0.93446535 0 0 Z " fill="#F4E9F9" transform="translate(150,183)"/>
<path d="M0 0 C3.24208567 0.35049575 4.61527704 0.56221181 6.8125 3.0625 C7.204375 3.701875 7.59625 4.34125 8 5 C7.34 5 6.68 5 6 5 C5.67 5.66 5.34 6.32 5 7 C4.34 7 3.68 7 3 7 C3 5.35 3 3.7 3 2 C2.01 2 1.02 2 0 2 C0 1.34 0 0.68 0 0 Z " fill="#3601B4" transform="translate(34,181)"/>
<path d="M0 0 C2.64 0.33 5.28 0.66 8 1 C8.33 2.32 8.66 3.64 9 5 C8.01 5.33 7.02 5.66 6 6 C2.8125 3.625 2.8125 3.625 0 1 C0 0.67 0 0.34 0 0 Z " fill="#F7F3F2" transform="translate(39,82)"/>
<path d="M0 0 C0.66 0.66 1.32 1.32 2 2 C1.625 5.125 1.625 5.125 1 8 C0.01 7.67 -0.98 7.34 -2 7 C-1.125 2.25 -1.125 2.25 0 0 Z " fill="#420BC4" transform="translate(21,46)"/>
<path d="M0 0 C1.98 0.99 3.96 1.98 6 3 C5.01 4.32 4.02 5.64 3 7 C1.68 5.35 0.36 3.7 -1 2 C-0.67 1.34 -0.34 0.68 0 0 Z " fill="#F2EBF9" transform="translate(194,32)"/>
<path d="M0 0 C0.66 0 1.32 0 2 0 C1.67 2.97 1.34 5.94 1 9 C-0.32 7.68 -1.64 6.36 -3 5 C-1.625 2.5 -1.625 2.5 0 0 Z " fill="#4004C9" transform="translate(207,162)"/>
<path d="M0 0 C3.60654039 2.40436026 3.85452932 3.94679607 5 8 C4.01 8.495 4.01 8.495 3 9 C2.34 8.67 1.68 8.34 1 8 C0.40644386 5.35139573 0.25790731 2.70802678 0 0 Z " fill="#4709C6" transform="translate(218,128)"/>
<path d="M0 0 C0.99 0 1.98 0 3 0 C3.625 2.8125 3.625 2.8125 4 6 C3.01 7.485 3.01 7.485 2 9 C2 8.01 2 7.02 2 6 C1.34 6 0.68 6 0 6 C0 4.02 0 2.04 0 0 Z " fill="#5002C5" transform="translate(35,98)"/>
<path d="M0 0 C0.33 0.66 0.66 1.32 1 2 C1.66 2 2.32 2 3 2 C3.625 3.8125 3.625 3.8125 4 6 C3.01 7.485 3.01 7.485 2 9 C0.68 6.36 -0.64 3.72 -2 1 C-1.34 0.67 -0.68 0.34 0 0 Z " fill="#EDEAF3" transform="translate(211,54)"/>
<path d="M0 0 C0 0.66 0 1.32 0 2 C-0.99 2.33 -1.98 2.66 -3 3 C-3.33 3.66 -3.66 4.32 -4 5 C-5.32 4.34 -6.64 3.68 -8 3 C-8 2.34 -8 1.68 -8 1 C-5.10765685 0.17361624 -3.11257569 0 0 0 Z " fill="#3C0AB8" transform="translate(142,210)"/>
<path d="M0 0 C1.98 0 3.96 0 6 0 C6 0.99 6 1.98 6 3 C4.35 3.66 2.7 4.32 1 5 C1.33 4.01 1.66 3.02 2 2 C1.34 2 0.68 2 0 2 C0 1.34 0 0.68 0 0 Z " fill="#3703B3" transform="translate(195,179)"/>
<path d="M0 0 C1.5625 1.8125 1.5625 1.8125 3 4 C2.67 4.99 2.34 5.98 2 7 C1.34 7 0.68 7 0 7 C-0.66 5.35 -1.32 3.7 -2 2 C-1.34 1.34 -0.68 0.68 0 0 Z " fill="#E8E4F1" transform="translate(203,68)"/>
<path d="M0 0 C1.98 0.495 1.98 0.495 4 1 C4.33 2.32 4.66 3.64 5 5 C2.03 4.505 2.03 4.505 -1 4 C-0.67 2.68 -0.34 1.36 0 0 Z " fill="#4C18BF" transform="translate(82,217)"/>
<path d="M0 0 C3.68754757 0.49831724 5.60490662 1.10067643 8 4 C7.01 4.99 6.02 5.98 5 7 C4.54625 6.21625 4.0925 5.4325 3.625 4.625 C2.11571258 1.96301969 2.11571258 1.96301969 0 0 Z " fill="#3600B6" transform="translate(64,209)"/>
<path d="M0 0 C2.625 0.9375 2.625 0.9375 5 2 C5 2.99 5 3.98 5 5 C4.01 5.495 4.01 5.495 3 6 C2.01 5.67 1.02 5.34 0 5 C0 4.01 0 3.02 0 2 C-0.66 1.67 -1.32 1.34 -2 1 C-1.34 0.67 -0.68 0.34 0 0 Z " fill="#F4F3F1" transform="translate(75,202)"/>
<path d="M0 0 C0.185625 0.9590625 0.185625 0.9590625 0.375 1.9375 C0.684375 2.9584375 0.684375 2.9584375 1 4 C1.66 4.33 2.32 4.66 3 5 C1.35 5.33 -0.3 5.66 -2 6 C-2.33 5.01 -2.66 4.02 -3 3 C-2.01 2.01 -1.02 1.02 0 0 Z " fill="#F0EDEE" transform="translate(189,194)"/>
<path d="M0 0 C0.33 0.99 0.66 1.98 1 3 C-5.0546875 3.9765625 -5.0546875 3.9765625 -7 4 C-7.66 3.34 -8.32 2.68 -9 2 C-3.375 0 -3.375 0 0 0 Z " fill="#F1E3F8" transform="translate(144,187)"/>
<path d="M0 0 C0.66 0.33 1.32 0.66 2 1 C1.67 2.65 1.34 4.3 1 6 C-0.65 6.33 -2.3 6.66 -4 7 C-3.6875 4.625 -3.6875 4.625 -3 2 C-2.01 1.34 -1.02 0.68 0 0 Z " fill="#F3E9F6" transform="translate(160,177)"/>
<path d="M0 0 C0.99 0.33 1.98 0.66 3 1 C3.33 3.31 3.66 5.62 4 8 C1.47411298 5.63707344 0.11179163 4.33537489 -1 1 C-0.67 0.67 -0.34 0.34 0 0 Z " fill="#4013B5" transform="translate(22,176)"/>
<path d="M0 0 C1.77706209 2.66559313 2.87548273 5.0280615 4 8 C2.68 8.33 1.36 8.66 0 9 C-0.87890625 2.84765625 -0.87890625 2.84765625 -1 1 C-0.67 0.67 -0.34 0.34 0 0 Z " fill="#EDE8EF" transform="translate(9,157)"/>
<path d="M0 0 C3.86107457 2.57404971 3.94319692 4.61020259 5 9 C2.5 7.875 2.5 7.875 0 6 C-0.3125 2.8125 -0.3125 2.8125 0 0 Z " fill="#3902B3" transform="translate(10,153)"/>
<path d="M0 0 C0.33 0.66 0.66 1.32 1 2 C0.25 4.0625 0.25 4.0625 -1 6 C-1.99 6.33 -2.98 6.66 -4 7 C-4 5.35 -4 3.7 -4 2 C-2.68 1.34 -1.36 0.68 0 0 Z " fill="#F6F3F7" transform="translate(204,152)"/>
<path d="M0 0 C0.66 0.33 1.32 0.66 2 1 C2.625 3.5625 2.625 3.5625 3 6 C2.01 6 1.02 6 0 6 C0 5.01 0 4.02 0 3 C-0.99 3.33 -1.98 3.66 -3 4 C-3 3.01 -3 2.02 -3 1 C-2.01 0.67 -1.02 0.34 0 0 Z " fill="#F6F0F9" transform="translate(3,143)"/>
<path d="M0 0 C0.66 0.66 1.32 1.32 2 2 C1.6730244 4.61580479 1.17960932 6.64078137 0 9 C-0.66 9 -1.32 9 -2 9 C-1.34 6.03 -0.68 3.06 0 0 Z " fill="#F3EFF5" transform="translate(12,54)"/>
<path d="M0 0 C1.32 0 2.64 0 4 0 C4 0.66 4 1.32 4 2 C4.66 2.33 5.32 2.66 6 3 C5.67 3.99 5.34 4.98 5 6 C3.2925002 4.71937515 1.62626404 3.38232443 0 2 C0 1.34 0 0.68 0 0 Z " fill="#3806B3" transform="translate(188,44)"/>
<path d="M0 0 C0 2.83967231 -0.40267181 5.23735711 -1 8 C-2.65 8.33 -4.3 8.66 -6 9 C-4.47291037 5.56404834 -2.40072955 2.88087546 0 0 Z " fill="#4119B8" transform="translate(33,32)"/>
<path d="M0 0 C0 0.99 0 1.98 0 3 C-0.928125 3.185625 -0.928125 3.185625 -1.875 3.375 C-4.19120832 3.87197356 -4.19120832 3.87197356 -6 6 C-6.66 5.01 -7.32 4.02 -8 3 C-5.36 2.01 -2.72 1.02 0 0 Z " fill="#4318BA" transform="translate(92,35)"/>
<path d="M0 0 C2.6875 0.875 2.6875 0.875 5 2 C4.67 2.66 4.34 3.32 4 4 C1.4375 4.625 1.4375 4.625 -1 5 C-1.66 4.01 -2.32 3.02 -3 2 C-2.01 1.34 -1.02 0.68 0 0 Z " fill="#F2EFF7" transform="translate(59,26)"/>
<path d="M0 0 C0.99 0.33 1.98 0.66 3 1 C2.34 2.65 1.68 4.3 1 6 C-0.32 6 -1.64 6 -3 6 C-3 5.34 -3 4.68 -3 4 C-2.01 4 -1.02 4 0 4 C0 2.68 0 1.36 0 0 Z " fill="#4312BF" transform="translate(205,170)"/>
<path d="M0 0 C-0.33 0.99 -0.66 1.98 -1 3 C-1.66 3 -2.32 3 -3 3 C-2.34 4.65 -1.68 6.3 -1 8 C-2.32 7.01 -3.64 6.02 -5 5 C-4.625 3.0625 -4.625 3.0625 -4 1 C-2 0 -2 0 0 0 Z " fill="#7715E4" transform="translate(67,169)"/>
<path d="M0 0 C0.33 0 0.66 0 1 0 C1 2.31 1 4.62 1 7 C0.34 7 -0.32 7 -1 7 C-1 7.66 -1 8.32 -1 9 C-1.66 9 -2.32 9 -3 9 C-2.01 6.03 -1.02 3.06 0 0 Z " fill="#E3DCEF" transform="translate(218,150)"/>
<path d="M0 0 C3.36720387 1.39332574 4.9859524 2.9789286 7 6 C4 6 4 6 1.8125 4.125 C0 2 0 2 0 0 Z " fill="#571ACE" transform="translate(39,83)"/>
<path d="M0 0 C2.32472205 2.85306797 3.7508258 5.54074837 5 9 C4.34 9 3.68 9 3 9 C3 8.34 3 7.68 3 7 C2.01 6.67 1.02 6.34 0 6 C0 4.02 0 2.04 0 0 Z " fill="#571CCC" transform="translate(183,73)"/>
<path d="M0 0 C1.06546953 3.1964086 1.07427838 5.65747276 1 9 C0.01 9.495 0.01 9.495 -1 10 C-2.23076923 4.58461538 -2.23076923 4.58461538 -1.0625 1.625 C-0.5365625 0.820625 -0.5365625 0.820625 0 0 Z " fill="#4813CA" transform="translate(203,57)"/>
<path d="M0 0 C2.31 1.98 4.62 3.96 7 6 C5 7 5 7 2.9375 6.375 C1 5 1 5 0.25 2.375 C0.1675 1.59125 0.085 0.8075 0 0 Z " fill="#4C1ABD" transform="translate(167,53)"/>
<path d="M0 0 C1.11375 0.3403125 1.11375 0.3403125 2.25 0.6875 C2.25 1.3475 2.25 2.0075 2.25 2.6875 C-0.72 2.6875 -3.69 2.6875 -6.75 2.6875 C-4.29511132 0.41445492 -3.41240272 -0.38777304 0 0 Z " fill="#3F02BF" transform="translate(155.75,45.3125)"/>
<path d="M0 0 C0.66 0.66 1.32 1.32 2 2 C0.35 3.98 -1.3 5.96 -3 8 C-3.33 7.01 -3.66 6.02 -4 5 C-2.0625 2.3125 -2.0625 2.3125 0 0 Z " fill="#EAE5F7" transform="translate(30,32)"/>
<path d="M0 0 C0.99 0 1.98 0 3 0 C3 0.66 3 1.32 3 2 C2.34 2 1.68 2 1 2 C1 2.66 1 3.32 1 4 C-0.65 4 -2.3 4 -4 4 C-4.33 3.01 -4.66 2.02 -5 1 C-2.525 1.495 -2.525 1.495 0 2 C0 1.34 0 0.68 0 0 Z " fill="#4302CC" transform="translate(180,26)"/>
<path d="M0 0 C0.99 0.33 1.98 0.66 3 1 C3 1.66 3 2.32 3 3 C0.69 3.66 -1.62 4.32 -4 5 C-4.33 4.34 -4.66 3.68 -5 3 C-2.6875 1.4375 -2.6875 1.4375 0 0 Z " fill="#4613C1" transform="translate(167,197)"/>
<path d="M0 0 C1.485 0.99 1.485 0.99 3 2 C3 3.32 3 4.64 3 6 C1.68 5.67 0.36 5.34 -1 5 C-0.67 3.35 -0.34 1.7 0 0 Z " fill="#F4EEF3" transform="translate(58,170)"/>
<path d="M0 0 C2.25245881 2.68841859 3.88213958 4.64641875 5 8 C4.01 8 3.02 8 2 8 C1.87625 7.360625 1.7525 6.72125 1.625 6.0625 C1.315625 5.0415625 1.315625 5.0415625 1 4 C0.34 3.67 -0.32 3.34 -1 3 C-0.67 2.01 -0.34 1.02 0 0 Z " fill="#E7DDF4" transform="translate(89,44)"/>
<path d="M0 0 C-1.65 1.32 -3.3 2.64 -5 4 C-5 3.34 -5 2.68 -5 2 C-5.66 2 -6.32 2 -7 2 C-7 1.34 -7 0.68 -7 0 C-3.98968256 -0.93423645 -3.13349732 -1.04449911 0 0 Z " fill="#4713BE" transform="translate(55,29)"/>
<path d="M0 0 C0 0.66 0 1.32 0 2 C0.99 2.33 1.98 2.66 3 3 C0.36 3.33 -2.28 3.66 -5 4 C-5.33 3.01 -5.66 2.02 -6 1 C-3.92446352 0.4465236 -2.15634036 0 0 0 Z " fill="#4612BF" transform="translate(87,3)"/>
</svg>
