<?xml version="1.0" encoding="UTF-8"?>
<svg version="1.1" xmlns="http://www.w3.org/2000/svg" width="280" height="280">
<path d="M0 0 C2.48846422 0.19632854 3.66440313 0.68383242 5.484375 2.3984375 C9.08101483 8.01541205 9.47264423 13.18304304 9.5 19.6875 C9.50612305 20.50718262 9.51224609 21.32686523 9.51855469 22.17138672 C9.41449009 27.19199346 8.63234608 30.59925733 6 35 C5.71125 35.680625 5.4225 36.36125 5.125 37.0625 C3.00935183 40.70611629 -0.12708555 43.32852734 -3.4375 45.875 C-6.15866136 48.13157284 -8.26868968 50.56217204 -10.52734375 53.265625 C-13.24116272 56.46174071 -16.11476735 59.31905181 -19.4375 61.875 C-22.13655268 64.11323881 -24.17026877 66.51951441 -26.390625 69.21484375 C-28.01710897 71.01897767 -29.71623992 72.44067318 -31.625 73.9375 C-37.10231745 78.48379439 -39.69296635 85.10836804 -41 92 C-41.12308574 100.20571619 -39.05010835 107.55885211 -33.5625 113.75 C-32.716875 114.4925 -31.87125 115.235 -31 116 C-11 136 -11 136 -8.5 138.5625 C-6.08253252 141.01152508 -6.08253252 141.01152508 -3.5 142.9375 C0.38738533 146.1445929 4.3926101 149.73595416 5 155 C5.66 155 6.32 155 7 155 C10.83392253 162.57546139 10.48492903 174.1902498 8.01953125 182.17578125 C5.85717945 186.24100264 4.14666389 188.0291138 0 190 C-7.07046582 182.95276976 -14.1381798 175.90279227 -21.20245552 168.84935665 C-24.48324748 165.57376906 -27.76495715 162.29911234 -31.04882812 159.02661133 C-34.2216799 155.8646757 -37.39203712 152.70025812 -40.56072617 149.53415108 C-41.76621024 148.33050558 -42.97256977 147.12773618 -44.1798439 145.92588615 C-59.37993477 130.79133756 -70.27499495 117.47385205 -70.5 95.0625 C-70.41610417 84.77843201 -69.12199203 73.596498 -63 65 C-62.34 65 -61.68 65 -61 65 C-60.9175 64.2575 -60.835 63.515 -60.75 62.75 C-59.82553044 59.36027827 -58.57656965 58.3676586 -56 56 C-55.07400537 54.90364434 -54.15820933 53.79863348 -53.25 52.6875 C-50.39619304 49.31350544 -47.24199609 46.48605371 -43.8828125 43.625 C-41.46133317 41.53509253 -39.23070989 39.29099935 -37 37 C-27 27 -27 27 -24.4375 24.5 C-22.00543753 22.10609032 -22.00543753 22.10609032 -20.1875 19.625 C-17.68756671 16.62508005 -14.9141136 14.22860274 -11.953125 11.6953125 C-8.53505813 8.72843046 -5.44662589 5.50109246 -2.4375 2.125 C-1.633125 1.42375 -0.82875 0.7225 0 0 Z " fill="#008166" transform="translate(142,6)"/>
<path d="M0 0 C4.18374334 3.5085571 8.18564713 7.08526942 12 11 C12.825 11.825 13.65 12.65 14.5 13.5 C20.33333333 19.33333333 26.16666667 25.16666667 32 31 C33.2684375 32.2375 33.2684375 32.2375 34.5625 33.5 C37 36 37 36 38.8125 38.375 C41.30961483 41.3715378 44.08189414 43.76548547 47.03515625 46.30078125 C53.43388834 51.834476 53.43388834 51.834476 55.0625 55.1875 C55.850613 57.16219933 55.850613 57.16219933 57.875 57.87890625 C64.35969832 61.30006143 67.88272597 70.88844973 70.0703125 77.47265625 C74.26344079 94.86562264 72.02407489 112.52148233 62.94335938 127.77490234 C62.02973967 129.22796447 61.02206321 130.62105935 60 132 C59.34 132 58.68 132 58 132 C57.773125 132.7425 57.54625 133.485 57.3125 134.25 C55.72083314 137.58492105 53.91375963 138.74845847 51 141 C49.43770519 142.71441299 47.95967752 144.48576323 46.47265625 146.265625 C43.75883728 149.46174071 40.88523265 152.31905181 37.5625 154.875 C35.443446 156.63226429 33.91785153 158.21269503 32.1875 160.3125 C29.36595858 163.70853052 26.23874745 166.5167132 22.8828125 169.375 C20.46133317 171.46490747 18.23070989 173.70900065 16 176 C13.48909203 178.51090797 10.97923975 181.0202539 8.4375 183.5 C5.94067421 185.95634455 5.94067421 185.95634455 3.875 188.8125 C3.25625 189.534375 2.6375 190.25625 2 191 C1.01 191 0.02 191 -1 191 C-5.67611665 185.76788167 -8.84136694 178.32750987 -9.09765625 171.3359375 C-8.67434589 164.00544104 -7.20742242 155.95420486 -1.625 150.8125 C-0.75875 150.214375 0.1075 149.61625 1 149 C1.9635089 147.9184544 2.89891367 146.81153305 3.8125 145.6875 C6.63404142 142.29146948 9.76125255 139.4832868 13.1171875 136.625 C15.53866683 134.53509253 17.76929011 132.29099935 20 130 C25 125 25 125 27.3125 122.75 C28.199375 121.8425 29.08625 120.935 30 120 C30.64453125 119.35160156 31.2890625 118.70320313 31.953125 118.03515625 C38.30715285 111.33989358 42.04358613 104.91625514 42.5625 95.5625 C41.94121004 84.52653143 35.9465481 77.08886742 28.19140625 69.78125 C26.92489479 68.54526062 26.92489479 68.54526062 25.63279724 67.28430176 C22.95683514 64.67445724 20.26213814 62.08533066 17.5625 59.5 C14.86732405 56.91384946 12.17747038 54.32317764 9.50291443 51.71569824 C7.84673104 50.10125709 6.17900256 48.49853889 4.49769592 46.91027832 C-3.03305628 39.57408548 -8.75353366 31.41956793 -9.16796875 20.62890625 C-8.6968234 13.25493371 -5.28240256 5.28240256 0 0 Z " fill="#008066" transform="translate(143,82)"/>
</svg>
